<?xml version='1.0' encoding='utf-8'?>
<svg xmlns:ns0="http://www.w3.org/2000/svg" viewBox="0 0 450 450" xmlns="http://www.w3.org/2000/svg"><ns0:g>
	<ns0:g>
		<ns0:path style="fill:#1C2733;" d="M275.771,113.976l-0.052-18.326c0.002,0.591,0.381,1.182,1.144,1.64l0.052,18.327    C276.152,115.158,275.772,114.567,275.771,113.976z" />
		<ns0:path style="fill:#2E4154;" d="M283.932,95.626l0.052,18.326c0.002,0.627-0.421,1.253-1.264,1.723    c-1.636,0.913-4.235,0.886-5.806-0.059l-0.052-18.327c1.57,0.945,4.169,0.972,5.806,0.059    C283.511,96.879,283.934,96.252,283.932,95.626z" />
		<ns0:path style="fill:#1C2733;" d="M278.64,97.906c-0.653-0.113-1.271-0.312-1.777-0.617l0.052,18.327    c0.493,0.296,1.092,0.492,1.725,0.606V97.906z" />
		<ns0:path style="fill:#E67E22;" d="M275.92,97.539c0.147,0.088,0.354,0.08,0.582-0.048c1.761,1.06,4.677,1.089,6.512,0.066    c1.836-1.023,1.896-2.712,0.136-3.772c-1.762-1.06-4.678-1.089-6.513-0.066c-1.836,1.023-1.896,2.712-0.135,3.772    C276.273,97.618,276.067,97.627,275.92,97.539c-1.57-0.979-1.793-2.066-1.824-2.798c-0.003-0.874,0.588-1.748,1.762-2.403    c2.283-1.273,5.908-1.236,8.098,0.082c1.064,0.639,1.593,1.463,1.595,2.288c-0.046,1.619-1.272,2.864-3.452,3.505    c-0.153,0.045-1.547,0.436-3.192,0.256C277.263,98.29,276.423,97.819,275.92,97.539z" />
		<ns0:path style="fill:#E67E22;" d="M274.096,94.74l-0.002-0.506c0.003,0.824,0.532,1.648,1.595,2.288l0.002,0.506    C274.627,96.388,274.098,95.564,274.096,94.74z" />
		<ns0:path style="fill:#FFDF5E;" d="M276.495,95.156c-1.762-1.06-1.701-2.749,0.135-3.773c1.836-1.023,4.751-0.994,6.513,0.066    c1.761,1.06,1.7,2.749-0.135,3.772C281.172,96.246,278.256,96.216,276.495,95.156z M276.855,94.956    c1.57,0.945,4.17,0.971,5.806,0.059c1.637-0.913,1.69-2.418,0.121-3.363c-1.57-0.945-4.17-0.971-5.807-0.059    C275.339,92.504,275.285,94.01,276.855,94.956L276.855,94.956z" />
		<ns0:path style="fill:#E67E22;" d="M283.559,97.623c-2.229,1.212-5.513,1.176-7.639-0.084c-0.142-0.085-0.229-0.262-0.229-0.511    c2.189,1.318,5.814,1.354,8.097,0.082c1.175-0.655,1.766-1.529,1.763-2.403c-0.012,0.32-0.034,0.917-0.532,1.646    C284.538,97.056,283.779,97.503,283.559,97.623z" />
		<ns0:path style="fill:#F1C40F;" d="M283.724,91.402c1.186,0.733,1.799,1.674,1.825,2.798c0.002,0.874-0.588,1.748-1.763,2.403    c-2.282,1.272-5.908,1.236-8.098-0.082c-0.001-0.507,0.358-1.115,0.807-1.365c1.761,1.06,4.677,1.09,6.513,0.066    c1.835-1.023,1.896-2.712,0.135-3.772c-1.762-1.06-4.677-1.089-6.513-0.066c-1.836,1.024-1.896,2.713-0.135,3.773    c-0.448,0.25-0.808,0.858-0.807,1.365c-1.063-0.64-1.592-1.464-1.595-2.288c0.033-0.886,0.309-1.484,1.015-2.207    c0.241-0.246,0.957-0.864,2.406-1.29C279.53,90.144,282.142,90.424,283.724,91.402z" />
		<ns0:path style="fill:#E67E22;" d="M285.549,94.2l0.001,0.507c0.003,0.874-0.588,1.748-1.763,2.403    c-2.282,1.272-5.907,1.236-8.097-0.082l-0.002-0.506c2.189,1.318,5.815,1.354,8.098,0.082    C284.961,95.948,285.551,95.074,285.549,94.2z" />
		<ns0:path style="fill:#1C2733;" d="M275.712,93.315l-0.004-1.38c0.002,0.591,0.382,1.182,1.144,1.64l0.004,1.381    C276.094,94.497,275.714,93.906,275.712,93.315z" />
		<ns0:path style="fill:#2E4154;" d="M283.921,91.91l0.004,1.381c0.002,0.627-0.421,1.253-1.264,1.723    c-1.636,0.913-4.235,0.886-5.806-0.059l-0.004-1.381c1.57,0.945,4.17,0.971,5.806,0.059    C283.5,93.164,283.923,92.537,283.921,91.91z" />
		<ns0:path style="fill:#1C2733;" d="M278.64,95.573v-1.38c-0.657-0.112-1.279-0.312-1.788-0.618l0.004,1.381    C277.363,95.261,277.983,95.46,278.64,95.573z" />
		<ns0:path style="fill:#4C6A8A;" d="M276.852,93.575c-1.57-0.945-1.517-2.451,0.12-3.363c1.637-0.913,4.236-0.886,5.807,0.059    c1.569,0.945,1.516,2.451-0.121,3.363C281.021,94.546,278.422,94.52,276.852,93.575z M277.862,93.011    c1.035,0.623,2.747,0.64,3.825,0.039c1.078-0.602,1.113-1.593,0.079-2.216c-1.034-0.623-2.746-0.64-3.824-0.039    C276.864,91.396,276.828,92.388,277.862,93.011L277.862,93.011z" />
		<ns0:path style="fill:#401D06;" d="M277.109,91.93l-0.123-25.435c0.001,0.389,0.251,0.778,0.753,1.081l0.123,25.435    C277.36,92.709,277.11,92.32,277.109,91.93z" />
		<ns0:path style="fill:#78360C;" d="M282.396,66.479l0.123,25.436c0.002,0.413-0.277,0.826-0.832,1.135    c-1.078,0.601-2.79,0.584-3.825-0.039l-0.123-25.435c1.034,0.622,2.747,0.64,3.825,0.039    C282.119,67.305,282.397,66.892,282.396,66.479z" />
		<ns0:path style="fill:#401D06;" d="M279.241,68.005c-0.551-0.054-1.086-0.179-1.502-0.43l0.123,25.435    c0.386,0.232,0.873,0.351,1.379,0.415V68.005z" />
	</ns0:g>
	<ns0:g>
		<ns0:g style="enable-background:new    ;">
			<ns0:g>
				<ns0:path style="fill:#ACB1B5;" d="M293.679,34.923l2.863,1.663c-3.408-1.98-8.127-1.702-13.334,1.304l-2.863-1.664      C285.552,33.221,290.271,32.942,293.679,34.923z" />
			</ns0:g>
			<ns0:g>
				<ns0:path style="fill:#BDC3C7;" d="M269.996,82.264l-2.863-1.664c-3.364-1.956-5.451-6.112-5.468-12.019      c-0.034-11.89,8.333-26.381,18.68-32.355l2.863,1.664c-10.348,5.974-18.714,20.465-18.681,32.355      C264.545,76.152,266.631,80.309,269.996,82.264z" />
			</ns0:g>
			<ns0:g>
				<ns0:path style="fill:#7F8C8D;" d="M264.527,70.246c0-0.138,0.016-0.279,0.018-0.417l-2.863-1.653      c-0.002,0.134-0.017,0.272-0.017,0.407c0.017,5.906,2.104,10.063,5.468,12.019l2.863,1.664      C266.631,80.309,264.545,76.152,264.527,70.246z" />
			</ns0:g>
			<ns0:g>
				<ns0:path style="fill:#ECF0F1;" d="M283.208,37.891c10.347-5.974,18.768-1.175,18.802,10.714c0.033,11.89-8.333,26.381-18.68,32.355      c-10.348,5.974-18.769,1.175-18.803-10.714C264.494,58.355,272.86,43.864,283.208,37.891z" />
			</ns0:g>
		</ns0:g>
	</ns0:g>
	<ns0:g>
		<ns0:path style="fill:#ECF0F1;" d="M302.01,48.605c0,11.952-8.391,26.484-18.741,32.46c-10.35,5.976-18.741,1.131-18.741-10.82    c0-11.952,8.391-26.484,18.741-32.46C293.619,31.81,302.01,36.654,302.01,48.605z" />
		<ns0:path style="fill:#C0392B;" d="M300.27,49.61c0,10.842-7.611,24.025-17.001,29.446c-9.389,5.421-17.001,1.026-17.001-9.815    s7.611-24.025,17.001-29.446C292.658,34.374,300.27,38.768,300.27,49.61z" />
		<ns0:path style="fill:#ECF0F1;" d="M298.015,50.912c0,9.404-6.602,20.838-14.746,25.54c-8.144,4.702-14.745,0.89-14.745-8.513    c0-9.404,6.602-20.838,14.745-25.54C291.412,37.697,298.015,41.509,298.015,50.912z" />
		<ns0:g>
			<ns0:path style="fill:#C0392B;" d="M276.737,57.636c2.159-1.247,3.535-0.961,3.535,0.739c0,1.175-0.633,2.479-1.651,3.399     c1.211-0.429,1.981,0.222,1.981,1.668c0,1.89-1.43,3.907-3.701,5.218l-4.718,2.724v-11.12L276.737,57.636z M274.618,63.308     l1.981-1.144c0.716-0.413,1.169-1.12,1.169-1.835c0-0.715-0.453-0.866-1.169-0.453l-1.982,1.144L274.618,63.308z M274.618,67.804     l1.981-1.144c0.908-0.524,1.472-1.311,1.472-2.105c0-0.746-0.564-0.881-1.472-0.357l-1.981,1.144V67.804z" />
			<ns0:path style="fill:#C0392B;" d="M282.025,65.703v-11.12l2.449-1.414v11.12L282.025,65.703z" />
			<ns0:path style="fill:#C0392B;" d="M290.542,49.666c3.027-1.748,5.118-0.699,5.118,2.605c0,3.289-2.118,6.783-5.214,8.571     l-4.044,2.334v-11.12L290.542,49.666z M288.851,59.507l1.747-1.008c1.5-0.866,2.572-2.82,2.572-4.773     c0-1.97-1.128-2.669-2.683-1.771l-1.637,0.945V59.507z" />
		</ns0:g>
	</ns0:g>
</ns0:g>
</svg>