<?xml version='1.0' encoding='utf-8'?>
<svg xmlns:ns0="http://www.w3.org/2000/svg" viewBox="0 0 450 450" xmlns="http://www.w3.org/2000/svg"><ns0:g>
	<ns0:g>
		<ns0:polygon style="fill:#1C2732;" points="162.906,412.207 156.264,408.348 156.207,388.319 162.849,392.179   " />
		<ns0:polygon style="fill:#3D556E;" points="162.849,392.179 156.207,388.319 178.673,375.349 185.314,379.208   " />
		<ns0:polygon style="fill:#1C2732;" points="163.468,390.435 165.819,390.435 185.314,379.208 182.77,377.728   " />
		<ns0:polygon style="fill:#283849;" points="185.314,379.208 185.372,399.236 162.906,412.207 162.849,392.179   " />
	</ns0:g>
	<ns0:g>
		<ns0:polygon style="fill:#81795B;" points="163.468,390.435 158.819,387.732 158.809,384.297 163.458,386.998   " />
		<ns0:polygon style="fill:#E3D7A2;" points="163.458,386.998 158.809,384.297 178.11,373.153 182.76,375.855   " />
		<ns0:polygon style="fill:#81795B;" points="164.52,385.429 166.178,385.429 182.76,375.855 180.267,374.406   " />
		<ns0:polygon style="fill:#BAB084;" points="182.76,375.855 182.77,379.291 163.468,390.435 163.458,386.998   " />
	</ns0:g>
	<ns0:g>
		<ns0:g style="enable-background:new    ;">
			<ns0:g>
				<ns0:polygon style="fill:#B87F5D;" points="164.52,385.429 161.199,383.499 160.197,376.935 163.518,378.865     " />
			</ns0:g>
			<ns0:g>
				<ns0:polygon style="fill:#D6946D;" points="177.795,353.264 174.475,351.334 178.747,348.868 182.067,350.798     " />
			</ns0:g>
			<ns0:g>
				<ns0:polygon style="fill:#D6946D;" points="176.995,353.726 173.674,351.796 174.475,351.334 177.795,353.264     " />
			</ns0:g>
			<ns0:g>
				<ns0:polygon style="fill:#D6946D;" points="162.801,374.171 182.102,363.027 179.874,376.564 164.52,385.429 163.518,378.865           " />
			</ns0:g>
			<ns0:g>
				<ns0:polygon style="fill:#D6946D;" points="162.801,374.171 159.48,372.241 178.781,361.098 182.102,363.027     " />
			</ns0:g>
			<ns0:g>
				<ns0:polygon style="fill:#D6946D;" points="162.602,374.286 159.281,372.355 159.48,372.241 162.801,374.171     " />
			</ns0:g>
			<ns0:g>
				<ns0:polygon style="fill:#D6946D;" points="162.602,374.286 159.281,372.355 159.26,364.89 162.581,366.82     " />
			</ns0:g>
			<ns0:g>
				<ns0:polygon style="fill:#8A5F46;" points="162.581,366.82 159.26,364.89 159.247,360.126 162.567,362.056     " />
			</ns0:g>
			<ns0:g>
				<ns0:polygon style="fill:#D6946D;" points="161.294,365.706 161.404,365.801 162.581,366.82 162.602,374.286 162.801,374.171       163.518,378.865 157.78,371.786     " />
			</ns0:g>
			<ns0:g>
				<ns0:polygon style="fill:#D6946D;" points="182.067,350.798 182.102,363.027 162.801,374.171 162.602,374.286 162.581,366.82       162.567,362.056 166.839,359.59 167.64,359.128 171.917,356.657 172.718,356.195 176.995,353.726 177.795,353.264     " />
			</ns0:g>
			<ns0:g>
				<ns0:polygon style="fill:#D6946D;" points="163.518,378.865 160.197,376.935 159.48,372.241 162.801,374.171     " />
			</ns0:g>
			<ns0:g>
				<ns0:polygon style="fill:#D6946D;" points="172.718,356.195 169.396,354.266 173.674,351.796 176.995,353.726     " />
			</ns0:g>
			<ns0:g>
				<ns0:polygon style="fill:#D6946D;" points="171.917,356.657 168.597,354.728 169.396,354.266 172.718,356.195     " />
			</ns0:g>
			<ns0:g>
				<ns0:polygon style="fill:#D6946D;" points="167.64,359.128 164.319,357.197 168.597,354.728 171.917,356.657     " />
			</ns0:g>
			<ns0:g>
				<ns0:polygon style="fill:#A37153;" points="177.795,353.264 174.475,351.334 174.44,339.098 177.761,341.027     " />
			</ns0:g>
			<ns0:g>
				<ns0:path style="fill:#B87F5D;" d="M178.087,335.254l3.321,1.931c-0.388-0.226-0.925-0.194-1.518,0.148l-3.321-1.93      C177.162,335.06,177.699,335.028,178.087,335.254z" />
			</ns0:g>
			<ns0:g>
				<ns0:polygon style="fill:#D6946D;" points="166.839,359.59 163.519,357.659 164.319,357.197 167.64,359.128     " />
			</ns0:g>
			<ns0:g>
				<ns0:path style="fill:#D6946D;" d="M179.89,337.333c1.179-0.681,2.139-0.134,2.143,1.227l0.035,12.237l-4.272,2.466l-0.035-12.236      C177.757,339.665,178.71,338.014,179.89,337.333z" />
			</ns0:g>
			<ns0:g>
				<ns0:path style="fill:#DB9B75;" d="M177.761,341.027l-3.321-1.93c-0.004-1.362,0.95-3.014,2.129-3.694l3.321,1.93      C178.71,338.014,177.757,339.665,177.761,341.027z" />
			</ns0:g>
			<ns0:g>
				<ns0:polygon style="fill:#A37153;" points="163.518,378.865 160.197,376.935 154.46,369.856 157.78,371.786     " />
			</ns0:g>
			<ns0:g>
				<ns0:polygon style="fill:#D6946D;" points="161.404,365.801 158.083,363.871 157.974,363.776 161.294,365.706     " />
			</ns0:g>
			<ns0:g>
				<ns0:polygon style="fill:#D6946D;" points="157.78,371.786 154.46,369.856 157.974,363.776 161.294,365.706     " />
			</ns0:g>
			<ns0:g>
				<ns0:polygon style="fill:#D6946D;" points="162.567,362.056 159.247,360.126 163.519,357.659 166.839,359.59     " />
			</ns0:g>
			<ns0:g>
				<ns0:polygon style="fill:#A37153;" points="172.718,356.195 169.396,354.266 169.354,339.443 172.675,341.373     " />
			</ns0:g>
			<ns0:g>
				<ns0:path style="fill:#B87F5D;" d="M173.01,335.605l3.321,1.93c-0.389-0.227-0.929-0.194-1.526,0.15l-3.321-1.93      C172.081,335.411,172.621,335.379,173.01,335.605z" />
			</ns0:g>
			<ns0:g>
				<ns0:path style="fill:#D6946D;" d="M174.805,337.685c1.185-0.683,2.145-0.137,2.148,1.218l0.042,14.822l-4.277,2.47l-0.042-14.822      C172.672,340.019,173.625,338.366,174.805,337.685z" />
			</ns0:g>
			<ns0:g>
				<ns0:path style="fill:#DB9B75;" d="M172.675,341.373l-3.321-1.93c-0.003-1.355,0.95-3.007,2.129-3.688l3.321,1.93      C173.625,338.366,172.672,340.019,172.675,341.373z" />
			</ns0:g>
			<ns0:g>
				<ns0:path style="fill:#B87F5D;" d="M156.502,358.805l3.321,1.93c-0.495-0.288-1.177-0.234-1.901,0.184l-3.321-1.93      C155.325,358.57,156.007,358.517,156.502,358.805z" />
			</ns0:g>
			<ns0:g>
				<ns0:path style="fill:#DB9B75;" d="M157.341,361.327l-3.321-1.93c0.195-0.162,0.389-0.298,0.581-0.409l3.321,1.93      C157.73,361.029,157.536,361.165,157.341,361.327z" />
			</ns0:g>
			<ns0:g>
				<ns0:polygon style="fill:#A37153;" points="167.64,359.128 164.319,357.197 164.271,340.509 167.592,342.439     " />
			</ns0:g>
			<ns0:g>
				<ns0:path style="fill:#B87F5D;" d="M162.854,341.468l3.321,1.93c-0.389-0.226-0.926-0.194-1.52,0.148l-3.321-1.93      C161.927,341.273,162.465,341.242,162.854,341.468z" />
			</ns0:g>
			<ns0:g>
				<ns0:path style="fill:#B87F5D;" d="M167.926,336.669l3.32,1.93c-0.388-0.226-0.926-0.194-1.52,0.148l-3.321-1.93      C167,336.475,167.538,336.443,167.926,336.669z" />
			</ns0:g>
			<ns0:g>
				<ns0:path style="fill:#D6946D;" d="M157.922,360.918c1.228-0.708,2.334-0.371,2.614,0.905l0.868,3.978l-0.109-0.095l-3.514,6.08      l-1.997-9.165l1.557-1.294C157.536,361.165,157.73,361.029,157.922,360.918z" />
			</ns0:g>
			<ns0:g>
				<ns0:polygon style="fill:#DB9B75;" points="155.784,362.621 152.463,360.691 154.02,359.397 157.341,361.327     " />
			</ns0:g>
			<ns0:g>
				<ns0:polygon style="fill:#B87F5D;" points="157.78,371.786 154.46,369.856 152.463,360.691 155.784,362.621     " />
			</ns0:g>
			<ns0:g>
				<ns0:path style="fill:#DB9B75;" d="M167.592,342.439l-3.321-1.93c-0.004-1.355,0.95-3.007,2.135-3.691l3.321,1.93      C168.542,339.432,167.588,341.083,167.592,342.439z" />
			</ns0:g>
			<ns0:g>
				<ns0:path style="fill:#D6946D;" d="M169.727,338.747c1.179-0.681,2.139-0.134,2.143,1.222l0.047,16.688l-4.278,2.471l-0.047-16.689      C167.588,341.083,168.542,339.432,169.727,338.747z" />
			</ns0:g>
			<ns0:g>
				<ns0:polygon style="fill:#A37153;" points="162.567,362.056 159.247,360.126 159.205,345.304 162.525,347.233     " />
			</ns0:g>
			<ns0:g>
				<ns0:path style="fill:#D6946D;" d="M164.654,343.546c1.18-0.681,2.139-0.134,2.143,1.221l0.042,14.823l-4.272,2.466l-0.042-14.822      C162.522,345.878,163.475,344.227,164.654,343.546z" />
			</ns0:g>
			<ns0:g>
				<ns0:path style="fill:#DB9B75;" d="M162.525,347.233l-3.321-1.93c-0.003-1.355,0.95-3.007,2.129-3.688l3.321,1.93      C163.475,344.227,162.522,345.878,162.525,347.233z" />
			</ns0:g>
		</ns0:g>
	</ns0:g>
	<ns0:path style="fill:#E8D2C5;" d="M165.913,346.893l-2.517,1.453c-0.295,0.17-0.534,0.032-0.534-0.309v-1.302   c0-1.143,0.802-2.533,1.792-3.105l0,0c0.99-0.571,1.792-0.108,1.792,1.035v1.302C166.447,346.309,166.208,346.723,165.913,346.893z   " />
	<ns0:path style="fill:#E8D2C5;" d="M155.222,362.462l-2.1-1.19c-0.246-0.14-0.413-0.05-0.373,0.201l0.154,0.958   c0.135,0.841,0.915,1.903,1.741,2.371l0,0c0.826,0.469,1.386,0.166,1.25-0.675l-0.154-0.959   C155.701,362.918,155.468,362.602,155.222,362.462z" />
	<ns0:path style="fill:#E8D2C5;" d="M171.013,342.018l-2.517,1.452c-0.295,0.171-0.534,0.032-0.534-0.308v-1.302   c0-1.144,0.802-2.533,1.792-3.105l0,0c0.99-0.571,1.792-0.108,1.792,1.035l0.001,1.301   C171.547,341.433,171.308,341.847,171.013,342.018z" />
	<ns0:path style="fill:#E8D2C5;" d="M176.094,340.993l-2.517,1.453c-0.295,0.17-0.534,0.032-0.534-0.309v-1.302   c0-1.143,0.803-2.532,1.792-3.104l0,0c0.99-0.571,1.793-0.107,1.793,1.035v1.302C176.628,340.409,176.389,340.823,176.094,340.993z   " />
	<ns0:path style="fill:#E8D2C5;" d="M181.172,340.618l-2.517,1.453c-0.295,0.17-0.534,0.032-0.534-0.309v-1.302   c0-1.143,0.803-2.533,1.792-3.104l0,0c0.99-0.571,1.792-0.108,1.792,1.035v1.302C181.706,340.033,181.467,340.448,181.172,340.618z   " />
	<ns0:path style="fill:#151E26;" d="M183.514,393.016c0.001,0,0.003,0.001,0.004,0.001l-1.012-0.588   c-0.445-0.258-1.061-0.222-1.74,0.171c-1.356,0.783-2.448,2.674-2.443,4.232c0.002,0.771,0.275,1.316,0.715,1.572l1.011,0.588   c-0.061-0.035-0.11-0.089-0.164-0.136c0.451,0.385,1.133,0.412,1.908-0.035c1.352-0.78,2.443-2.677,2.439-4.229   C184.231,393.815,183.956,393.271,183.514,393.016z M179.623,398.547c0.043,0.069,0.081,0.145,0.132,0.202   C179.705,398.691,179.666,398.616,179.623,398.547z M179.335,397.42c0.001,0.193,0.018,0.373,0.051,0.536   C179.354,397.793,179.336,397.613,179.335,397.42z M179.434,398.105c0.029,0.102,0.054,0.208,0.096,0.296   C179.488,398.314,179.463,398.207,179.434,398.105z M182.438,392.924c-0.055,0.014-0.107,0.017-0.164,0.036   C182.33,392.94,182.382,392.938,182.438,392.924z M182.734,392.858c0.063-0.005,0.118,0.007,0.177,0.009   C182.852,392.865,182.796,392.853,182.734,392.858z M183.313,392.94c-0.055-0.02-0.104-0.049-0.163-0.061   C183.209,392.891,183.259,392.92,183.313,392.94z" />
	<ns0:g>
		<ns0:g style="enable-background:new    ;">
			<ns0:g>
				<ns0:path style="fill:#E67E22;" d="M182.007,391.292l1.012,0.588c-0.445-0.259-1.061-0.222-1.74,0.171l-1.011-0.588      C180.946,391.07,181.562,391.034,182.007,391.292z" />
			</ns0:g>
			<ns0:g>
				<ns0:path style="fill:#F39C12;" d="M179.55,397.855l-1.012-0.588c-0.44-0.256-0.713-0.801-0.715-1.572      c-0.004-1.559,1.087-3.449,2.443-4.232l1.011,0.588c-1.356,0.783-2.448,2.674-2.443,4.232      C178.837,397.055,179.11,397.6,179.55,397.855z" />
			</ns0:g>
			<ns0:g>
				<ns0:path style="fill:#F1C40F;" d="M181.278,392.051c1.352-0.78,2.45-0.154,2.455,1.404c0.004,1.553-1.087,3.449-2.439,4.229      c-1.356,0.782-2.455,0.151-2.459-1.401C178.831,394.725,179.922,392.834,181.278,392.051z" />
			</ns0:g>
		</ns0:g>
	</ns0:g>
</ns0:g>
</svg>