<?xml version='1.0' encoding='utf-8'?>
<svg xmlns:ns0="http://www.w3.org/2000/svg" viewBox="0 0 450 450" xmlns="http://www.w3.org/2000/svg"><ns0:g>
	<ns0:g>
		<ns0:g>
			<ns0:g style="enable-background:new    ;">
				<ns0:g>
					<ns0:polygon style="fill:#95A5A6;" points="362.224,69.854 362.27,86.157 383.336,98.399 383.289,82.096      " />
				</ns0:g>
				<ns0:g>
					<ns0:polygon style="fill:#BDC3C7;" points="383.289,82.096 383.336,98.399 425.276,74.185 425.23,57.881      " />
				</ns0:g>
				<ns0:g>
					<ns0:polygon style="fill:#ECF0F1;" points="362.224,69.854 383.289,82.096 425.23,57.881 404.164,45.639      " />
				</ns0:g>
			</ns0:g>
		</ns0:g>
		<ns0:g>
			<ns0:polygon style="fill:#ECF0F1;" points="425.229,57.895 383.383,82.056 362.224,69.84 404.071,45.679    " />
			<ns0:polygon style="fill:#16A085;" points="383.383,80.421 365.056,69.84 404.071,47.313 422.398,57.896    " />
			<ns0:polygon style="fill:#ECF0F1;" points="383.383,78.787 367.887,69.84 404.071,48.948 419.567,57.896    " />
			<ns0:path style="fill:#16A085;" d="M400.678,59.854c3.839,2.217,3.839,5.81,0,8.027c-3.839,2.216-10.063,2.216-13.901,0     c-3.839-2.217-3.839-5.81,0-8.027C390.615,57.638,396.839,57.638,400.678,59.854z" />
			<ns0:path style="fill:#16A085;" d="M407.82,55.73c1.316,0.76,1.316,1.992,0,2.751c-1.315,0.76-3.449,0.76-4.766,0     c-1.315-0.76-1.315-1.992,0-2.751C404.371,54.971,406.505,54.971,407.82,55.73z" />
			<ns0:path style="fill:#16A085;" d="M379.634,72.004c1.315,0.76,3.449,0.76,4.766,0c1.315-0.76,1.315-1.992,0-2.752     c-1.316-0.76-3.45-0.76-4.766,0C378.317,70.013,378.317,71.245,379.634,72.004z" />
			<ns0:g>
				<ns0:path style="fill:#ECF0F1;" d="M398.642,65.739l1.757,1.014l-1.535,0.886l-1.804-1.041c-1.21,0.51-2.652,0.833-4.014,0.906      l-0.791-1.383c1.57-0.06,3.315-0.504,4.164-0.994c0.652-0.376,0.815-0.752,0.35-1.021c-1.442-0.833-4.886,2.149-7.771,0.483      c-1.244-0.719-1.221-1.726-0.081-2.693l-1.722-0.994l1.535-0.887l1.664,0.961c1.082-0.504,2.362-0.866,3.514-1.007l0.837,1.384      c-1.36,0.208-2.792,0.631-3.455,1.014c-0.535,0.309-0.698,0.631-0.303,0.859c1.407,0.813,4.911-2.136,7.853-0.437      C400.283,63.622,399.991,64.758,398.642,65.739z" />
			</ns0:g>
			<ns0:polygon style="fill:#16A085;" points="389.493,71.287 381.707,75.782 383.233,76.663 391.02,72.168    " />
			<ns0:polygon style="fill:#16A085;" points="397.961,56.448 405.747,51.953 404.221,51.072 396.435,55.567    " />
		</ns0:g>
	</ns0:g>
	<ns0:g>
		<ns0:g>
			<ns0:g style="enable-background:new    ;">
				<ns0:g>
					<ns0:path style="fill:#F39C12;" d="M421.63,92.7l-0.008,2.702c-0.004,1.33-0.877,2.658-2.62,3.671       c-3.519,2.044-9.241,2.044-12.783,0c-1.777-1.026-2.665-2.375-2.661-3.722l0.007-2.702c-0.004,1.348,0.885,2.696,2.662,3.723       c3.541,2.044,9.265,2.044,12.783,0C420.753,95.357,421.626,94.03,421.63,92.7z" />
				</ns0:g>
				<ns0:g>
					<ns0:path style="fill:#F39C12;" d="M421.63,92.7l-0.008,2.702c-0.004,1.33-0.877,2.658-2.62,3.671       c-3.519,2.044-9.241,2.044-12.783,0c-1.777-1.026-2.665-2.375-2.661-3.722l0.007-2.702c-0.004,1.348,0.885,2.696,2.662,3.723       c3.541,2.044,9.265,2.044,12.783,0C420.753,95.357,421.626,94.03,421.63,92.7z" />
				</ns0:g>
				<ns0:g>
					<ns0:path style="fill:#E67E22;" d="M413.361,100.564c0.701-0.034,1.39-0.113,2.064-0.24v-2.701       c-0.674,0.128-1.362,0.206-2.064,0.239V100.564z" />
					<ns0:path style="fill:#E67E22;" d="M409.455,100.263c0.67,0.145,1.361,0.231,2.063,0.281v-2.702       c-0.701-0.05-1.393-0.137-2.063-0.282V100.263z" />
				</ns0:g>
				<ns0:g>
					<ns0:path style="fill:#E67E22;" d="M407.699,97.057c-0.521-0.196-1.016-0.422-1.473-0.687c-1.777-1.026-2.666-2.375-2.662-3.722       l-0.007,2.702c-0.004,1.347,0.884,2.696,2.661,3.722c0.459,0.265,0.957,0.492,1.48,0.688V97.057z" />
				</ns0:g>
				<ns0:g>
					<ns0:path style="fill:#F1C40F;" d="M418.961,88.97c3.541,2.044,3.56,5.36,0.049,7.4c-3.519,2.045-9.242,2.045-12.783,0       c-3.534-2.04-3.553-5.356-0.034-7.4C409.703,86.93,415.427,86.93,418.961,88.97z" />
				</ns0:g>
			</ns0:g>
		</ns0:g>
		<ns0:g>
			<ns0:path style="fill:#F1C40F;" d="M406.21,96.359c3.528,2.037,9.247,2.037,12.774,0c3.527-2.037,3.527-5.338,0-7.375     c-3.527-2.037-9.247-2.037-12.774,0C402.683,91.021,402.683,94.323,406.21,96.359z" />
			<ns0:g>
				<ns0:path style="fill:#D35400;" d="M406.898,89.944c3.148-1.817,8.25-1.817,11.398,0c1.449,0.836,2.223,1.913,2.337,3.008      c0.134-1.283-0.64-2.591-2.337-3.572c-3.148-1.817-8.25-1.817-11.398,0c-1.698,0.98-2.472,2.289-2.338,3.572      C404.676,91.857,405.448,90.78,406.898,89.944z" />
				<ns0:path style="fill:#F38212;" d="M406.898,95.961c3.148,1.817,8.25,1.817,11.398,0c1.449-0.837,2.223-1.913,2.337-3.009      c-0.114-1.095-0.888-2.172-2.337-3.008c-3.148-1.817-8.25-1.817-11.398,0c-1.45,0.836-2.223,1.913-2.338,3.008      C404.676,94.047,405.448,95.124,406.898,95.961z" />
			</ns0:g>
			<ns0:g>
				<ns0:path style="fill:#F1C40F;" d="M415.403,94.88c-0.779,0.411-1.665,0.729-2.655,0.955l-1.696-0.979      c0.597-0.112,1.192-0.263,1.79-0.453c0.598-0.189,1.072-0.386,1.423-0.588c0.289-0.167,0.466-0.31,0.53-0.428      c0.065-0.118,0.016-0.224-0.147-0.318c-0.112-0.065-0.257-0.092-0.432-0.081c-0.176,0.011-0.426,0.053-0.751,0.127      c-0.325,0.073-0.75,0.181-1.274,0.323c-0.592,0.157-1.12,0.255-1.585,0.293c-0.465,0.038-0.881,0.021-1.248-0.052      c-0.368-0.073-0.736-0.215-1.104-0.428c-0.561-0.324-0.82-0.682-0.776-1.073c0.045-0.391,0.39-0.817,1.037-1.277l-0.7-0.404      l1.058-0.61l0.688,0.398c0.715-0.37,1.565-0.667,2.549-0.893l0.848,1.191c-1.031,0.226-1.833,0.504-2.405,0.834      c-0.272,0.157-0.431,0.287-0.475,0.389c-0.045,0.102-0.002,0.19,0.127,0.265c0.112,0.065,0.245,0.096,0.399,0.091      c0.152-0.003,0.373-0.037,0.661-0.099c0.287-0.062,0.666-0.16,1.136-0.293c0.964-0.265,1.761-0.395,2.393-0.388      c0.632,0.007,1.2,0.157,1.708,0.45c0.572,0.33,0.855,0.703,0.851,1.119c-0.006,0.416-0.313,0.849-0.922,1.299l0.985,0.569      l-1.058,0.61L415.403,94.88z" />
			</ns0:g>
		</ns0:g>
	</ns0:g>
	<ns0:g>
		<ns0:g>
			<ns0:g style="enable-background:new    ;">
				<ns0:g>
					<ns0:path style="fill:#F39C12;" d="M406.328,99.282l-0.007,2.702c-0.004,1.33-0.877,2.658-2.621,3.67       c-3.518,2.045-9.241,2.045-12.782,0c-1.777-1.026-2.666-2.375-2.662-3.723l0.008-2.702c-0.004,1.347,0.885,2.696,2.662,3.722       c3.541,2.044,9.265,2.044,12.782,0C405.452,101.94,406.325,100.613,406.328,99.282z" />
				</ns0:g>
				<ns0:g>
					<ns0:path style="fill:#F39C12;" d="M406.328,99.282l-0.007,2.702c-0.004,1.33-0.877,2.658-2.621,3.67       c-3.518,2.045-9.241,2.045-12.782,0c-1.777-1.026-2.666-2.375-2.662-3.723l0.008-2.702c-0.004,1.347,0.885,2.696,2.662,3.722       c3.541,2.044,9.265,2.044,12.782,0C405.452,101.94,406.325,100.613,406.328,99.282z" />
				</ns0:g>
				<ns0:g>
					<ns0:path style="fill:#E67E22;" d="M398.06,107.147c0.7-0.033,1.39-0.112,2.064-0.24v-2.701c-0.674,0.128-1.363,0.206-2.064,0.239       V107.147z" />
					<ns0:path style="fill:#E67E22;" d="M394.153,106.846c0.671,0.145,1.362,0.231,2.064,0.281v-2.703       c-0.701-0.05-1.394-0.137-2.064-0.282V106.846z" />
				</ns0:g>
				<ns0:g>
					<ns0:path style="fill:#E67E22;" d="M392.397,103.639c-0.52-0.196-1.015-0.422-1.472-0.686c-1.777-1.026-2.666-2.375-2.662-3.722       l-0.008,2.702c-0.004,1.348,0.885,2.696,2.662,3.723c0.459,0.265,0.957,0.492,1.479,0.689V103.639z" />
				</ns0:g>
				<ns0:g>
					<ns0:path style="fill:#F1C40F;" d="M403.659,95.553c3.542,2.045,3.561,5.359,0.049,7.4c-3.518,2.044-9.241,2.044-12.782,0       c-3.534-2.041-3.553-5.355-0.035-7.4C394.402,93.513,400.125,93.513,403.659,95.553z" />
				</ns0:g>
			</ns0:g>
		</ns0:g>
		<ns0:g>
			<ns0:path style="fill:#F1C40F;" d="M390.909,102.942c3.527,2.037,9.247,2.037,12.774,0c3.527-2.037,3.527-5.339,0-7.375     c-3.528-2.037-9.247-2.037-12.774,0C387.382,97.604,387.382,100.906,390.909,102.942z" />
			<ns0:g>
				<ns0:path style="fill:#D35400;" d="M391.597,96.526c3.147-1.817,8.25-1.817,11.397,0c1.449,0.837,2.223,1.914,2.337,3.009      c0.135-1.283-0.639-2.591-2.337-3.572c-3.147-1.817-8.25-1.817-11.397,0c-1.697,0.98-2.471,2.289-2.337,3.572      C389.374,98.44,390.147,97.363,391.597,96.526z" />
				<ns0:path style="fill:#F38212;" d="M391.597,102.544c3.147,1.817,8.25,1.817,11.397,0c1.449-0.837,2.223-1.913,2.337-3.009      c-0.114-1.095-0.888-2.172-2.337-3.009c-3.147-1.817-8.25-1.817-11.397,0c-1.449,0.837-2.223,1.914-2.337,3.009      C389.374,100.63,390.147,101.707,391.597,102.544z" />
			</ns0:g>
			<ns0:g>
				<ns0:path style="fill:#F1C40F;" d="M400.102,101.463c-0.779,0.411-1.664,0.729-2.655,0.955l-1.695-0.979      c0.596-0.112,1.192-0.263,1.79-0.453c0.598-0.189,1.071-0.386,1.422-0.588c0.29-0.167,0.467-0.309,0.531-0.427      c0.065-0.118,0.016-0.224-0.147-0.318c-0.113-0.065-0.257-0.092-0.432-0.081c-0.176,0.011-0.426,0.053-0.751,0.126      c-0.325,0.074-0.75,0.182-1.275,0.323c-0.592,0.157-1.12,0.255-1.585,0.294c-0.465,0.038-0.881,0.021-1.249-0.052      c-0.367-0.073-0.735-0.215-1.104-0.428c-0.561-0.324-0.82-0.682-0.775-1.073c0.044-0.391,0.39-0.816,1.036-1.276l-0.699-0.404      l1.057-0.61l0.69,0.398c0.715-0.37,1.564-0.668,2.549-0.894l0.848,1.191c-1.032,0.226-1.834,0.504-2.406,0.834      c-0.272,0.157-0.43,0.287-0.475,0.39c-0.044,0.102-0.001,0.19,0.128,0.265c0.112,0.065,0.245,0.095,0.398,0.091      c0.153-0.003,0.374-0.037,0.661-0.099c0.287-0.062,0.667-0.16,1.137-0.293c0.964-0.265,1.761-0.395,2.393-0.388      c0.631,0.007,1.2,0.157,1.707,0.45c0.572,0.33,0.857,0.703,0.851,1.119c-0.005,0.416-0.312,0.849-0.922,1.299l0.986,0.569      l-1.058,0.61L400.102,101.463z" />
			</ns0:g>
		</ns0:g>
	</ns0:g>
	<ns0:path style="opacity:0.5;fill:#7A3100;" d="M414.47,100.489v-2.786c0,0,1.804-0.615,2.328-3.416   c0.472-2.523-0.665-5.707-4.551-6.811c-0.669,0.015-1.329,0.079-1.982,0.18c-0.919,0.209-2.048,0.548-3.264,0.955   c-0.267,0.123-0.545,0.231-0.792,0.374c-1.758,1.015-2.639,2.344-2.645,3.675c0-0.004-0.001-0.007-0.001-0.011v0.021   c0,0.001,0,0.003,0,0.004l-0.007,2.676c-0.001,0.055,0.01,0.109,0.013,0.164c-2.015-1.127-4.708-1.584-7.302-1.415   c-0.235,1.721-0.039,3.645,2.1,4.995c2.759,1.742,5.898,1.784,7.898,1.451c0,0.306,0,1.186,0,1.987   c0.033-0.182,0.054-0.364,0.055-0.547l0.007-2.702c0,0.049-0.017,0.098-0.02,0.147c0.007-0.104,0.014-0.208,0.009-0.311   C408.556,100.376,411.629,100.83,414.47,100.489z" />
	<ns0:g>
		<ns0:g>
			<ns0:g style="enable-background:new    ;">
				<ns0:g>
					<ns0:path style="fill:#F39C12;" d="M415.452,91.756l-0.008,2.702c-0.004,1.33-0.877,2.657-2.62,3.67       c-3.518,2.044-9.241,2.044-12.782,0c-1.777-1.026-2.666-2.375-2.662-3.722l0.008-2.702c-0.004,1.347,0.884,2.696,2.662,3.722       c3.541,2.044,9.264,2.044,12.782,0C414.575,94.414,415.448,93.086,415.452,91.756z" />
				</ns0:g>
				<ns0:g>
					<ns0:path style="fill:#F39C12;" d="M415.452,91.756l-0.008,2.702c-0.004,1.33-0.877,2.657-2.62,3.67       c-3.518,2.044-9.241,2.044-12.782,0c-1.777-1.026-2.666-2.375-2.662-3.722l0.008-2.702c-0.004,1.347,0.884,2.696,2.662,3.722       c3.541,2.044,9.264,2.044,12.782,0C414.575,94.414,415.448,93.086,415.452,91.756z" />
				</ns0:g>
				<ns0:g>
					<ns0:path style="fill:#E67E22;" d="M407.185,99.621c0.7-0.033,1.39-0.112,2.063-0.24V96.68c-0.674,0.127-1.363,0.206-2.063,0.24       V99.621z" />
					<ns0:path style="fill:#E67E22;" d="M403.277,99.32c0.67,0.145,1.362,0.231,2.064,0.281v-2.702c-0.701-0.05-1.393-0.137-2.064-0.282       V99.32z" />
				</ns0:g>
				<ns0:g>
					<ns0:path style="fill:#E67E22;" d="M401.521,96.113c-0.519-0.196-1.016-0.422-1.472-0.686c-1.778-1.026-2.666-2.375-2.662-3.723       l-0.008,2.702c-0.004,1.347,0.885,2.696,2.662,3.722c0.459,0.265,0.957,0.492,1.479,0.688V96.113z" />
				</ns0:g>
				<ns0:g>
					<ns0:path style="fill:#F1C40F;" d="M412.783,88.026c3.541,2.044,3.56,5.36,0.049,7.4c-3.519,2.044-9.241,2.044-12.782,0       c-3.534-2.041-3.554-5.356-0.035-7.4C403.525,85.986,409.249,85.986,412.783,88.026z" />
				</ns0:g>
			</ns0:g>
		</ns0:g>
		<ns0:g>
			<ns0:path style="fill:#F1C40F;" d="M400.033,95.416c3.527,2.037,9.246,2.037,12.773,0c3.528-2.037,3.527-5.339,0-7.376     c-3.527-2.037-9.246-2.037-12.773,0C396.505,90.077,396.506,93.379,400.033,95.416z" />
			<ns0:g>
				<ns0:path style="fill:#D35400;" d="M400.721,89c3.147-1.817,8.25-1.817,11.397,0c1.449,0.837,2.223,1.914,2.337,3.009      c0.134-1.283-0.64-2.592-2.337-3.572c-3.147-1.817-8.25-1.817-11.397,0c-1.697,0.98-2.471,2.289-2.337,3.572      C398.498,90.914,399.271,89.837,400.721,89z" />
				<ns0:path style="fill:#F38212;" d="M400.721,95.018c3.147,1.817,8.25,1.817,11.397,0c1.449-0.837,2.223-1.914,2.337-3.009      c-0.114-1.095-0.888-2.172-2.337-3.009c-3.147-1.817-8.25-1.817-11.397,0c-1.449,0.837-2.223,1.914-2.337,3.009      C398.498,93.104,399.271,94.181,400.721,95.018z" />
			</ns0:g>
			<ns0:g>
				<ns0:path style="fill:#F1C40F;" d="M409.226,93.937c-0.779,0.411-1.664,0.729-2.655,0.955l-1.695-0.979      c0.596-0.112,1.192-0.263,1.79-0.453c0.597-0.19,1.071-0.386,1.422-0.588c0.289-0.167,0.467-0.31,0.531-0.428      c0.064-0.118,0.016-0.224-0.148-0.318c-0.112-0.065-0.256-0.092-0.432-0.081c-0.175,0.011-0.425,0.053-0.751,0.127      c-0.325,0.074-0.749,0.182-1.273,0.323c-0.593,0.157-1.121,0.255-1.586,0.293c-0.465,0.038-0.881,0.021-1.248-0.052      c-0.367-0.072-0.735-0.215-1.103-0.427c-0.562-0.324-0.82-0.682-0.776-1.073c0.045-0.391,0.391-0.816,1.037-1.277l-0.699-0.404      l1.057-0.61l0.69,0.398c0.715-0.369,1.564-0.667,2.548-0.893l0.848,1.191c-1.031,0.226-1.833,0.504-2.405,0.835      c-0.272,0.157-0.43,0.287-0.475,0.39c-0.044,0.102-0.002,0.191,0.128,0.265c0.112,0.065,0.245,0.096,0.398,0.092      c0.153-0.004,0.374-0.037,0.661-0.099c0.287-0.062,0.666-0.16,1.136-0.293c0.964-0.265,1.762-0.395,2.393-0.387      c0.632,0.007,1.201,0.157,1.708,0.449c0.572,0.331,0.855,0.704,0.851,1.119c-0.005,0.415-0.313,0.849-0.922,1.299l0.985,0.569      l-1.057,0.61L409.226,93.937z" />
			</ns0:g>
		</ns0:g>
	</ns0:g>
</ns0:g>
</svg>