<?xml version="1.0" encoding="utf-8"?>
<!-- Generator: Adobe Illustrator 27.5.0, SVG Export Plug-In . SVG Version: 6.00 Build 0)  -->
<svg version="1.1" id="Capa_1" xmlns="http://www.w3.org/2000/svg" xmlns:xlink="http://www.w3.org/1999/xlink" x="0px" y="0px"
	 viewBox="0 0 2122 2122" style="enable-background:new 0 0 2122 2122;" xml:space="preserve">
<path style="fill:#050605;" d="M1616.747,1359.56c13.781,11.178,27.623,22.278,41.66,33.108
	c42.065-17.884,79.759-33.555,113.147-46.764l-116.785-68.832C1643.569,1302.04,1630.805,1329.501,1616.747,1359.56z
	 M1662.171,1363.974c-5.023-3.951-9.921-7.848-14.555-11.562c6.645-14.256,12.726-27.375,18.4-39.757l49.335,29.078
	C1699.198,1348.391,1681.618,1355.744,1662.171,1363.974z"/>
<path style="fill:#050605;" d="M1893.276,1509.63c12.407,6.149,16.444,33.166,20.139,44.825c2.073,6.545,4.165,13.189,4.398,20.05
	c0.192,5.647-0.884,11.256-2.103,16.774c-5.279,23.89-13.538,46.987-22.784,69.604c13.583,11.022,25.37,22.514,34.253,34.243
	c3.478-78.643,7.069-220.393-2.113-376.809c-25.753,3.647-65.612,16.396-114.46,34.842c11.088,34.787,18.26,100.29,23.128,172.57
	c12.948-4.537,25.829-9.274,38.64-14.156C1879.113,1509.005,1886.813,1506.427,1893.276,1509.63z M1856.188,1491.027
	c-4.278-53.066-9.489-93.509-15.766-122.301c24.322-8.795,44.805-15.436,61.313-19.88c2.402,48.477,3.631,95.294,4.058,139.185
	c-0.471-0.258-0.952-0.509-1.44-0.751c-5.47-2.711-11.476-4.085-17.852-4.085c-8.535,0-16.104,2.436-23.012,5.069
	C1861.027,1489.202,1858.595,1490.123,1856.188,1491.027z"/>
<path style="fill:#050605;" d="M1776.852,1324.865c-4.894-10.683-10.076-21.236-15.478-31.671
	c-6.91-13.349-14.111-26.546-21.479-39.647c-7.872-13.999-15.94-27.888-24.136-41.7c-6.88-11.595-13.902-23.104-20.947-34.599
	c-7.109,22.536-17.876,49.415-31.56,80.689L1776.852,1324.865z M1714.386,1259.11l-19.538-11.511
	c1.887-4.479,3.68-8.802,5.385-12.981C1705.212,1243.098,1709.897,1251.208,1714.386,1259.11z"/>
<path style="fill:#050605;" d="M1884.912,1681.046c-6.415,16.385-13.323,32.654-25.731,45.419
	c-4.968,5.112-10.361,9.197-16.138,12.551c0.142,4.702,0.281,9.335,0.416,13.827c0.607,20.272,0.583,34.796,0.517,45.371
	c9.377-2.878,18.313-6.029,26.671-9.523c35.415-14.807,53.248-31.789,53.004-50.483
	C1923.414,1720.063,1907.982,1700.355,1884.912,1681.046z M1868.659,1762.304c-0.072-3.243-0.16-6.642-0.266-10.207l-0.009-0.306
	c3.038-2.458,5.922-5.096,8.686-7.939c5.996-6.169,10.92-12.84,15.122-19.766c5.96,8.376,6.499,13.135,6.516,14.45
	C1898.745,1741.407,1893.183,1750.825,1868.659,1762.304z"/>
<path style="fill:#050605;" d="M995.668,1389.496c18.657-36.089,37.777-73.183,34.273-98.62
	c-58.127,28.667-116.139,58.217-171.495,87.007c38.169,22.585,77.606,40.437,117.149,51.977
	C981.78,1416.388,988.784,1402.807,995.668,1389.496z M911.865,1378.339c27.976-14.385,55.371-28.302,81.997-41.656
	c-6.04,13.67-13.567,28.23-20.353,41.357c-3.495,6.759-7.239,13.998-10.968,21.452
	C945.806,1393.66,928.885,1386.597,911.865,1378.339z"/>
<path style="fill:#050605;" d="M1231.899,1573.436l-17.57-6.955c4.075,3.096,8.199,6.124,12.419,9.005
	C1228.464,1574.805,1230.182,1574.119,1231.899,1573.436z"/>
<path style="fill:#050605;" d="M899.582,1684.98c68.756-16.246,146.398-41.422,227.655-71.343
	c-11.286-14.557-21.438-30.055-32.402-44.887c-21.449-29.018-46.365-55.422-73.853-78.799l-40.488-16.026
	c-10.464,28.746-23.444,60.447-36.059,91.235C928.283,1604.588,907.909,1654.333,899.582,1684.98z M994.915,1506.461l12.998,5.145
	c25.18,21.797,47.66,45.992,66.863,71.972c4.304,5.822,8.44,11.698,12.806,17.906c-55.812,19.921-105.362,35.792-149.842,47.986
	c9.019-24.18,20.113-51.258,29.779-74.853C976.786,1552,986.284,1528.818,994.915,1506.461z"/>
<path style="fill:#050605;" d="M1445.56,1237.673l212.355-119.366c-3.736-5.851-7.475-11.699-11.238-17.532
	c-15.83-1.695-36.051-1.527-59.62-0.479c-32.088,1.425-60.947-3.638-86.623-12.502c-17.164,6.21-34.296,12.512-51.365,18.979
	c-20.25,7.673-40.435,15.515-60.561,23.508c-21.325,8.469-42.582,17.107-63.776,25.898c-0.65,0.27-1.295,0.552-1.945,0.822
	c28.46,25.79,59.187,48.687,91.804,65.151C1425.033,1227.092,1435.358,1232.264,1445.56,1237.673z M1397.716,1153.464
	c20.296-8.061,40.548-15.923,60.192-23.365c13.188-4.997,27.311-10.233,42.968-15.93c24.477,7.509,49.824,11.31,75.479,11.31
	c3.902,0,7.875-0.088,11.809-0.263c2.435-0.108,4.79-0.205,7.068-0.29l-150.147,84.398c-6.448-3.274-12.978-6.478-19.52-9.577
	c-17.948-9.083-36.399-20.914-55.138-35.337C1379.598,1160.696,1388.711,1157.041,1397.716,1153.464z"/>
<path style="fill:#050605;" d="M1822.652,1753.467c-0.058-1.923-0.119-3.944-0.178-5.922c-1.027,0.289-2.039,0.599-3.086,0.863
	c-16.355,4.129-32.087,11.218-48.352,16.195c-34.697,10.615-70.548,17.287-106.91,17.459c-36.181,0.171-72.729-1.007-107.776-9.995
	c-8.206-2.104-16.677-4.852-22.57-10.938c-12.932-13.355-8.371-39.61-2.76-57.903c-5.538-0.895-11.047-1.96-16.518-3.201
	c1.632,3.932,2.981,7.975,3.883,12.177c3.831,17.842-0.503,37.271-11.553,51.792c-5.97,7.846-15.786,14.706-25.127,11.552
	c-4.336-1.464-7.707-4.841-10.927-8.093c-24.807-25.04-50.919-49.134-80.766-67.883c-18.934-11.894-39.518-21.558-61.021-27.51
	c-4.931,19.369-21.689,36.37-41.814,39.999c-28.346,5.111-57.943-13.642-69.212-40.148c-0.21-0.495-0.369-1.019-0.567-1.523
	c-2.785,0.112-5.606-0.048-8.319-0.413c-25.991-3.488-48.878-19.402-66.817-38.532c-0.293-0.312-0.565-0.642-0.856-0.956
	c-87.686,32.443-171.653,59.645-245.603,76.503c0.066,1.625,0.286,2.996,0.718,4.014c5.428,9.572,61.946,16.25,99.346,20.669
	c44.553,5.262,90.621,10.703,120.719,22.281c54.259,20.866,486.727,103.977,706.741,49.934
	C1823.384,1793.679,1823.398,1778.376,1822.652,1753.467z M1125.541,1730.672c-33.02-12.702-80.668-18.329-126.748-23.772
	c-1.219-0.144-2.558-0.302-3.999-0.474c42.548-12.745,89.089-28.356,140.311-47.047c20.657,18.733,43.303,30.582,66.351,34.651
	c16.459,26.329,46.114,43.817,76.239,43.817c4.673,0,9.353-0.417,13.908-1.238c20.518-3.7,38.807-16.333,50.511-33.768
	c11.578,4.681,23.165,10.652,34.628,17.852c29.389,18.461,55.069,42.872,76.314,64.317c0.602,0.608,1.248,1.259,1.94,1.94
	C1295.726,1771.117,1152.266,1740.949,1125.541,1730.672z M1513.562,1792.024c3.106-2.239,6.068-4.859,8.836-7.832
	c6.241,4.605,13.059,7.569,19.683,9.723C1532.576,1793.353,1523.064,1792.721,1513.562,1792.024z M1784.865,1786.358
	c4.59-1.539,9.068-3.161,13.45-4.761c0.009,0.773,0.018,1.531,0.026,2.277C1793.951,1784.746,1789.461,1785.574,1784.865,1786.358z"
	/>
<path style="fill:#050605;" d="M1014.158,1399.058c-6.203,11.999-12.498,24.218-18.134,36.247
	c11.588,2.725,23.168,4.883,34.71,6.424c15.767,2.105,31.846,3.613,46.634,9.473c16.173,6.41,29.903,17.68,42.826,29.327
	c16.076,14.488,31.522,29.945,47.248,44.998l92.544,36.642c51.038-20.628,102.359-42.176,152.765-63.699
	c-1.802-0.163-3.643-0.287-5.422-0.474c-148.355-15.63-213.187-116.143-232.682-154.374c-18.752,3.651-33.298,0.641-44.919-9.676
	c-13.76-12.215-32.402-36.701-52.136-66.351c-9.398,4.547-18.811,9.128-28.229,13.739
	C1058.029,1314.145,1036.662,1355.533,1014.158,1399.058z M1113.168,1352.6c13.046,11.582,28.912,17.454,47.159,17.454l0.399-0.001
	c23.782,40.363,74.752,105.112,168.609,136.603c-24.515,10.249-47.558,19.751-69.453,28.642l-78.698-31.16
	c-3.496-3.367-6.982-6.748-10.468-10.129c-10.927-10.6-22.225-21.56-33.821-32.01c-14.439-13.013-30.53-26.136-50.334-33.986
	c-15.865-6.288-32.289-8.399-46.779-10.261c-1.918-0.246-3.833-0.492-5.744-0.747l-1-0.135c1.064-2.065,2.156-4.18,3.28-6.355
	c18.345-35.481,35.939-69.513,39.396-101.86C1090.299,1328.708,1102.847,1343.438,1113.168,1352.6z"/>
<path style="fill:#050605;" d="M925.174,1557.269c11.372-27.759,23.025-56.244,32.805-82.475
	c-82.973,17.692-162.941,9.347-237.069-24.187c-110.404,59.288-195.654,107.168-226.071,124.366
	c61.355,63.137,137.135,114.283,227.049,127.276c41.114,5.943,94.225,0.791,155.259-12.218
	C882.695,1661.947,900.091,1618.49,925.174,1557.269z M725.456,1677.56c-65.629-9.484-129.191-42.146-189.309-97.208
	c40.008-22.416,105.837-58.943,185.924-102.048c48.602,20.234,99.685,30.484,152.027,30.484c14.804,0,29.793-0.828,44.864-2.472
	c-5.669,14.149-11.454,28.272-16.872,41.495c-21.602,52.727-37.325,91.909-45.436,120.941
	c-37.534,7.306-70.311,11.003-97.614,11.003C746.839,1679.757,735.54,1679.017,725.456,1677.56z"/>
<path style="fill:#050605;" d="M1692.844,1562.189c0.796-0.179,1.589-0.369,2.387-0.542
	c-43.348-35.375-86.605-71.204-130.549-106.043c-6.013,2.604-12.037,5.213-18.077,7.83c-4.005,1.735-8.065,3.493-12.095,5.239
	C1545.65,1483.338,1583.74,1522.593,1692.844,1562.189z"/>
<path style="fill:#050605;" d="M1782.377,1483.882c10.64,9.625,20.542,20.056,29.68,31.117
	c-4.669-65.043-11.287-123.211-20.941-154.359c-34.592,13.45-72.975,29.293-113.588,46.49c4.929,3.639,9.884,7.241,14.886,10.778
	C1722.801,1439.394,1754.778,1458.915,1782.377,1483.882z M1773.508,1394.42c2.811,15.063,5.424,33.728,7.83,55.928
	c-16.462-13.092-33.669-24.8-50.457-36.223c-0.702-0.478-1.404-0.956-2.11-1.436
	C1744.821,1406.031,1759.688,1399.96,1773.508,1394.42z"/>
<path style="fill:#050605;" d="M1479.75,1257.098l163.276-4.899c17.683-40.198,30.985-73.818,37.288-98.365
	c-3.731-5.982-7.451-11.972-11.215-17.933l-202.098,113.6C1471.28,1251.977,1475.527,1254.514,1479.75,1257.098z M1626.463,1227.739
	l-73.775,2.214l94.135-52.914C1641.714,1191.162,1634.992,1207.893,1626.463,1227.739z"/>
<path style="fill:#050605;" d="M1586.136,1079.498c17.498-0.781,32.87-1.068,46.357-0.571c-3.614-5.533-7.208-11.078-10.845-16.595
	c-2.839-4.307-5.703-8.596-8.557-12.893c-0.949,0.3-1.902,0.588-2.852,0.89c-16.783,5.327-33.508,10.835-50.182,16.495
	c-8.31,2.82-16.566,5.8-24.851,8.692C1551.123,1078.749,1568.095,1080.289,1586.136,1079.498z"/>
<path style="fill:#050605;" d="M1964.028,1231.628c-2.303-21.34-5.081-42.379-8.26-62.533c-2.946-18.688-6.31-37.074-9.996-54.649
	c-3.385-16.14-7.122-31.97-11.105-47.05c-3.614-13.681-7.513-27.049-11.587-39.732c-3.181-9.904-6.527-19.57-9.967-28.795
	c-0.317-4.857-1.382-9.755-3.188-14.63c-1.508-4.072-3.572-8.23-6.135-12.363c-0.959-1.546-1.982-3.009-3.063-4.382
	c-1.57-3.196-4.056-7.088-8.033-10.654c-7.709-6.911-17.78-10.718-28.356-10.718c-6.427,0-12.814,1.467-18.471,4.242
	c-1.053,0.516-2.062,1.074-3.026,1.671c-5.613,0.171-11.526,0.524-17.891,1.068c-10.497,0.897-21.558,2.26-33.814,4.167
	c-12.022,1.871-24.508,4.159-38.171,6.995c-13.512,2.804-27.385,5.98-42.412,9.709c-14.931,3.705-30.128,7.74-46.459,12.334
	c-14.062,3.956-28.281,8.137-43.277,12.725c-1.505-0.164-3.044-0.245-4.61-0.245c-7.769,0-16.003,2.007-22.591,5.507
	c-3.058,1.624-5.755,3.585-8.063,5.856c-9.266,2.981-17.687,5.738-25.557,8.366c-18.465,6.166-37.679,12.798-57.108,19.712
	l-1.344,0.48c-23.875-10.517-44.096-24.999-60.227-39.271c8.481-4.205,17.042-8.501,25.637-12.866
	c88.503-44.935,170.586-91.888,231.128-132.207l0.276-0.183l0.216-0.146c100.219-66.819,117.597-99.019,121.441-119.594
	c1.111-5.709,9.135-52.825-20.321-89.176c-21.225-26.194-55.079-39.477-100.619-39.478c-12.024,0-25.077,0.946-38.797,2.813
	c-6.575,0.894-13.193,1.777-19.876,2.668c-40.577,5.412-82.394,10.988-132.009,21.325c-1.801-2.876-3.63-5.775-5.483-8.691
	l-1.654-2.584l-0.937-1.46c-11.576-18.086-23.467-35.743-35.342-52.479l-0.69-0.974l-1.242-1.75
	c-6.123-8.58-12.32-17.031-18.415-25.111l-0.625-0.822l-0.396-0.52c-12.827-16.953-26.05-33.408-39.295-48.897l-0.346-0.406
	l-0.571-0.669c-65.185-76.017-135.958-134.228-210.34-173.002c-78.694-41.022-164.232-61.827-254.238-61.834h-0.05
	c-133.265,0-282.418,45.89-443.315,136.395C384.762,452.058,298.892,532.42,240.232,628.645
	c-49.661,81.464-80.317,175.033-91.116,278.106c-19.611,187.189,30.992,365.351,62.901,454.89
	c3.845,10.789,7.794,21.37,11.773,31.549c0.872,26.002,8.381,49.85,22.352,70.949c1.786,2.677,43.751,63.792,146.327,63.792
	c0.514,0,1.03-0.001,1.547-0.005c94.274,128.555,202.324,202.414,321.329,219.61c13.109,1.897,27.541,2.859,42.892,2.859
	c29.544,0,63.967-3.588,102.55-10.678c19.2,24.347,62.744,29.488,129.711,37.399c41.767,4.935,84.927,10.034,109.658,19.547
	c47.622,18.313,305.491,71.256,534.87,71.256c69.938-0.003,130.389-5.148,180.018-15.304c5.528,3.547,12.095,5.563,19.098,5.563
	c1.867,0,3.743-0.149,5.575-0.442c9.276-1.461,17.475-6.478,23.03-14.118c0.984-1.353,1.864-2.758,2.638-4.209
	c8.131-2.682,15.799-5.526,22.914-8.5c26.14-10.927,45.587-23.569,59.118-38.472c4.383-1.78,8.374-4.436,11.779-7.874
	c6.443-6.507,10.05-15.065,10.217-24.187c0.028-0.474,0.079-1.237,0.146-2.279c3.543-54.696,13.999-249.881-0.219-465.065
	C1967.962,1272.186,1966.175,1251.525,1964.028,1231.628z M1944.473,1759.633c0.044,5.746-4.581,10.443-10.409,10.487
	c-0.172,0-0.333-0.042-0.503-0.05c-10.608,14.304-28.901,26.967-54.883,37.828c-10.685,4.467-22.223,8.414-34.415,11.934
	c0.051,0.481,0.107,0.947,0.174,1.371c0.898,5.679-2.978,11.009-8.657,11.903c-0.549,0.088-1.098,0.129-1.636,0.129
	c-4.809,0-9.028-3.357-10.101-8.131c-54.206,12.764-119.732,17.869-188.971,17.872c-220.781,0.006-478.995-51.533-525.958-69.593
	c-27.659-10.64-72.412-15.925-115.688-21.038c-68.553-8.098-107.746-13.635-116.06-33.199c-0.941-2.215-1.49-4.842-1.805-7.731
	c-43.422,8.982-82.993,14.037-117.323,14.037c-14.025,0-27.144-0.84-39.325-2.602c-137.182-19.822-240.844-119.512-312.43-220.272
	c-100.818,5.816-139.541-52.21-139.541-52.21c-12.857-19.416-18.258-40.464-18.292-62.126c-3.947-9.966-8.396-21.681-13.122-34.94
	c-0.003-0.007-0.005-0.015-0.008-0.023c-66.689-187.126-188.285-682.74,272.167-941.744
	c376.597-211.836,647.411-158.172,856.873,70.461l0,0c0,0,0.002,0.002,0.002,0.003c6.701,7.314,13.336,14.816,19.912,22.485
	c0.296,0.345,0.592,0.695,0.888,1.041c13.022,15.23,25.805,31.145,38.357,47.734c0.334,0.44,0.669,0.875,1.003,1.317
	c6.06,8.034,12.064,16.228,18.018,24.57c0.636,0.891,1.269,1.792,1.904,2.686c11.753,16.564,23.303,33.725,34.659,51.466
	c0.853,1.333,1.71,2.656,2.561,3.995c4.891,7.699,9.751,15.49,14.571,23.402c64.916-14.484,117.286-20.581,167.209-27.374
	c156.833-21.339,131.868,96.46,131.868,96.46c-4.501,24.432-48.809,62.19-110.696,103.452c-0.112,0.075-0.22,0.149-0.332,0.223
	c-0.075,0.05-0.153,0.101-0.229,0.151c-65.983,43.943-151.803,91.815-230.686,131.789c-18.714,9.484-37.039,18.527-54.613,26.964
	c22.372,25.102,56.653,55.574,101.996,73.093c3.434-1.235,6.86-2.495,10.299-3.719c18.819-6.697,37.699-13.226,56.646-19.553
	c11.176-3.732,22.386-7.364,33.612-10.945c0.01-0.79,0.22-1.604,0.823-2.46c0.748-1.063,1.84-1.839,2.988-2.449
	c3.955-2.101,10.503-3.334,14.896-2.098c0.508,0.143,0.953,0.386,1.374,0.669c16.359-5.058,32.776-9.936,49.259-14.573
	c15.177-4.27,30.411-8.339,45.712-12.136c13.765-3.416,27.586-6.614,41.473-9.496c12.257-2.544,24.567-4.845,36.937-6.771
	c10.655-1.658,21.358-3.043,32.103-3.961c8.966-0.766,17.972-1.219,26.973-1.068c0.036,0.001,0.071,0.004,0.107,0.005
	c-0.161-0.845-0.136-1.636,0.29-2.269c0.574-0.852,1.485-1.413,2.407-1.866c6.153-3.017,14.089-1.92,19.192,2.655
	c1.833,1.643,2.573,3.503,3.221,5.474c1.301,1.197,2.389,2.624,3.327,4.134c1.539,2.482,2.922,5.129,3.941,7.878
	c1.27,3.427,1.948,7.014,1.677,10.636c0.04,0.103,0.083,0.205,0.122,0.309c3.954,10.378,7.603,20.872,10.999,31.445
	c4.087,12.721,7.807,25.558,11.219,38.475c4.007,15.167,7.589,30.445,10.809,45.798c3.716,17.716,6.949,35.533,9.768,53.414
	c3.213,20.369,5.887,40.822,8.1,61.323c2.167,20.085,3.89,40.219,5.221,60.376
	C1960.733,1541.127,1944.456,1757.437,1944.473,1759.633z"/>
<path style="fill:#050605;" d="M966.506,1451.46c0.153-0.406,0.296-0.808,0.451-1.214c-4.046-2.55-8.054-5.16-12.176-7.585
	c-36.924-21.719-76.515-38.24-116.259-54.388c-32.84,17.165-64.601,33.976-94.743,50.083
	C813.338,1466.461,887.794,1470.89,966.506,1451.46z M839.828,1415.744c17.875,7.32,34.963,14.512,51.449,22.111
	c-6.352,0.359-12.656,0.54-18.907,0.54c-21.483,0-42.706-2.132-63.504-6.365C819.259,1426.543,829.588,1421.11,839.828,1415.744z"/>
<path style="fill:#050605;" d="M1633.661,1273.221l-123.443,3.762c31.053,21.441,60.504,45.171,89.873,69.047
	C1612.126,1320.273,1623.454,1295.866,1633.661,1273.221z M1582.361,1299.741l11.917-0.363c-1.113,2.407-2.224,4.808-3.332,7.198
	C1588.072,1304.275,1585.213,1301.998,1582.361,1299.741z"/>
<path style="fill:#050605;" d="M1702.166,1149.223c0.029,0.046,0.058,0.091,0.086,0.137c8.733,14.067,17.366,28.195,25.87,42.401
	c8.489,14.183,16.849,28.443,25.021,42.811c7.767,13.656,15.369,27.409,22.693,41.309c6.579,12.487,12.947,25.092,18.884,37.897
	c3.028,6.531,5.882,13.146,8.607,19.814c52.673-19.921,92.687-32.307,120.456-35.897c-0.036-0.548-0.069-1.092-0.105-1.64
	c-1.506-22.786-3.529-45.54-6.151-68.226c-2.318-20.056-5.102-40.06-8.427-59.975c-2.906-17.41-6.225-34.752-10.024-51.989
	c-3.271-14.845-6.897-29.613-10.94-44.268c-3.411-12.363-7.117-24.645-11.177-36.811c-1.47-4.404-3.004-8.786-4.57-13.157
	l-168.693,94.824C1705.294,1125.301,1704.71,1136.208,1702.166,1149.223z M1729.476,1130.579l128.78-72.388
	c2.007,6.544,3.957,13.243,5.833,20.042c3.794,13.753,7.369,28.222,10.626,43.001c3.589,16.286,6.879,33.353,9.78,50.729
	c3.156,18.904,5.933,38.664,8.252,58.731c1.748,15.126,3.268,30.7,4.54,46.511c-21.375,4.84-47.749,12.974-80.524,24.816
	c-5.391-11.562-11.568-23.933-18.857-37.767c-6.921-13.136-14.471-26.879-23.079-42.014c-7.842-13.787-16.118-27.948-25.301-43.289
	c-6.803-11.367-13.785-22.848-21.217-34.891C1728.952,1139.335,1729.341,1134.847,1729.476,1130.579z"/>
<path style="fill:#050605;" d="M1379.093,1001.785c-9.922,4.655-19.554,9.094-28.797,13.262
	c-37.108,16.736-74.818,33.892-112.57,51.182c20.747,25.135,43.673,51.065,68.508,75.217c5.997-2.503,11.959-5.092,17.967-7.571
	c21.568-8.901,43.202-17.643,64.905-26.21c20.751-8.192,41.566-16.224,62.449-24.076c6.845-2.573,13.707-5.099,20.566-7.633
	C1430.623,1055.438,1399.53,1025.82,1379.093,1001.785z M1379.947,1084.462c-21.365,8.433-43.321,17.3-65.26,26.354
	c-0.908,0.375-1.817,0.752-2.724,1.131c-11.036-11.247-22.281-23.429-33.901-36.729c28.496-13.003,56.137-25.546,82.491-37.432
	c4.003-1.805,8.119-3.679,12.326-5.612c11.576,12.197,25.947,25.588,42.99,38.294
	C1403.985,1075.035,1391.974,1079.714,1379.947,1084.462z"/>
<path style="fill:#050605;" d="M1241.518,1315.098c-17.66,10.058-33.122,17.65-46.761,22.702
	c21.104,41.106,91.927,145.895,263.3,141.236c27.205-11.714,54.032-23.335,80.273-34.703c2.624-1.137,5.181-2.243,7.78-3.369
	c-75.223-58.794-152.907-113.844-237.042-157.725C1282.835,1295.154,1258.718,1305.302,1241.518,1315.098z M1452.66,1454.199
	c-1.88,0.028-3.748,0.042-5.596,0.042c-123.676,0-187.294-62.038-216.497-104.974c7.291-3.634,15.033-7.786,23.297-12.494
	c12.174-6.934,28.602-14.277,47.623-22.779c2.212-0.988,4.449-1.989,6.708-3.001c59.177,31.714,118.979,70.859,189.13,123.912
	C1482.581,1441.287,1467.678,1447.728,1452.66,1454.199z"/>
<path style="fill:#050605;" d="M1634.357,1043.72c6.55,9.877,13.06,19.781,19.532,29.709c1.734,2.659,3.434,5.34,5.162,8.002
	c15.767,2.755,27.419,7.863,35.367,16.357l170.496-95.837c-0.532-1.323-1.073-2.642-1.615-3.961
	c-4.089-0.37-8.194-0.587-12.297-0.59c-7.244-0.005-14.486,0.409-21.701,1.043c-8.743,0.768-17.456,1.871-26.135,3.172
	c-10.19,1.528-20.338,3.336-30.448,5.327c-11.592,2.283-23.136,4.81-34.638,7.509c-12.952,3.038-25.852,6.296-38.707,9.716
	c-14.27,3.796-28.485,7.795-42.654,11.95c-7.634,2.239-15.254,4.526-22.862,6.851
	C1634.023,1043.219,1634.19,1043.469,1634.357,1043.72z M1705.786,1048.274c13.358-3.554,25.786-6.673,37.991-9.537
	c2.753-0.646,5.457-1.269,8.118-1.873l-55.47,31.18c-6.431-3.662-13.736-6.573-21.983-8.765c-0.427-0.654-0.853-1.307-1.28-1.962
	C1684.353,1054.098,1695.29,1051.067,1705.786,1048.274z"/>
<path style="fill:#050605;" d="M901.888,1222.553c13.96,3.281,28.404,5.521,43.351,6.359c48.495,2.719,79.642,13.795,94.96,33.733
	c8.656-4.237,17.307-8.453,25.947-12.637c-16.595-26.016-33.434-54.636-48.384-81.893
	C977.523,1186.937,938.635,1205.217,901.888,1222.553z M988.922,1209.172c6.155-2.887,12.285-5.762,18.385-8.619
	c3.158,5.555,6.346,11.083,9.557,16.57C1008.462,1213.904,999.154,1211.256,988.922,1209.172z"/>
<path style="fill:#050605;" d="M1289.855,1608.935c6.642-4.021,14.717-5.359,22.521-6.147c22.828-2.3,45.848-1.107,68.76,0.089
	c68.75,3.589,138.611,7.471,204.514,26.16c23.468-21.54,44.846-44.151,74.94-56.878c-101.658-40.789-135.821-80.366-145.616-95.031
	c-15.88,6.872-31.918,13.804-48.112,20.777c-1.147,0.813-2.472,1.383-3.903,1.678c-69.928,30.094-142.322,60.757-214,89.41
	c2.18,1.173,4.35,2.362,6.578,3.463C1266.572,1597.916,1278.647,1602.996,1289.855,1608.935z M1471.146,1523.217
	c2.548-0.769,4.979-1.815,7.274-3.129c9.744-4.197,19.432-8.379,29.062-12.541c16.852,18.184,46.899,42.643,99.868,68.385
	c-10.101,8.138-19.412,16.85-28.585,25.439c-65.628-16.583-134.813-20.194-196.329-23.405c-12.053-0.629-24.474-1.278-37.063-1.408
	C1391.456,1557.383,1434.789,1538.859,1471.146,1523.217z"/>
<path style="fill:#050605;" d="M837.877,1365.13c58.808-30.67,120.846-62.338,183.028-93.004
	c-12.589-12.726-38.334-20.27-76.831-22.429c-25.106-1.408-48.786-6.288-71.056-13.509c-46.697,22.075-89.309,42.323-126.062,59.844
	C775.76,1321.501,806.306,1344.828,837.877,1365.13z M942.677,1274.602c5.41,0.304,10.355,0.711,14.871,1.199
	c-38.032,19.104-77.577,39.324-118.195,60.436c-15.756-10.62-31.357-22.097-46.684-34.344c27.42-13.041,54.956-26.102,82.271-39.022
	C897.428,1269.399,920.169,1273.34,942.677,1274.602z"/>
<path style="fill:#050605;" d="M466.227,1543.525c4.556,5.331,9.211,10.606,13.953,15.824c5.279-2.99,13.166-7.446,23.397-13.195
	C488.436,1549.913,476.255,1549.13,466.227,1543.525z"/>
<path style="fill:#050605;" d="M694.801,1320.94c-36.224,17.331-62.662,30.05-76.119,36.533
	c32.323,29.562,66.037,52.946,101.052,70.144c29.649-15.892,61.009-32.547,93.537-49.615c-5.688-2.321-11.373-4.646-17.038-7.008
	C761.418,1356.478,726.843,1340.693,694.801,1320.94z M719.495,1399.451c-18.773-10.08-37.266-22.18-55.305-36.18
	c8.664-4.159,18.475-8.864,29.318-14.057c20.745,11.995,42.046,22.384,61.684,31.227
	C743.336,1386.729,731.419,1393.076,719.495,1399.451z"/>
<path style="fill:#A5989C;" d="M1479.75,1257.098c0.234,0.144,0.474,0.278,0.708,0.422c10.115,6.209,20.011,12.731,29.761,19.463
	l123.443-3.762c-10.206,22.645-21.535,47.052-33.57,72.809c5.55,4.512,11.101,9.024,16.656,13.53
	c14.058-30.059,26.822-57.521,38.022-82.489l116.785,68.832c4.2-1.662,8.336-3.287,12.4-4.87c-1.675-4.073-3.411-8.121-5.209-12.135
	c-0.607-1.355-1.274-2.683-1.893-4.034l-113.6-66.929c13.684-31.274,24.451-58.153,31.56-80.689
	c-1.478-2.413-2.911-4.854-4.396-7.262c-3.332-5.406-6.74-10.763-10.101-16.151c-6.304,24.547-19.606,58.167-37.288,98.365
	L1479.75,1257.098z"/>
<path style="fill:#A5989C;" d="M1467.001,1249.501l202.098-113.6c-1.27-2.012-2.51-4.041-3.784-6.05
	c-2.448-3.86-4.94-7.692-7.4-11.544l-212.355,119.366C1452.77,1241.496,1459.933,1245.409,1467.001,1249.501z"/>
<path style="fill:#A5989C;" d="M1587.057,1100.295c23.569-1.048,43.791-1.216,59.62,0.479c-1.596-2.475-3.167-4.966-4.768-7.439
	c-3.12-4.816-6.279-9.606-9.417-14.41c-13.486-0.496-28.859-0.21-46.357,0.571c-18.04,0.791-35.013-0.748-50.93-3.983
	c-9.64,3.366-19.305,6.658-28.913,10.114c-1.959,0.704-3.9,1.456-5.858,2.165C1526.11,1096.657,1554.969,1101.72,1587.057,1100.295z
	"/>
<path style="fill:#A5989C;" d="M1472.122,1075.956c9.595-3.544,19.206-7.043,28.831-10.504
	c-45.344-17.519-79.624-47.991-101.996-73.093c-6.741,3.236-13.362,6.378-19.863,9.427
	C1399.53,1025.82,1430.623,1055.438,1472.122,1075.956z"/>
<path style="fill:#A5989C;" d="M1659.051,1081.431c6.013,9.267,12.021,18.536,17.963,27.848
	c8.463,13.264,16.852,26.576,25.151,39.944c2.545-13.015,3.128-23.922,1.53-32.769l168.693-94.824
	c-1.977-5.516-4.015-11.01-6.162-16.463c-0.424-1.077-0.881-2.142-1.312-3.217l-170.496,95.837
	C1686.47,1089.295,1674.819,1084.187,1659.051,1081.431z"/>
<path style="fill:#A5989C;" d="M1194.757,1337.8c-7.203,2.667-13.887,4.609-20.109,5.821
	c19.495,38.231,84.327,138.745,232.682,154.374c1.779,0.188,3.619,0.312,5.422,0.474c15.198-6.49,30.307-12.976,45.305-19.434
	C1286.684,1483.694,1215.861,1378.906,1194.757,1337.8z"/>
<path style="fill:#A5989C;" d="M1660.59,1572.159c0.729-0.308,1.397-0.688,2.136-0.984c9.755-3.91,19.867-6.679,30.117-8.986
	c-109.104-39.596-147.193-78.851-158.335-93.517c-6.485,2.809-12.987,5.623-19.535,8.457
	C1524.769,1491.793,1558.932,1531.37,1660.59,1572.159z"/>
<path style="fill:#3B2A32;" d="M1600.091,1346.03c-29.369-23.876-58.82-47.606-89.873-69.047
	c-9.749-6.732-19.645-13.254-29.761-19.463c-0.234-0.144-0.473-0.278-0.708-0.422c-4.222-2.584-8.469-5.12-12.748-7.597
	c-7.069-4.092-14.232-8.005-21.441-11.828c-10.202-5.409-20.527-10.581-30.969-15.521c0.019,0.01,0.039,0.021,0.058,0.03
	c-31.378,25.895-70.39,45.073-105.581,61.057c84.135,43.881,161.819,98.932,237.042,157.725
	c40.407-17.498,77.826-33.641,112.298-48.296c-14.038-10.83-27.879-21.929-41.66-33.108
	C1611.192,1355.054,1605.641,1350.542,1600.091,1346.03z"/>
<path style="fill:#736267;" d="M1129.729,1333.945c11.621,10.317,26.167,13.327,44.919,9.676c6.222-1.212,12.906-3.154,20.109-5.821
	c13.64-5.051,29.102-12.643,46.761-22.702c17.199-9.796,41.317-19.944,67.55-31.859c35.191-15.984,74.204-35.162,105.581-61.057
	c-0.019-0.01-0.039-0.02-0.058-0.03c-32.617-16.464-63.344-39.361-91.804-65.151c-19.189,7.969-38.333,16.05-57.421,24.259
	c-59.518,25.592-123.282,55.136-187.774,86.335C1097.326,1297.244,1115.969,1321.73,1129.729,1333.945z"/>
<path style="fill:#736267;" d="M1237.727,1066.229c-74.598,34.166-149.347,68.854-219.965,101.886
	c14.95,27.258,31.789,55.878,48.384,81.893c65.578-31.758,130.465-61.846,190.994-87.873c16.315-7.016,32.707-13.849,49.096-20.69
	C1281.4,1117.294,1258.474,1091.364,1237.727,1066.229z"/>
<path style="fill:#2A1F22;" d="M1582.567,1631.88c1.04-0.941,2.052-1.897,3.083-2.843c-65.903-18.689-135.764-22.57-204.514-26.16
	c-22.912-1.196-45.931-2.389-68.76-0.089c-7.804,0.787-15.879,2.126-22.521,6.147c2.806,1.487,5.555,3.028,8.22,4.644
	c1.431-0.423,2.864-0.838,4.309-1.194c19.184-4.725,39.285-2.473,59.004-1.252c31.257,1.935,64.311,1.639,91.338,17.461
	c15.154,8.87,27.155,22.177,38.355,35.701c9.101,10.99,18.002,22.677,23.42,35.732c5.471,1.241,10.98,2.306,16.518,3.201
	c0.854-2.785,1.731-5.399,2.576-7.74C1542.619,1670.481,1563.265,1649.336,1582.567,1631.88z"/>
<path style="fill:#3B2A32;" d="M1884.912,1681.046L1884.912,1681.046c0.06-0.153,0.12-0.303,0.18-0.455
	c2.116-5.414,4.185-10.838,6.384-16.148c0.49-1.183,0.964-2.374,1.449-3.559l0,0c9.246-22.617,17.505-45.714,22.784-69.604
	c1.219-5.517,2.296-11.126,2.103-16.774c-0.233-6.861-2.324-13.506-4.398-20.05c-3.695-11.66-7.732-38.676-20.139-44.825
	c-6.463-3.203-14.163-0.626-20.904,1.943c-12.811,4.882-25.692,9.619-38.64,14.156c2.061,30.602,3.715,62.393,5.072,93.599
	c18.624-3.744,36.818-8.767,53.991-16.964c1.951-0.931,4.081-1.927,6.188-1.446c3.782,0.862,4.961,5.686,4.76,9.561
	c-0.467,9.039-4.284,17.526-8.111,25.728c-7.521,16.119-15.332,32.104-23.425,47.945c-6.076,11.892-12.509,23.963-22.387,32.952
	c-2.282,2.077-4.737,3.914-7.277,5.627c0.172,5.54,0.339,10.985,0.499,16.286c5.777-3.354,11.17-7.439,16.138-12.551
	C1871.589,1713.7,1878.497,1697.431,1884.912,1681.046z"/>
<path style="fill:#3B2A32;" d="M1692.844,1562.189c-10.251,2.307-20.362,5.076-30.117,8.986c-0.74,0.296-1.407,0.676-2.136,0.984
	c-30.094,12.727-51.472,35.337-74.94,56.878c-1.031,0.946-2.043,1.902-3.083,2.843c-19.302,17.456-39.948,38.601-48.971,63.606
	c-0.845,2.342-1.722,4.955-2.576,7.74c-5.611,18.293-10.172,44.548,2.76,57.903c5.893,6.086,14.364,8.834,22.57,10.938
	c35.048,8.987,71.595,10.166,107.776,9.995c36.362-0.172,72.213-6.843,106.91-17.459c16.265-4.977,31.997-12.066,48.352-16.195
	c1.047-0.264,2.058-0.574,3.086-0.863c-0.141-4.708-0.287-9.534-0.44-14.53c-3.767,1.443-7.582,2.768-11.387,4.027
	c-38.996,12.905-79.266,21.951-120.032,26.985c-17.095,2.111-29.739,1.773-23.349-18.979c6.05-19.647,14.171-38.148,18.733-58.364
	c2.297-10.179,4.345-20.928,10.972-28.988c5.982-7.276,14.936-11.38,23.785-14.606c31.079-11.33,64.54-14.762,97.335-20.045
	c-1.558-35.886-3.514-72.944-6.034-108.044c-9.138-11.061-19.04-21.492-29.68-31.117c-27.599-24.967-59.576-44.488-89.964-65.974
	c-5.002-3.537-9.956-7.139-14.886-10.778c-36.238,15.344-74.219,31.745-112.846,48.472c43.944,34.839,87.201,70.669,130.549,106.043
	C1694.432,1561.82,1693.64,1562.01,1692.844,1562.189z"/>
<path style="fill:#736267;" d="M1872.209,1684.152c8.093-15.84,15.903-31.825,23.425-47.945c3.828-8.203,7.644-16.689,8.111-25.728
	c0.2-3.875-0.978-8.698-4.76-9.561c-2.107-0.48-4.238,0.515-6.188,1.446c-17.173,8.197-35.368,13.22-53.991,16.964
	c1.576,36.255,2.758,71.642,3.74,103.402c2.54-1.712,4.995-3.55,7.277-5.627C1859.7,1708.115,1866.133,1696.044,1872.209,1684.152z"
	/>
<path style="fill:#736267;" d="M1696.971,1657.695c-6.627,8.06-8.675,18.81-10.972,28.988
	c-4.562,20.217-12.684,38.717-18.733,58.364c-6.389,20.752,6.254,21.091,23.349,18.979c40.766-5.034,81.036-14.08,120.032-26.985
	c3.805-1.259,7.62-2.584,11.387-4.027c-0.988-32.37-2.226-70.428-3.943-109.971c-32.795,5.284-66.256,8.715-97.335,20.045
	C1711.907,1646.315,1702.953,1650.419,1696.971,1657.695z"/>
<path style="fill:#3B2A32;" d="M1452.726,1628.593c-27.027-15.821-60.081-15.525-91.338-17.461
	c-19.72-1.221-39.82-3.473-59.004,1.252c-1.445,0.356-2.878,0.771-4.309,1.194c13.955,8.459,25.579,18.942,30.484,34.316
	c2.538,7.958,2.444,16.254,0.431,24.165c21.503,5.952,42.086,15.616,61.021,27.51c29.847,18.749,55.96,42.843,80.766,67.883
	c3.22,3.251,6.591,6.629,10.927,8.093c9.341,3.154,19.157-3.706,25.127-11.552c11.05-14.521,15.385-33.95,11.553-51.792
	c-0.902-4.202-2.251-8.245-3.883-12.177c-5.418-13.055-14.319-24.742-23.42-35.732
	C1479.882,1650.77,1467.88,1637.463,1452.726,1628.593z"/>
<path style="fill:#E52222;" d="M507.686,411.534c-51.526,28.983-95.713,60.947-133.554,95.092
	c-21.441,39.62-36.934,82.5-40.707,127.571c-2.595,30.992,0.768,62.398,9.983,92.109c9.178,29.591,24.793,56.774,43.897,81.042
	c39.041,49.596,94.13,89.891,153.83,110.726c10.418,3.636,20.986,6.536,31.641,8.898c48.392-28.061,86.158-51.48,107.185-56.301
	c0.076-0.028,0.155-0.067,0.231-0.095c8.607-3.182,23.781-0.87,28.401,0.459c15.198,4.374,24.905,28.687,34.217,50.608
	c1.419-0.342,2.848-0.655,4.263-1.008c63.871-15.954,123.869-43.439,182.68-72.489c50.151-24.772,99.239-51.782,146.521-81.687
	c48.652-30.771,95.489-64.64,138.816-102.589c42.628-37.337,81.912-78.811,114.611-125.184
	c12.786-18.134,24.446-37.087,34.857-56.692C1155.097,253.362,884.283,199.698,507.686,411.534z"/>
<path style="fill:#E94748;" d="M617.288,699.675c49.972,13.193,100.909,18.108,152.331,16.463
	c51.924-1.66,103.517-9.311,154.441-19.812c83.286-17.176,166.012-39.977,242.779-78.922
	c56.223-28.523,111.848-66.53,150.762-118.925c0.382-0.799,0.784-1.589,1.164-2.39c6.131-12.936-103.029-94.136-115.709-102.936
	c-40.534-28.13-84.493-50.723-130.842-65.81c-97.906-31.868-204.163-27.882-302.411-0.148
	c-62.658,17.688-124.738,39.218-182.3,71.992c-21.874,12.455-42.937,27.648-60.832,45.861
	c-16.775,17.071-30.767,36.796-40.039,59.405c-16.205,39.516-15.427,90.556,9.475,126.106
	C523.034,669.002,575.161,688.552,617.288,699.675z"/>
<path style="fill:#A81917;" d="M236.467,1136.302c93.698-62.496,272.596-172.599,328.955-205.071
	c2.493-1.436,4.915-2.844,7.355-4.259c-10.656-2.363-21.224-5.263-31.641-8.898c-59.7-20.835-114.789-61.13-153.83-110.726
	c-19.104-24.269-34.72-51.451-43.897-81.042c-9.215-29.71-12.578-61.117-9.983-92.109c3.774-45.083,19.274-87.975,40.723-127.603
	c-300.344,270.979-197.849,680.481-138.629,846.684c0.003,0.008,0.005,0.016,0.008,0.023c4.726,13.261,9.174,24.971,13.122,34.939
	c-0.057-37.53,16.054-76.909,37.759-112.901c-0.771-2.128-1.29-3.611-1.53-4.314c-0.063-0.187-0.067-0.357-0.117-0.54
	c-6.295,2.861-11.822,4.277-16.802,3.757c-4.268-0.445-13.274-2.908-16.195-7.203c-0.001-0.002-0.002-0.005-0.004-0.007
	c-15.509-13.081-22.543-48.864-35.826-79.689C201.781,1154.497,225.025,1143.934,236.467,1136.302z"/>
<path style="fill:#A81917;" d="M1215.091,663.871c-43.327,37.948-90.163,71.818-138.816,102.589
	c-47.282,29.905-96.37,56.915-146.521,81.687c-58.812,29.05-118.809,56.535-182.68,72.489c-1.415,0.353-2.844,0.666-4.263,1.008
	c1.168,2.749,2.33,5.467,3.495,8.097c10.458,23.596,17.851,42.098-9.509,62.471c-1.393,1.038-3.354,2.388-5.779,3.996
	c34.973-16.541,65.995-31.957,88.718-44.578c345.796-192.06,539.338-260.284,676.66-290.928c-4.813-7.898-9.649-15.725-14.532-23.41
	c-0.851-1.339-1.708-2.662-2.561-3.995c-11.357-17.738-22.905-34.906-34.659-51.466c-0.635-0.894-1.268-1.795-1.904-2.686
	c-5.954-8.341-11.958-16.539-18.018-24.57c-0.334-0.442-0.669-0.876-1.003-1.317c-12.553-16.585-25.334-32.506-38.357-47.734
	c-0.296-0.346-0.592-0.695-0.888-1.041c-6.577-7.668-13.211-15.171-19.912-22.485c-0.001-0.001-0.002-0.003-0.002-0.003l0,0
	c-10.411,19.605-22.071,38.558-34.857,56.692C1297.004,585.061,1257.72,626.534,1215.091,663.871z"/>
<path style="fill:#3B2A32;" d="M660.941,1297.699c-7.325-5.649-14.184-11.202-20.766-16.731
	c-20.864-3.43-41.305-10.928-59.959-20.941c-28.145-15.106-52.921-35.512-76.863-56.781c-1.322,0.531-2.593,1.041-3.853,1.546
	c21.715,37.92,55.574,89.518,100.113,134.395c6.3,6.346,12.661,12.425,19.07,18.287c13.456-6.483,39.895-19.202,76.119-36.533
	C683.146,1313.755,671.805,1306.078,660.941,1297.699z"/>
<path style="fill:#3B2A32;" d="M719.77,1270.858c8.874,8.581,17.932,16.992,27.186,25.174
	c36.753-17.521,79.365-37.769,126.062-59.844c-22.215-7.204-43.011-16.754-62.222-27.859
	c-20.837,19.045-43.271,36.192-67.909,50.543C735.392,1263.238,727.696,1267.333,719.77,1270.858z"/>
<path style="fill:#3B2A32;" d="M1374.579,860.932c-44.539-43.783-152.549-8.875-230.82,25.466
	c-53.169,26.003-103.201,52.891-150.294,79.468l-35.95,54.954c-39.346,60.147-80.221,121.658-130.653,172.116
	c22.956,12.818,48.027,23.27,75.027,29.617c36.747-17.337,75.635-35.617,115.874-54.438
	c70.618-33.032,145.367-67.72,219.965-101.886c32.158-14.729,64.211-29.303,95.961-43.66c0.018-0.029,0.041-0.056,0.06-0.086
	c-0.81,0.364-1.614,0.727-2.425,1.091l-0.349,0.2l-0.2,0.049c0.299-0.249,0.798-0.648,1.497-1.197
	c0.549-0.449,1.247-1.047,2.045-1.746c8.481-7.134,29.435-25.993,45.201-50.339c0.549-0.848,1.147-1.796,1.696-2.694
	c5.488-8.831,10.178-18.31,13.371-28.237c0.549-1.647,0.998-3.293,1.447-4.989c0.698-2.595,1.247-5.239,1.646-7.883
	c0.15-0.699,0.25-1.347,0.349-2.046c0.199-1.347,0.349-2.744,0.449-4.091C1400.172,900.794,1394.186,880.19,1374.579,860.932z"/>
<path style="fill:#3B2A32;" d="M315.086,1343.844c-43.937,59.605-48.146,106.525-48.146,106.525s38.723,58.025,139.541,52.21
	C365.676,1445.144,335.29,1387.382,315.086,1343.844z"/>
<path style="fill:#58464D;" d="M1374.579,860.932c19.607,19.258,25.594,39.862,23.897,59.669c-0.1,1.347-0.25,2.744-0.449,4.091
	c-0.1,0.698-0.2,1.347-0.349,2.046c-0.399,2.644-0.948,5.288-1.646,7.883c-0.449,1.696-0.898,3.342-1.447,4.989
	c-3.193,9.928-7.883,19.407-13.371,28.237c-0.549,0.898-1.147,1.846-1.696,2.694c-15.766,24.346-36.719,43.205-45.201,50.339
	c-0.798,0.699-1.497,1.297-2.045,1.746c-0.699,0.549-1.198,0.948-1.497,1.197l0.2-0.049l0.349-0.2
	c1.996-1.148,7.733-4.39,15.915-9.33c0.698-0.399,1.397-0.848,2.095-1.297c36.669-23.947,110.357-85.462,66.703-172.52
	c-13.429-26.775-40.018-37.88-72.784-39.273c-70.996,25.834-137.409,54.879-199.495,85.244
	C1222.03,852.058,1330.04,817.149,1374.579,860.932z"/>
<path style="fill:#A81917;" d="M1795.503,729.771c0.001-0.005,0.001-0.01,0.002-0.016c-6.608-26.37-36.037-45.732-298.452,23.11
	c-34.95,9.169-68.796,19.379-101.803,30.26c21.458,5.152,41.257,15.356,59.922,38.099c52.085,63.411-56.595,161.54-105.837,191.724
	c-0.698,0.449-1.397,0.898-2.095,1.297c-7.932,5.139-13.87,8.282-15.915,9.33c6.336-2.844,12.672-5.688,18.958-8.531
	c31.089-14.017,66.434-30.974,103.287-49.649c78.884-39.974,164.703-87.845,230.686-131.789c0.075-0.05,0.154-0.101,0.229-0.151
	c0.112-0.074,0.221-0.148,0.332-0.223C1746.704,791.966,1791.01,754.204,1795.503,729.771z"/>
<path style="fill:#3B2A32;" d="M1416.038,840.428c43.654,87.058-30.034,148.573-66.703,172.52
	c49.242-30.184,157.923-128.313,105.837-191.724c-18.664-22.743-38.464-32.947-59.922-38.099
	c-17.605,5.804-34.93,11.821-51.996,18.03C1376.02,802.547,1402.609,813.653,1416.038,840.428z"/>
<path style="fill:#E52222;" d="M957.515,1020.82l35.95-54.954c-29.466,16.629-57.861,33.133-85.084,49.18
	c-52.489,30.941-119.417,63.914-185.216,94.089c26.359,28.624,61.392,60.178,103.698,83.8
	C877.294,1142.478,918.169,1080.967,957.515,1020.82z"/>
<path style="fill:#E52222;" d="M580.216,1260.027c18.655,10.013,39.096,17.511,59.959,20.941
	c-37.26-31.301-62.91-61.621-79.594-101.098c-22.351,9.273-41.866,17.204-57.229,23.376
	C527.295,1224.515,552.071,1244.92,580.216,1260.027z"/>
<path style="fill:#E52222;" d="M719.77,1270.858c7.926-3.526,15.622-7.62,23.117-11.986c24.638-14.351,47.073-31.498,67.909-50.543
	c-44.833-25.915-81.193-59.849-108-89.922c-28.601,12.92-56.679,25.212-82.929,36.464
	C648.46,1195.158,682.305,1234.634,719.77,1270.858z"/>
<path style="fill:#D81117;" d="M819.737,951.63c-22.722,12.62-53.745,28.037-88.718,44.578c-11.76,7.797-35.058,21.97-64.377,39.462
	c0.256,0.324,0.518,0.625,0.758,1.021c0.513,0.849,20.306,33.942,55.764,72.446c65.799-30.175,132.727-63.148,185.216-94.089
	c27.223-16.047,55.618-32.551,85.084-49.18c47.094-26.578,97.126-53.465,150.294-79.468c62.086-30.365,128.499-59.41,199.495-85.244
	c17.066-6.209,34.391-12.227,51.996-18.03c33.007-10.881,66.854-21.091,101.803-30.26c262.415-68.842,291.844-49.48,298.452-23.11
	c0.002,0.008,0.005,0.016,0.007,0.025c0,0,24.965-117.799-131.868-96.46c-49.923,6.793-102.293,12.89-167.209,27.374
	c-0.013,0.003-0.025,0.006-0.038,0.008C1359.074,691.346,1165.533,759.57,819.737,951.63z"/>
<path style="fill:#D81117;" d="M619.867,1154.871c26.25-11.252,54.328-23.544,82.929-36.464
	c-32.684-36.666-51.161-67.555-53.209-70.938c-0.268-0.444-0.423-0.873-0.586-1.303c-21.966,13.037-46.332,27.396-71.208,42.029
	C590.019,1110.393,604.165,1132.748,619.867,1154.871z"/>
<path style="fill:#D81117;" d="M390.011,1199.797c22.761-10.75,50.188-21.502,62.811-18.476c4.359,1.045,10.123,5.809,17.107,13.234
	c-8.584-16.178-14.074-28.001-16.395-33.17c-22.053,13.081-41.015,24.438-54.627,32.82
	C395.837,1196.095,392.944,1197.941,390.011,1199.797z"/>
<path style="fill:#D81117;" d="M320.557,1247.665c-6.773,4.872-12.873,9.168-18.444,12.847c0.004,0.01,0.008,0.015,0.011,0.025
	c0.225,0.66,4.82,13.474,13.703,34.32C310.995,1274.263,313.967,1259.116,320.557,1247.665z"/>
<path style="fill:#D81117;" d="M315.086,1343.844c-15.529-33.464-25.05-58.498-28.678-68.504
	c-21.705,35.991-37.816,75.371-37.759,112.901v0.001c0.033,21.663,5.435,42.71,18.292,62.126
	C266.941,1450.369,271.149,1403.449,315.086,1343.844z"/>
<path style="fill:#D81117;" d="M560.581,1179.869c-8.625-20.407-14.899-43.238-19.142-69.973l0.412-0.572
	c-24.411,14.349-48.425,28.469-70.277,41.382c1.271,2.89,10.838,24.247,27.925,54.086c1.26-0.505,2.531-1.015,3.853-1.546
	C518.716,1197.073,538.231,1189.142,560.581,1179.869z"/>
<path style="fill:#58464D;" d="M966.957,1450.245c2.582-6.734,5.495-13.543,8.637-20.386
	c-39.543-11.54-78.979-29.391-117.149-51.977c-6.686,3.477-13.321,6.939-19.924,10.391c39.745,16.147,79.335,32.669,116.259,54.388
	C958.904,1445.085,962.912,1447.695,966.957,1450.245z"/>
<path style="fill:#58464D;" d="M1209.079,1669.976c2.713,0.364,5.534,0.525,8.319,0.413c0.198,0.504,0.357,1.028,0.567,1.523
	c11.269,26.506,40.866,45.26,69.212,40.148c20.125-3.629,36.884-20.63,41.814-39.999c2.014-7.911,2.108-16.207-0.431-24.165
	c-4.906-15.375-16.53-25.858-30.484-34.316c-2.665-1.616-5.414-3.157-8.22-4.644c-11.208-5.939-23.283-11.019-34.319-16.478
	c-2.228-1.102-4.397-2.29-6.578-3.463c-36.181,14.464-72.163,28.4-107.552,41.494c0.291,0.314,0.563,0.644,0.856,0.956
	C1160.201,1650.573,1183.087,1666.488,1209.079,1669.976z"/>
<path style="fill:#58464D;" d="M1077.369,1451.202c-14.787-5.861-30.867-7.368-46.634-9.473c-11.542-1.541-23.122-3.699-34.71-6.424
	c-3.012,6.43-5.829,12.801-8.326,19.054l179.744,71.168c-15.727-15.053-31.172-30.51-47.248-44.998
	C1107.271,1468.882,1093.542,1457.613,1077.369,1451.202z"/>
<path style="fill:#58464D;" d="M1094.836,1568.75c10.964,14.832,21.116,30.329,32.402,44.887
	c32.702-12.042,65.986-24.849,99.51-38.151c-4.22-2.882-8.344-5.909-12.419-9.005l-193.346-76.529
	C1048.471,1513.329,1073.386,1539.733,1094.836,1568.75z"/>
<path style="fill:#58464D;" d="M719.77,1270.858c-37.465-36.224-71.31-75.701-99.903-115.987
	c-15.702-22.123-29.848-44.478-42.075-66.677c-11.935,7.021-23.982,14.101-35.941,21.13l-0.412,0.572
	c4.244,26.735,10.518,49.567,19.142,69.973c16.684,39.478,42.334,69.797,79.594,101.098c6.582,5.529,13.44,11.082,20.766,16.731
	c10.865,8.38,22.206,16.056,33.861,23.241c32.042,19.754,66.617,35.538,101.433,50.054c5.664,2.362,11.349,4.687,17.038,7.008
	c8.135-4.269,16.333-8.559,24.604-12.872c-31.571-20.302-62.117-43.629-90.921-69.098
	C737.702,1287.85,728.644,1279.439,719.77,1270.858z"/>
<path style="fill:#3B2A32;" d="M736.798,992.211c27.359-20.372,19.966-38.875,9.509-62.471c-1.165-2.63-2.327-5.348-3.495-8.097
	c-9.312-21.92-19.019-46.234-34.217-50.608c-4.62-1.33-19.795-3.642-28.401-0.459c-0.076,0.028-0.155,0.067-0.231,0.095
	c4.539-1.04,8.361-1.282,11.277-0.443c17.104,4.922,27.255,35.107,37.712,58.704c10.457,23.596,17.85,42.098-9.509,62.471
	c-27.359,20.373-263.117,155.95-337.89,201.993c-74.774,46.043-108.847,86.552-126.626,75.914c-1.095-0.655-2.146-1.42-3.164-2.278
	c0.002,0.002,0.003,0.005,0.004,0.007c2.921,4.295,11.927,6.758,16.195,7.203c4.979,0.519,10.507-0.896,16.802-3.757
	c-1.407-5.16,2.467-8.977,7.719-10.77c5.438-1.833,7.777-4.599,9.632,0.796c5.571-3.679,11.671-7.975,18.444-12.847
	c10.137-17.615,28.776-26.518,40.579-33.095c6.556-3.653,17.103-9.213,28.874-14.773c2.933-1.856,5.826-3.702,8.896-5.592
	c13.612-8.382,32.574-19.739,54.627-32.82c-0.674-1.5-1.111-2.504-1.245-2.816c-2.267-5.283,1.622-7.951,6.905-10.218
	c5.296-2.263,9.956-3.275,12.226,2.001c0.012,0.027,0.071,0.163,0.155,0.354c21.851-12.913,45.866-27.033,70.277-41.382
	c11.959-7.029,24.006-14.109,35.941-21.13c24.876-14.633,49.243-28.991,71.208-42.029c-1.645-4.333,1.775-7.951,6.247-10.661
	c4.524-2.735,8.467-3.539,11.394,0.165c29.319-17.492,52.617-31.665,64.377-39.462C733.444,994.6,735.405,993.249,736.798,992.211z"
	/>
<path style="fill:#736267;" d="M584.389,1353.397c-55.082-55.621-93.733-119.78-114.46-158.842
	c-6.984-7.426-12.748-12.189-17.107-13.234c-12.623-3.025-40.05,7.727-62.811,18.476c-11.772,5.56-22.318,11.119-28.874,14.773
	c-11.804,6.578-30.442,15.48-40.579,33.095c-6.59,11.451-9.562,26.598-4.73,47.191c22.58,52.993,72.978,158.063,150.4,248.669
	c10.028,5.604,22.209,6.388,37.35,2.629c37.903-21.295,107.719-60.171,194.387-106.841
	C658.119,1418.118,620.1,1389.457,584.389,1353.397z"/>
<path style="fill:#8A7B80;" d="M443.837,1213.353c-4.417-4.529-9.158-9.003-15.039-11.336c-14.93-5.922-40.892,9.738-53.704,16.779
	c-31.224,17.159-53.541,43.198-40.236,84.777c12.098,37.808,33.647,73.736,53.402,107.904
	c20.973,36.276,42.915,76.842,72.598,106.929c21.271,21.561,48.918,5.508,69.351-6.84c27.53-16.638,54.54-34.138,80.976-52.465
	c3.211-2.227,6.652-4.802,7.543-8.607c0.735-3.139-0.464-6.389-1.847-9.302c-7.649-16.113-21.686-25.427-33.844-37.718
	C527.124,1346.953,499.209,1270.127,443.837,1213.353z"/>
<path style="fill:#8A7B80;" d="M728.951,928.934c-10.458-23.597-20.608-53.782-37.712-58.704c-2.916-0.839-6.737-0.598-11.277,0.443
	c-21.027,4.82-58.794,28.239-107.185,56.301c-2.44,1.415-4.861,2.822-7.355,4.259c-56.359,32.472-235.257,142.575-328.955,205.071
	c-11.442,7.632-34.686,18.195-20.532,51.042c13.283,30.826,20.317,66.608,35.826,79.689c1.018,0.858,2.069,1.623,3.164,2.278
	c17.779,10.639,51.853-29.87,126.626-75.914c74.773-46.044,310.531-181.621,337.89-201.993
	C746.801,971.031,739.408,952.53,728.951,928.934z"/>
<path style="fill:#C0B7BA;" d="M1939.227,1234.304c-2.213-20.501-4.887-40.954-8.1-61.323c-2.819-17.881-6.052-35.698-9.768-53.414
	c-3.22-15.353-6.802-30.631-10.809-45.798c-3.412-12.917-7.133-25.755-11.219-38.475c-3.396-10.573-7.045-21.067-10.999-31.445
	c-0.039-0.104-0.083-0.206-0.122-0.309c0.271-3.622-0.407-7.209-1.677-10.636c-1.018-2.749-2.402-5.397-3.941-7.878
	c-0.938-1.51-2.026-2.937-3.327-4.134c-0.648-1.971-1.388-3.831-3.221-5.474c-5.103-4.575-13.038-5.673-19.192-2.655
	c-0.922,0.452-1.833,1.014-2.407,1.866c-0.426,0.632-0.451,1.424-0.29,2.269c-0.036-0.001-0.071-0.004-0.107-0.005
	c-9.001-0.151-18.007,0.302-26.973,1.068c-10.745,0.918-21.449,2.303-32.103,3.961c-12.37,1.925-24.68,4.227-36.937,6.771
	c-13.887,2.882-27.708,6.08-41.473,9.496c-15.301,3.797-30.535,7.867-45.712,12.136c-16.484,4.637-32.9,9.515-49.259,14.573
	c-0.421-0.282-0.866-0.526-1.374-0.669c-4.392-1.236-10.941-0.003-14.896,2.098c-1.148,0.61-2.241,1.385-2.988,2.449
	c-0.603,0.856-0.813,1.671-0.823,2.46c-11.226,3.581-22.436,7.213-33.612,10.945c-18.947,6.327-37.827,12.856-56.646,19.553
	c-3.439,1.224-6.864,2.484-10.299,3.719c-9.625,3.46-19.236,6.96-28.831,10.504c-6.859,2.533-13.721,5.059-20.566,7.633
	c-20.883,7.851-41.697,15.884-62.449,24.076c-21.703,8.568-43.337,17.31-64.905,26.21c-6.008,2.479-11.97,5.068-17.967,7.571
	c-16.389,6.841-32.781,13.674-49.096,20.69c-60.528,26.027-125.416,56.115-190.994,87.873c-8.64,4.184-17.291,8.401-25.947,12.637
	c-15.317-19.938-46.465-31.014-94.96-33.733c-14.948-0.838-29.391-3.078-43.351-6.359c-26.999-6.346-52.071-16.799-75.027-29.617
	c-42.306-23.622-77.339-55.177-103.698-83.8c-35.457-38.504-55.25-71.597-55.764-72.446c-0.24-0.396-0.502-0.696-0.758-1.021
	c-2.927-3.703-6.87-2.9-11.394-0.165c-4.472,2.71-7.893,6.327-6.247,10.661c0.164,0.43,0.318,0.859,0.586,1.303
	c2.047,3.383,20.525,34.272,53.209,70.938c26.807,30.073,63.167,64.007,108,89.922c19.21,11.105,40.007,20.655,62.222,27.859
	c22.271,7.222,45.951,12.101,71.056,13.509c38.496,2.159,64.242,9.703,76.831,22.429c-62.181,30.666-124.219,62.334-183.028,93.004
	c-8.272,4.313-16.47,8.604-24.604,12.872c-32.528,17.068-63.888,33.722-93.537,49.615c-35.016-17.198-68.729-40.582-101.052-70.144
	c-6.409-5.862-12.77-11.94-19.07-18.287c-44.539-44.877-78.398-96.475-100.113-134.395c-17.087-29.839-26.654-51.196-27.925-54.086
	c-0.084-0.191-0.144-0.327-0.155-0.354c-2.27-5.275-6.93-4.264-12.226-2.001c-5.283,2.267-9.172,4.935-6.905,10.218
	c0.134,0.313,0.572,1.316,1.245,2.816c2.321,5.169,7.81,16.992,16.395,33.17c20.726,39.062,59.378,103.22,114.46,158.842
	c35.711,36.06,73.73,64.721,113.576,85.916c-86.668,46.67-156.484,85.546-194.387,106.841
	c-10.231,5.749-18.118,10.205-23.397,13.195c-4.743-5.218-9.397-10.492-13.953-15.824c-77.422-90.607-127.82-195.676-150.4-248.669
	c-8.883-20.846-13.478-33.66-13.703-34.32c-0.003-0.01-0.007-0.015-0.011-0.025c-1.855-5.395-4.194-2.629-9.632-0.796
	c-5.252,1.793-9.126,5.611-7.719,10.77c0.05,0.183,0.054,0.354,0.117,0.54c0.24,0.703,0.758,2.186,1.53,4.314
	c3.628,10.006,13.149,35.04,28.678,68.504c20.204,43.538,50.59,101.3,91.396,158.734c71.586,100.76,175.249,200.45,312.43,220.272
	c12.181,1.762,25.3,2.602,39.325,2.602c34.329,0,73.901-5.055,117.323-14.037c0.315,2.889,0.864,5.516,1.805,7.731
	c8.315,19.564,47.508,25.101,116.06,33.199c43.276,5.113,88.029,10.399,115.688,21.038c46.963,18.06,305.177,69.599,525.958,69.593
	c69.239-0.003,134.765-5.108,188.971-17.872c1.074,4.773,5.292,8.131,10.101,8.131c0.539,0,1.088-0.041,1.636-0.129
	c5.679-0.894,9.555-6.224,8.657-11.903c-0.067-0.424-0.122-0.89-0.174-1.371c12.193-3.52,23.73-7.467,34.415-11.934
	c25.982-10.861,44.275-23.524,54.883-37.828c0.17,0.008,0.331,0.05,0.503,0.05c5.828-0.044,10.453-4.741,10.409-10.487
	c-0.016-2.196,16.26-218.505-0.024-464.953C1943.117,1274.522,1941.394,1254.389,1939.227,1234.304z M1699.373,1024.168
	c12.856-3.421,25.755-6.678,38.707-9.716c11.502-2.698,23.046-5.225,34.638-7.509c10.11-1.991,20.258-3.8,30.448-5.327
	c8.679-1.301,17.392-2.404,26.135-3.172c7.215-0.634,14.457-1.048,21.701-1.043c4.103,0.003,8.208,0.22,12.297,0.59
	c0.543,1.319,1.084,2.638,1.615,3.961c0.431,1.075,0.888,2.14,1.312,3.217c2.147,5.452,4.185,10.946,6.162,16.463
	c1.566,4.37,3.101,8.753,4.57,13.157c4.059,12.166,7.766,24.448,11.177,36.811c4.043,14.654,7.669,29.423,10.94,44.268
	c3.798,17.238,7.117,34.579,10.024,51.989c3.325,19.915,6.11,39.919,8.427,59.975c2.622,22.686,4.646,45.44,6.151,68.226
	c0.036,0.548,0.069,1.092,0.105,1.64c-27.769,3.59-67.783,15.976-120.456,35.897c-2.725-6.668-5.579-13.283-8.607-19.814
	c-5.937-12.805-12.305-25.41-18.884-37.897c-7.324-13.9-14.925-27.653-22.693-41.309c-8.172-14.368-16.533-28.628-25.021-42.811
	c-8.504-14.206-17.137-28.334-25.87-42.401c-0.029-0.046-0.057-0.091-0.086-0.137c-8.299-13.368-16.688-26.68-25.151-39.944
	c-5.942-9.313-11.95-18.582-17.963-27.848c-1.728-2.663-3.428-5.343-5.162-8.002c-6.472-9.929-12.982-19.832-19.532-29.709
	c-0.167-0.25-0.334-0.5-0.5-0.751c7.608-2.325,15.228-4.612,22.862-6.851C1670.887,1031.963,1685.103,1027.964,1699.373,1024.168z
	 M1265.366,1181.259c19.089-8.208,38.232-16.29,57.421-24.259c0.65-0.27,1.295-0.552,1.945-0.822
	c21.194-8.791,42.452-17.429,63.776-25.898c20.126-7.993,40.311-15.836,60.561-23.508c17.069-6.467,34.201-12.769,51.365-18.979
	c1.958-0.708,3.899-1.46,5.858-2.165c9.608-3.456,19.273-6.748,28.913-10.114c8.285-2.893,16.541-5.872,24.851-8.692
	c16.674-5.66,33.4-11.168,50.182-16.495c0.949-0.301,1.902-0.589,2.852-0.89c2.854,4.297,5.718,8.587,8.557,12.893
	c3.637,5.517,7.231,11.063,10.845,16.595c3.138,4.804,6.297,9.594,9.417,14.41c1.601,2.472,3.172,4.964,4.768,7.439
	c3.763,5.833,7.502,11.681,11.238,17.532c2.46,3.853,4.953,7.684,7.4,11.544c1.273,2.009,2.513,4.039,3.784,6.05
	c3.764,5.961,7.484,11.951,11.215,17.933c3.361,5.388,6.769,10.745,10.101,16.151c1.485,2.409,2.918,4.849,4.396,7.262
	c7.045,11.495,14.067,23.005,20.947,34.599c8.196,13.812,16.264,27.701,24.136,41.7c7.367,13.102,14.568,26.299,21.479,39.647
	c5.402,10.435,10.584,20.988,15.478,31.671c0.619,1.351,1.286,2.678,1.893,4.034c1.798,4.014,3.535,8.062,5.209,12.135
	c-4.064,1.583-8.2,3.208-12.4,4.87c-33.388,13.209-71.081,28.88-113.147,46.764c-34.472,14.655-71.89,30.798-112.298,48.296
	c-2.6,1.125-5.156,2.232-7.78,3.369c-26.241,11.368-53.068,22.988-80.273,34.703c-14.997,6.458-30.107,12.944-45.305,19.434
	c-50.405,21.524-101.727,43.072-152.765,63.699l-92.544-36.642l-179.744-71.168c2.497-6.253,5.314-12.624,8.326-19.054
	c5.635-12.029,11.93-24.248,18.134-36.247c22.504-43.525,43.871-84.913,35.205-117.724c9.419-4.611,18.831-9.192,28.229-13.739
	C1142.083,1236.396,1205.848,1206.852,1265.366,1181.259z M980.495,1473.926l40.488,16.026l193.346,76.529l17.57,6.955
	c-1.717,0.683-3.435,1.37-5.151,2.05c-33.524,13.302-66.808,26.109-99.51,38.151c-81.257,29.921-158.9,55.097-227.655,71.343
	c8.327-30.648,28.701-80.393,44.854-119.82C957.051,1534.373,970.031,1502.672,980.495,1473.926z M838.522,1388.273
	c6.603-3.452,13.238-6.914,19.924-10.391c55.356-28.79,113.369-58.339,171.495-87.007c3.503,25.438-15.616,62.531-34.273,98.62
	c-6.883,13.311-13.888,26.892-20.073,40.363c-3.142,6.843-6.055,13.652-8.637,20.386c-0.156,0.406-0.298,0.809-0.451,1.214
	c-78.711,19.43-153.168,15.001-222.727-13.103C773.921,1422.249,805.682,1405.438,838.522,1388.273z M721.887,1702.249
	c-89.914-12.993-165.694-64.138-227.049-127.276c30.417-17.198,115.667-65.078,226.071-124.366
	c74.128,33.534,154.096,41.878,237.069,24.187c-9.78,26.231-21.433,54.716-32.805,82.475
	c-25.083,61.22-42.479,104.678-48.027,132.762C816.113,1703.04,763.001,1708.192,721.887,1702.249z M1116.587,1753.955
	c-30.098-11.578-76.166-17.02-120.719-22.281c-37.4-4.419-93.918-11.097-99.346-20.669c-0.432-1.018-0.653-2.389-0.718-4.014
	c73.95-16.858,157.917-44.06,245.603-76.503c35.389-13.094,71.371-27.031,107.552-41.494c71.678-28.652,144.071-59.316,214-89.41
	c1.298-0.559,2.607-1.12,3.903-1.678c16.194-6.974,32.232-13.905,48.112-20.777c6.548-2.834,13.05-5.648,19.535-8.457
	c4.031-1.746,8.091-3.504,12.095-5.239c6.04-2.617,12.063-5.226,18.077-7.83c38.628-16.727,76.608-33.128,112.846-48.472
	c40.614-17.197,78.996-33.039,113.588-46.49c9.654,31.148,16.273,89.315,20.941,154.359c2.52,35.1,4.476,72.158,6.034,108.044
	c1.717,39.543,2.955,77.602,3.943,109.971c0.153,4.996,0.298,9.823,0.44,14.53c0.059,1.978,0.12,3.999,0.178,5.922
	c0.746,24.909,0.732,40.212,0.676,50.422C1603.314,1857.932,1170.846,1774.821,1116.587,1753.955z M1870.647,1788.692
	c-8.358,3.494-17.294,6.644-26.671,9.523c0.066-10.576,0.09-25.099-0.517-45.371c-0.135-4.492-0.274-9.125-0.416-13.827
	c-0.16-5.301-0.327-10.746-0.499-16.286c-0.982-31.759-2.164-67.146-3.74-103.402c-1.357-31.205-3.011-62.996-5.072-93.599
	c-4.868-72.28-12.039-137.783-23.128-172.57c48.848-18.446,88.707-31.196,114.46-34.842c9.183,156.416,5.592,298.167,2.113,376.809
	c-8.883-11.73-20.67-23.221-34.253-34.243l0,0c-0.485,1.185-0.959,2.376-1.449,3.559c-2.199,5.31-4.268,10.734-6.384,16.148
	c-0.06,0.153-0.12,0.303-0.18,0.455l0,0c23.07,19.309,38.502,39.017,38.739,57.163
	C1923.895,1756.903,1906.062,1773.885,1870.647,1788.692z"/>
<path style="fill:#9F9296;" d="M592.744,932.64l-15.566,127.52c39.264-23.149,76.532-45.201,101.976-60.766l13.47-110.307
	c-1.846-2.295-3.642-3.842-5.338-4.44h-0.25c-12.223,0-49.242,21.652-85.013,42.606C598.98,929.048,595.887,930.844,592.744,932.64z
	"/>
<path style="fill:#9F9296;" d="M479.892,1000.042l-15.416,126.422c16.214-9.579,33.377-19.657,50.938-29.984l15.566-127.47
	C515.763,978.14,498.452,988.667,479.892,1000.042z"/>
<path style="fill:#9F9296;" d="M417.879,1038.308c-22.999,14.269-46.448,28.986-69.198,43.305l-15.316,125.724
	c11.924-8.432,25.294-17.412,40.361-26.691c7.982-4.939,17.811-10.876,28.936-17.561L417.879,1038.308z"/>
<path style="fill:#9F9296;" d="M271.999,1130.805l-14.618,120.086c1.447,2.245,2.993,3.991,4.54,5.139
	c4.939-0.599,16.564-8.531,28.887-17.561l15.865-130.064C294.55,1116.187,282.926,1123.67,271.999,1130.805z"/>
</svg>
