<?xml version="1.0" encoding="utf-8"?>
<!-- Generator: Adobe Illustrator 27.5.0, SVG Export Plug-In . SVG Version: 6.00 Build 0)  -->
<svg version="1.1" xmlns="http://www.w3.org/2000/svg" xmlns:xlink="http://www.w3.org/1999/xlink" x="0px" y="0px"
	 viewBox="0 0 500 500" style="enable-background:new 0 0 500 500;" xml:space="preserve">
<g id="BACKGROUND">
</g>
<g id="OBJECTS">
	<g>
		<g>
			<defs>
				<path id="SVGID_1_" d="M49.624,437.631C34,410.498,46.576,378.406,56.269,351.29c14.846-43.095,23.449-88.335,25.457-133.871
					c1.254-28.449,0.108-57.853,10.695-84.289c30.764-73.45,121.611-86.95,192.86-81.29c39.971,1.48,86.71,9.078,109.982,45.172
					c24.872,39.987,6.835,90.039,15.179,133.796c7.908,41.411,38.428,76.742,41.722,118.772
					c3.622,109.288-59.151,120.821-188.676,118.724c-42.253-0.684-111.558-0.435-153.786-2.796
					C86.845,464.229,63.039,461.172,49.624,437.631z"/>
			</defs>
			<use xlink:href="#SVGID_1_"  style="overflow:visible;fill:#FDC7CA;"/>
			<clipPath id="SVGID_00000111149144535768744660000005583603384889419649_">
				<use xlink:href="#SVGID_1_"  style="overflow:visible;"/>
			</clipPath>
			<g style="clip-path:url(#SVGID_00000111149144535768744660000005583603384889419649_);">
				<g>
					<path style="fill:#FFFFFF;" d="M459.915,312.954c0,0-78.291,29.08-202.082,29.08s-211.743-14.4-211.743-14.4
						S23.722,409.82,28.965,430.066C34.207,450.313,91.867,479,228.881,476.19s210.762-19.963,225.092-34.629
						C468.303,426.896,459.915,312.954,459.915,312.954z"/>
					<path style="fill:#A2BED0;" d="M459.915,321.508c0,0-78.291,29.08-202.082,29.08S46.091,336.187,46.091,336.187
						S23.722,418.373,28.965,438.62c5.243,20.247,62.902,48.933,199.917,46.124c137.015-2.809,210.762-19.963,225.092-34.629
						C468.303,435.449,459.915,321.508,459.915,321.508z"/>
				</g>
				<g>
					<path style="fill:#B9CC88;" d="M30.712,435.679c0,0,45.239-41.011,205.066-41.011s219.943,29.638,219.943,29.638
						s5.592,20.93-25.165,34.91c-30.757,13.98-211.234,23.068-255.209,25.165S48.188,480.647,30.712,435.679z"/>
					<g>
						
							<path style="fill:none;stroke:#1D1D1B;stroke-width:0.5;stroke-linecap:round;stroke-linejoin:round;stroke-miterlimit:10;" d="
							M90.46,430.852c3.424-1.242,7.41-0.818,10.495,1.117"/>
						
							<path style="fill:none;stroke:#1D1D1B;stroke-width:0.5;stroke-linecap:round;stroke-linejoin:round;stroke-miterlimit:10;" d="
							M104.478,435.844c4.477-1.857,10.072-0.549,13.261,3.102"/>
						
							<path style="fill:none;stroke:#1D1D1B;stroke-width:0.5;stroke-linecap:round;stroke-linejoin:round;stroke-miterlimit:10;" d="
							M278.376,451.327c3.019-4.193,8.9-6.063,13.786-4.384"/>
						
							<path style="fill:none;stroke:#1D1D1B;stroke-width:0.5;stroke-linecap:round;stroke-linejoin:round;stroke-miterlimit:10;" d="
							M292.522,450.849c2.839-3.168,7.297-4.802,11.511-4.222"/>
						
							<path style="fill:none;stroke:#1D1D1B;stroke-width:0.5;stroke-linecap:round;stroke-linejoin:round;stroke-miterlimit:10;" d="
							M421.468,418.672c-2.369,1.79-3.834,4.721-3.843,7.69c-4.254,0.551-8.474,3.734-10.049,7.724"/>
						
							<path style="fill:none;stroke:#1D1D1B;stroke-width:0.5;stroke-linecap:round;stroke-linejoin:round;stroke-miterlimit:10;" d="
							M233.116,406.202c2.766-0.881,5.991-0.109,8.057,1.93c3.565-2.603,7.779-3.098,11.852-1.397"/>
					</g>
				</g>
			</g>
		</g>
		<path style="fill:#FFF2EE;" d="M356.716,204.193c-3.92-6.693-3.497-15.68,1.034-21.976c4.531-6.295,12.92-9.549,20.511-7.957
			c0.374-4.376,1.185-8.883,3.495-12.619c2.31-3.735,6.484-6.591,10.86-6.224c3.187,0.267,6.068,2.194,8.069,4.688
			c2.001,2.494,3.223,5.521,4.188,8.57c6.776-2.728,16.531,0.695,20.216,7.002s2.034,15.205-3.67,19.769
			c3.858,0.218,7.222,1.731,10.841,3.086c3.619,1.355,6.948,4.031,8.115,7.714c1.769,5.583-2.048,11.708-7.175,14.54
			s-11.212,3.172-17.063,3.449c-2.744,6.296-9.32,10.867-16.147,11.616c-6.827,0.749-13.948-2.396-17.992-7.947
			c-2.774,5.823-10.291,11.221-16.657,12.257c-6.367,1.036-13.18-1.231-17.657-5.875c-4.346,1.545-9.833,3.263-14.435,3.589
			c-1.802,0.128-3.652,0.154-5.368-0.409c-1.716-0.563-3.296-1.81-3.836-3.534c-0.659-2.103,0.378-4.441,1.995-5.938
			c1.617-1.497,3.724-2.329,5.777-3.128c-3.672-6.193-1.258-15.267,4.255-19.896C341.587,200.339,351.252,199.506,356.716,204.193z"
			/>
		<path style="fill:#FFF2EE;" d="M95.946,159.852c0.912-7.86,7.303-14.773,15.067-16.297c7.764-1.524,16.295,2.459,20.11,9.391
			c6.105-5.17,16.809-6.253,23.349-1.646c6.54,4.607,9.382,13.825,6.57,21.315c5.564,0.164,10.531,2.993,12.331,8.261
			c1.8,5.268,0.011,11.564-4.289,15.099c-4.3,3.535-10.824,4.07-15.643,1.285c0.38,5.531-5.009,11.102-9.798,13.896
			c-8.635,5.038-19.866,5.296-28.724,0.661c-5.128,8.733-16.104,14.446-26.23,14.339s-19.997-5.967-24.939-14.806
			c-4.334,0.644-10.026,2.909-14.367,2.315c-4.341-0.594-8.688-2.603-11.113-6.252c-3.333-5.016-2.136-12.185,1.854-16.696
			c3.99-4.511,10.194-6.597,16.215-6.732c-0.148-9.501,4.313-19.697,12.096-25.148S89.307,153.055,95.946,159.852z"/>
		
			<ellipse transform="matrix(0.7071 -0.7071 0.7071 0.7071 10.9296 284.6156)" style="fill:#FFFFFF;" cx="349.026" cy="129.115" rx="25.182" ry="25.182"/>
		<g>
			<ellipse style="fill:#1D1D1B;" cx="269.977" cy="439.61" rx="114.868" ry="9.07"/>
			<g>
				<path style="fill:#E4DCD6;" d="M355.527,409.119c-4.427-6.99-5.825-10.951-6.757-14.447c-0.932-3.495-1.631-5.359-1.631-5.359
					s-5.825,4.893-5.359,8.621c0.466,3.728-6.524,4.194-6.524,4.194l-20.738-4.194l-15.845-71.301c0,0-0.874-26.68-4.165-35.01
					l-17.505-16.718l-28.357-4.987c-3.745,4.855-14.406,18.407-21.041,24.094c-8.155,6.99-47.301,13.748-58.393,16.544
					c-11.092,2.796-10.112,5.126-10.112,5.126s0.233,2.563,1.189,5.359c0.956,2.796-1.655,3.961-1.655,3.961l4.893,15.612
					l-4.558,3.443l28.474,74.382c0,0-13.43,8.388-12.964,9.087s6.058,0.233,8.155,3.728c0,0,18.426,0.233,29.951-4.194
					c0,0,3.37-19.806,1.04-27.262c-2.33-7.456-10.951-20.738-10.951-20.738l-16.311-54.058l55.296,3.961
					c0,0,17.578,24.699,28.558,60.815c10.98,36.117,23.097,33.553,36.146,36.117c13.048,2.563,49.165,1.165,49.165,1.165
					S359.954,416.109,355.527,409.119z"/>
				<g>
					<path style="fill:#EFBF46;" d="M119.034,287.113c0,0,5.155,14.123,5.95,20.647c0.795,6.524,3.126,14.428,7.553,22.243
						c4.427,7.815,44.738,77.718,44.738,77.718s4.649,17.243,10.596,17.709l3.312-4.427l-26.025-76.945l-20.042-23.712
						l-16.774-34.488L119.034,287.113z"/>
					
						<path style="fill:none;stroke:#1D1D1B;stroke-width:0.5;stroke-linecap:round;stroke-linejoin:round;stroke-miterlimit:10;" d="
						M135.113,310.475c0,0,0.124,8.818,6.813,23.79c6.689,14.971,35.349,73.457,35.349,73.457"/>
				</g>
				<path style="fill:#1D1D1B;" d="M158.867,287.255c0,0-4.194-12.538-15.845-17.337c-11.65-4.799-19.806,6.618-17.709,13.609
					c2.097,6.99,7.223,7.922,11.417,17.243s10.226,28.188,17.709,31.456L158.867,287.255z"/>
				<path style="fill:#E4DCD6;" d="M184.265,293.78c8.854-2.563,34.485-8.621,38.447-11.417c2.825-1.994,8.966-10.266,12.258-14.849
					l-7.481-1.316c0,0-63.262,18.728-68.621,21.058c-5.359,2.33-13.048,7.223-11.184,19.107c0.39,2.487,0.914,5.066,1.497,7.59
					c0.126-2.771,0.523-5.637,1.532-7.124C153.042,303.395,175.411,296.343,184.265,293.78z"/>
				<g>
					<g>
						<path style="fill:#EDEDF1;" d="M210.129,17.198c-2.763-0.395-7.965-0.788-12.54,1.461
							c-14.514,41.464-20.206,116.676-21.283,132.733c3.277,0.868,7.875,1.751,12.954,1.738
							c0.721-11.322,6.365-92.835,21.861-135.775C210.786,17.297,210.454,17.244,210.129,17.198z"/>
						<path style="fill:#649DC5;" d="M189.529,29.78c-3.166,13.981-14.836,71.301-16.467,91.107
							c-1.631,19.806-1.786,28.876-1.786,28.876s1.923,0.805,5.031,1.628c1.077-16.057,6.769-91.269,21.283-132.733
							C194.062,20.392,190.907,23.694,189.529,29.78z"/>
						<path style="fill:#E4DCD6;" d="M211.12,17.354c-15.495,42.94-21.139,124.453-21.861,135.775
							c3.523-0.01,7.272-0.448,10.971-1.633c0,0,20.15-119.153,20.617-125.444C221.283,20.178,215.829,18.165,211.12,17.354z"/>
					</g>
					
						<path style="fill:none;stroke:#1D1D1B;stroke-width:0.5;stroke-linecap:round;stroke-linejoin:round;stroke-miterlimit:10;" d="
						M211.525,35.605c-0.311,3.651-0.621,7.301-0.932,10.951"/>
					
						<path style="fill:none;stroke:#1D1D1B;stroke-width:0.5;stroke-linecap:round;stroke-linejoin:round;stroke-miterlimit:10;" d="
						M213.396,41.664c-0.388,3.417-0.777,6.835-1.165,10.252"/>
					
						<path style="fill:none;stroke:#1D1D1B;stroke-width:0.5;stroke-linecap:round;stroke-linejoin:round;stroke-miterlimit:10;" d="
						M178.854,105.747c0.466,4.194,0.932,8.388,1.398,12.582"/>
					
						<path style="fill:none;stroke:#1D1D1B;stroke-width:0.5;stroke-linecap:round;stroke-linejoin:round;stroke-miterlimit:10;" d="
						M177.974,114.828c1.006,4.519,1.63,9.124,1.864,13.748"/>
				</g>
				<path style="fill:#AF7158;" d="M238.682,233.574c0,0-32.048,8.478-37.058,6.73c-5.01-1.748-17.359-46.136-17.359-46.136
					l13.686-6.99c0,0,16.605,34.173,20.216,36.484c3.612,2.312,22.736-0.971,22.736-0.971L238.682,233.574z"/>
				<g>
					
						<path style="fill:#1D1D1B;stroke:#1D1D1B;stroke-width:0.5;stroke-linecap:round;stroke-linejoin:round;stroke-miterlimit:10;" d="
						M283.759,159.158c-0.01-0.036,5.331-7.662,5.331-7.662l-7.912-1.733L283.759,159.158z"/>
					<g>
						<g>
							<path style="fill:#D19478;" d="M245.276,131.805c0,0-1.096,25.081,6.112,27.703c0,0,2.664,1.223,6.334,0.874l1.377,6.99
								l25.186-6.291l-2.621-9.585c0,0,8.913-17.942,5.767-20.473c-3.146-2.532-9.786-9.428-12.757-9.258
								c-2.971,0.171-29.456,6.726-29.456,6.726L245.276,131.805z"/>
							
								<polygon style="fill:#1D1D1B;stroke:#1D1D1B;stroke-width:0.5;stroke-linecap:round;stroke-linejoin:round;stroke-miterlimit:10;" points="
								257.721,160.382 263.838,159.158 258.383,163.744 							"/>
							<g>
								
									<polyline style="fill:none;stroke:#1D1D1B;stroke-width:0.5;stroke-linecap:round;stroke-linejoin:round;stroke-miterlimit:10;" points="
									256.273,134.348 254.535,144.717 258.523,144.717 								"/>
								<path style="fill:#FFFFFF;" d="M259.303,148.729l9.378-4.403C268.68,144.326,267.226,152.608,259.303,148.729z"/>
								<path style="fill:#1D1D1B;" d="M253.214,137.134c0,0.555-0.45,1.005-1.005,1.005c-0.555,0-1.005-0.45-1.005-1.005
									c0-0.555,0.45-1.005,1.005-1.005C252.764,136.129,253.214,136.579,253.214,137.134z"/>
								<path style="fill:#1D1D1B;" d="M265.972,136.522c0,0.555-0.45,1.005-1.005,1.005c-0.555,0-1.005-0.45-1.005-1.005
									c0-0.555,0.45-1.005,1.005-1.005C265.522,135.517,265.972,135.967,265.972,136.522z"/>
								<g>
									<path style="fill:#1D1D1B;" d="M256.115,134.861c-0.445,0.554-2.234-0.835-4.373-0.835c-2.139,0-3.927,1.389-4.373,0.835
										s1.267-3.673,4.373-3.673C254.848,131.188,256.561,134.307,256.115,134.861z"/>
								</g>
								<g>
									<path style="fill:#1D1D1B;" d="M270.826,134.861c-0.445,0.554-2.234-0.835-4.373-0.835s-3.927,1.389-4.373,0.835
										c-0.445-0.554,1.267-3.673,4.373-3.673C269.559,131.188,271.272,134.307,270.826,134.861z"/>
								</g>
							</g>
						</g>
						<path style="fill:#414550;" d="M242.842,123.393c0,0,0.549-1.632,3.345-3.38c0,0,2.215-12.583,13.69-15.029
							c11.475-2.447,21.785-0.35,27.203,3.495c5.417,3.845,12.233,13.282,12.932,22.718c0.699,9.437-2.971,17.825-4.893,20.097
							c-1.922,2.272-17.825-15.406-17.825-15.406s-1.398-1.022,5.942-4.517l-5.592-3.658l-31.107-3.857L242.842,123.393z"/>
						<path style="fill:#649DC5;" d="M240.595,135.217c-2.619,3.143-8.214-5.592-5.942-8.563c2.272-2.971,18.175-5.592,26.214-4.718
							c8.039,0.874,21.32,4.373,23.417,6.556c2.097,2.182,1.748,3.58-1.048,2.881c-2.796-0.699-16.427-4.893-21.32-4.019
							C257.022,128.227,244.964,129.974,240.595,135.217z"/>
						<path style="fill:#649DC5;" d="M277.294,135.889l4.369,15.607c0,0,5.942,2.42,9.262,2.769c3.32,0.35,5.942-2.272,3.146-6.99
							C291.275,142.557,277.294,135.889,277.294,135.889z"/>
						
							<path style="fill:none;stroke:#1D1D1B;stroke-width:0.5;stroke-linecap:round;stroke-linejoin:round;stroke-miterlimit:10;" d="
							M239.628,133.104c0,0,3.714,17.4,3.214,30.64c0,0,2.707,4.216,16.256,2.23"/>
						
							<path style="fill:none;stroke:#1D1D1B;stroke-width:0.5;stroke-linecap:round;stroke-linejoin:round;stroke-miterlimit:10;" d="
							M242.842,163.744c0,0-0.367-5.423,40.634-5.616"/>
						
							<path style="fill:none;stroke:#1D1D1B;stroke-width:0.5;stroke-linecap:round;stroke-linejoin:round;stroke-miterlimit:10;" d="
							M281.663,151.496c0,0-6.466-1.949-6.641-4.221c-0.175-2.272,4.395-3.803,4.395-3.803"/>
						
							<path style="fill:none;stroke:#1D1D1B;stroke-width:0.5;stroke-linecap:round;stroke-linejoin:round;stroke-miterlimit:10;" d="
							M275.631,148.421c0,0-11.056-2.564-22.194-2.182c-11.139,0.381-20.097,3.406-18.706,9.872
							c0.836,3.885,7.949,4.073,8.111,4.194"/>
						
							<path style="fill:none;stroke:#1D1D1B;stroke-width:0.5;stroke-linecap:round;stroke-linejoin:round;stroke-miterlimit:10;" d="
							M277.294,135.889c0,0-14.382-5.061-25.52-4.68c-11.139,0.381-20.097,3.406-18.706,9.872c0.836,3.885,8.579,4.073,8.74,4.194"
							/>
						<g>
							<g>
								<path style="fill:#FFFFFF;" d="M288.042,121.765l-1.681,6.726c1.091,0.37,2.217,0.877,3.325,1.452l1.343-6.812
									C289.283,122.146,288.042,121.765,288.042,121.765z"/>
								<path style="fill:#649DC5;" d="M298.527,130.149c-2.333-3.596-5.312-5.782-7.499-7.017l-1.343,6.812
									c4.587,2.381,8.842,5.946,8.842,5.946V130.149z"/>
							</g>
							<path style="fill:#FFFFFF;" d="M251.517,113.197c0,0,0.699,6.815,5.417,4.718c4.718-2.097,9.961-8.388,9.961-8.388
								s-8.388,5.119-11.01,4.395C253.265,113.197,251.145,111.456,251.517,113.197z"/>
							<g>
								
									<path style="fill:none;stroke:#1D1D1B;stroke-width:0.5;stroke-linecap:round;stroke-linejoin:round;stroke-miterlimit:10;" d="
									M284.372,128.491c0,0,4.229-14.876-2.866-22.774"/>
								
									<path style="fill:none;stroke:#1D1D1B;stroke-width:0.5;stroke-linecap:round;stroke-linejoin:round;stroke-miterlimit:10;" d="
									M246.624,120.887c0.349-0.874,0.699-1.748,1.048-2.621"/>
								
									<path style="fill:none;stroke:#1D1D1B;stroke-width:0.5;stroke-linecap:round;stroke-linejoin:round;stroke-miterlimit:10;" d="
									M248.372,120.188c0.527-0.657,0.891-1.444,1.049-2.272"/>
								
									<path style="fill:none;stroke:#1D1D1B;stroke-width:0.5;stroke-linecap:round;stroke-linejoin:round;stroke-miterlimit:10;" d="
									M297.478,139.411c0.058,1.293-0.316,2.602-1.048,3.67"/>
								
									<path style="fill:none;stroke:#1D1D1B;stroke-width:0.5;stroke-linecap:round;stroke-linejoin:round;stroke-miterlimit:10;" d="
									M295.379,140.11c0.101,0.676-0.092,1.391-0.519,1.924"/>
							</g>
						</g>
						
							<path style="fill:none;stroke:#1D1D1B;stroke-width:0.5;stroke-linecap:round;stroke-linejoin:round;stroke-miterlimit:10;" d="
							M285.622,130.68c0,0,0.056-1.846-2.444-2.966c-2.5-1.12-18.066-6.362-25.457-5.947c-7.391,0.414-12.195,1.423-14.879,1.626"/>
					</g>
				</g>
				<g>
					<path style="fill:#EFBF46;" d="M298.003,217.09c5.788-4.134,9.713-9.921,11.426-12.771c-0.11-4.336-0.488-8.772-1.196-12.953
						c-5.565-2.018-8.57,9.385-8.57,9.385h-6.466c0,0,0.175-8.214,5.068-13.98c3.297-3.886,6.509-3.803,8.258-3.336
						c-2.733-11.332-6.132-21.363-14.986-24.625c-9.961-3.67-23.755-0.282-30.757,4.456c-7.003,4.739-16.602,28.747-16.602,28.747
						c1.049,1.223,2.796,1.573,2.796,1.573l-7.689,36.874c0,0-1.223,6.903-2.621,11.272c-1.398,4.369-7.514,18.087-7.514,18.087
						c-3.408,1.049-3.757,5.505-1.66,6.379c2.097,0.874,9.612,2.796,29.359,7.515c19.748,4.719,37.66,17.913,37.66,17.913
						s1.315-13.298,2.142-18.444c-8.113-4.324-26.433-9.255-26.433-9.255c0.612-4.019,5.592-17.301,5.592-17.301
						c6.933,0.075,21.202,5.997,24.997,7.625c1.244-5.506,2.604-11.458,3.81-16.61c-6.216-2.234-17.885-4.82-17.885-4.82
						C287.168,227.751,290.051,222.77,298.003,217.09z"/>
					<path style="fill:#EFBF46;" d="M308.734,219.302c-2.76,3.644-7.4,6.876-7.4,6.876l5.597,1.845
						c0.226-0.894,0.429-1.674,0.596-2.282C308.007,223.993,308.414,221.788,308.734,219.302z"/>
					<g>
						<path style="fill:#649DC5;" d="M282.974,164.27c0,2.582-3.56,4.675-7.951,4.675c-4.391,0-7.951-2.093-7.951-4.675
							s3.56-4.675,7.951-4.675C279.414,159.595,282.974,161.688,282.974,164.27z"/>
						<path style="fill:#FFFFFF;" d="M254.051,185.11c0,0,2.01-8.388,5.767-13.107c0,0,12.408,0.786,18.087,4.893
							c0,0-4.981,10.485-5.33,12.757L254.051,185.11z"/>
						<path style="fill:#FFFFFF;" d="M270.216,263.925c0,0,18.32,4.931,26.433,9.255c0.077-0.48,0.15-0.895,0.217-1.216
							c0.343-1.639,1.999-9.13,3.939-17.715c-3.796-1.628-18.064-7.549-24.997-7.625
							C275.809,246.624,270.828,259.906,270.216,263.925z"/>
						<path style="fill:#1D1D1B;" d="M298.265,186.77c-4.893,5.767-5.068,13.98-5.068,13.98h6.466c0,0,3.006-11.402,8.57-9.385
							c-0.209-1.235-0.437-2.456-0.706-3.635c-0.33-1.447-0.663-2.881-1.004-4.297C304.774,182.967,301.563,182.884,298.265,186.77z
							"/>
						<path style="fill:#1D1D1B;" d="M308.734,219.302c0.558-4.334,0.832-9.564,0.695-14.983
							c-1.713,2.851-5.638,8.637-11.426,12.771c-7.951,5.68-10.835,10.66-11.272,15.728c0,0,11.669,2.586,17.885,4.82
							c0.895-3.824,1.702-7.191,2.315-9.616l-5.597-1.845C301.334,226.178,305.974,222.946,308.734,219.302z"/>
						<g>
							
								<polygon style="fill:#1D1D1B;stroke:#1D1D1B;stroke-width:0.5;stroke-linecap:round;stroke-linejoin:round;stroke-miterlimit:10;" points="
								275.631,200.343 285.511,184.615 288.102,185.314 							"/>
							
								<path style="fill:none;stroke:#1D1D1B;stroke-width:0.5;stroke-linecap:round;stroke-linejoin:round;stroke-miterlimit:10;" d="
								M229.149,259.818c0,0,14.068,1.34,25.019,4.602"/>
							
								<path style="fill:none;stroke:#1D1D1B;stroke-width:0.5;stroke-linecap:round;stroke-linejoin:round;stroke-miterlimit:10;" d="
								M282.362,246.479c0.155,1.476,0.311,2.951,0.466,4.427"/>
							
								<path style="fill:none;stroke:#1D1D1B;stroke-width:0.5;stroke-linecap:round;stroke-linejoin:round;stroke-miterlimit:10;" d="
								M285.857,247.644c0,1.243,0,2.485,0,3.728"/>
							
								<path style="fill:none;stroke:#1D1D1B;stroke-width:0.5;stroke-linecap:round;stroke-linejoin:round;stroke-miterlimit:10;" d="
								M256.548,236.723c1.631-2.641,3.262-5.281,4.893-7.922"/>
							
								<path style="fill:none;stroke:#1D1D1B;stroke-width:0.5;stroke-linecap:round;stroke-linejoin:round;stroke-miterlimit:10;" d="
								M258.362,176.343c0.932-1.942,1.864-3.883,2.796-5.825"/>
							
								<path style="fill:none;stroke:#1D1D1B;stroke-width:0.5;stroke-linecap:round;stroke-linejoin:round;stroke-miterlimit:10;" d="
								M262.09,174.479c0.466-1.398,0.932-2.796,1.398-4.194"/>
						</g>
					</g>
				</g>
				<g>
					<g>
						<path style="fill:#649DC5;" d="M299.918,399.201c-3.672,2.215-5.914,4.41-5.914,4.41v3.295l18.416,0.816
							c1.419-2.081,3.548-3.77,5.579-5.052C312.922,399.212,305.027,398.935,299.918,399.201z"/>
						<path style="fill:#1D1D1B;" d="M315.216,394.672c-6.07-0.119-11.464,2.215-15.298,4.528
							c5.109-0.266,13.004,0.011,18.081,3.469c2.973-1.876,5.735-2.87,5.735-2.87l2.519,0.509
							C326.253,400.308,327.1,394.905,315.216,394.672z"/>
					</g>
					<g>
						<path style="fill:#1D1D1B;" d="M344.109,404.226l-2.33-6.291c0,0-7.223,2.097-9.553,7.922
							c-0.406,1.015-0.701,1.994-0.919,2.923c3.205,0.181,8.696,0.573,12.331,1.272
							C342.922,406.751,344.109,404.226,344.109,404.226z"/>
						<path style="fill:#649DC5;" d="M347.605,416.411c-2.436-2.149-3.539-4.392-3.966-6.359c-3.636-0.699-9.127-1.09-12.331-1.272
							c-1.035,4.404-0.246,7.631-0.246,7.631s6.757,2.028,10.951,4.358c4.194,2.33,3.961,4.893,7.223,8.388
							c3.262,3.495,11.185,8.155,11.185,8.155L347.605,416.411z"/>
					</g>
				</g>
				<path style="fill:#EDEDF1;" d="M183.217,194.751c0,0,6.524-1.656,10.835-4.194c4.311-2.538,6.291-6.757,6.175-8.155
					c-0.117-1.398-4.427-10.398-4.427-10.398l-8.294-3.699l-4.288,22.835V194.751z"/>
				<path style="fill:none;stroke:#1D1D1B;stroke-width:0.5;stroke-linecap:round;stroke-linejoin:round;stroke-miterlimit:10;" d="
					M185.345,179.803c0,0,8.24-0.606,10.454-7.8"/>
				<g>
					
						<path style="fill:none;stroke:#1D1D1B;stroke-width:0.5;stroke-linecap:round;stroke-linejoin:round;stroke-miterlimit:10;" d="
						M196.498,180.887c0.352,0.849,0.551,1.761,0.582,2.68"/>
					
						<path style="fill:none;stroke:#1D1D1B;stroke-width:0.5;stroke-linecap:round;stroke-linejoin:round;stroke-miterlimit:10;" d="
						M197.531,180.541c0.229,0.933,0.457,1.866,0.686,2.799"/>
				</g>
				<path style="fill:#1D1D1B;" d="M191.724,153.253l-13.366,74.77c0,0-6.213,3.543-9.357-2.049l10.953-76.211l13.445,1.628
					L191.724,153.253z"/>
				
					<polygon style="fill:#1D1D1B;stroke:#1D1D1B;stroke-width:0.5;stroke-linecap:round;stroke-linejoin:round;stroke-miterlimit:10;" points="
					241.658,328.964 262.556,328.964 245.126,334.264 				"/>
				
					<polygon style="fill:#1D1D1B;stroke:#1D1D1B;stroke-width:0.5;stroke-linecap:round;stroke-linejoin:round;stroke-miterlimit:10;" points="
					186.362,325.003 161.197,325.003 187.871,330.003 				"/>
				<path style="fill:none;stroke:#1D1D1B;stroke-width:0.5;stroke-linecap:round;stroke-linejoin:round;stroke-miterlimit:10;" d="
					M260.226,333.857c4.475,0.893,8.812,2.47,12.815,4.66"/>
				<path style="fill:#1D1D1B;" d="M158.634,325.003c0,0,2.611-1.165,1.655-3.961c-0.956-2.796-1.189-5.359-1.189-5.359
					s-0.981-2.33,10.112-5.126c11.092-2.796,50.238-9.553,58.393-16.544c6.635-5.687,17.296-19.239,21.041-24.094l-13.677-2.406
					c-3.292,4.583-9.433,12.855-12.258,14.849c-3.961,2.796-29.592,8.854-38.447,11.417c-8.854,2.563-31.223,9.616-33.553,13.048
					c-1.009,1.487-1.406,4.353-1.532,7.124c2.202,9.533,5.26,18.274,5.26,18.274l1.754,4.582l7.333,3.807L158.634,325.003z"/>
				<path style="fill:#FFFFFF;" d="M135.799,268.775c0,0-6.757,0.772-11.884,3.335c-5.126,2.563-8.388,11.184-3.961,16.311
					c4.427,5.126,9.32,6.757,9.32,6.757s7.456,23.641,16.078,32.325c8.621,8.684,15.845,13.577,18.175,18.937
					c2.33,5.359,22.823,65.01,24.344,70.136c1.52,5.126,0,8.854,0,8.854s3.85,0,4.782-2.796c0.932-2.796-9.786-31.922-14.214-45.437
					c-4.427-13.514-9.087-31.09-12.349-34.951c-3.262-3.861-16.911-19.573-16.911-19.573l-15.943-42.175L135.799,268.775z"/>
				<path style="fill:none;stroke:#1D1D1B;stroke-width:0.5;stroke-linecap:round;stroke-linejoin:round;stroke-miterlimit:10;" d="
					M191.183,414.012c0,0-1.792-7.456,4.732-9.553c6.524-2.097,17.709-4.66,17.709-4.66"/>
				<path style="fill:#FFFFFF;" d="M269.829,388.527c0,0-10.432,3.816-11.765,11.272s3.174,10.418,11.765,10.252
					c8.591-0.166,39.6,0.007,39.6,0.007s1.826,3.256,7.418,3.955c5.592,0.699,18.641,2.399,18.641,2.399s-5.592-6.36-8.854-7.292
					c-3.262-0.932-8.621-1.398-8.621-1.398l-0.485-0.547c-2.633-2.967-6.476-4.561-10.436-4.322
					c-7.489,0.451-19.305,1.141-21.58,1.141c-3.382,0-9.393,1.496-9.393,1.496l-8.312-8.459L269.829,388.527z"/>
				<g>
					<path style="fill:#EFBF46;" d="M258.064,405.624c0,0,4.508,17.476,9.743,21.437c5.235,3.961,11.06,5.055,11.06,5.055
						s6.741,4.77,15.137,5.45c8.397,0.679,56.021,0.253,59.821,0c3.799-0.253,8.309-2.709,8.309-2.709l-21.703-23.463l-43.77-4.488
						l-30.027,0.816L258.064,405.624z"/>
					
						<path style="fill:none;stroke:#1D1D1B;stroke-width:0.5;stroke-linecap:round;stroke-linejoin:round;stroke-miterlimit:10;" d="
						M262.556,418.84c0,0,18.811,3.167,34.104,4.412c15.293,1.245,46.724,11.002,60.834,6.59"/>
				</g>
				<g>
					<path style="fill:#1D1D1B;" d="M185.43,433.119c7.456-0.233,15.612-0.695,20.272-1.862c4.229-1.059,15.547-7.66,23.179-8.005
						c-0.528-0.939-1.043-1.551-1.043-1.551s-3.029-7.689-5.359-12.116c-2.33-4.427-3.029-9.553-5.359-9.786
						c-2.33-0.233-6.757-0.699-7.689,5.592c-0.932,6.291-0.233,19.34,0.466,20.039c0.699,0.699,1.188,2.165,1.188,2.165
						l-27.751-0.534l1.285-6.831l-2.765-0.705c0,0-11.104,3.504-16.187,6.145l0.657,5.587
						C166.324,431.257,177.974,433.352,185.43,433.119z"/>
					<path style="fill:#EFBF46;" d="M205.702,431.257c-4.66,1.167-12.816,1.629-20.272,1.862
						c-7.456,0.233-19.107-1.862-19.107-1.862l-0.657-5.587c-0.972,0.505-1.727,0.979-2.139,1.391
						c-2.563,2.563-1.165,6.058,2.33,7.689c3.495,1.631,11.185,3.961,18.641,3.495s23.534-4.893,23.534-4.893s18.175,0,20.971-3.495
						c1.788-2.235,0.814-4.94-0.122-6.605C221.249,423.597,209.931,430.198,205.702,431.257z"/>
				</g>
				<path style="fill:#1D1D1B;" d="M197.274,347.102c-0.739-5.163-4.563-12.838-4.563-12.838l-2.974,1.923
					c0,0,0.352,1.166-6.171,3.262c-1.269,0.408-2.706,0.762-4.196,1.069c1.551,2.86,4.211,8.541,5.234,15.328
					C191.106,351.887,197.274,347.102,197.274,347.102z"/>
				<path style="fill:#649DC5;" d="M179.37,340.519c-6.173,1.272-13.28,1.727-13.28,1.727l7.271,18.698
					c2.903-0.428,7.139-2.599,11.242-5.097C183.581,349.059,180.921,343.378,179.37,340.519z"/>
				<path style="fill:#649DC5;" d="M181.586,386.489l4.575,13.31c3.678-0.319,7.256-1.397,10.49-2.769l-3.107-13.252
					C187.285,385.826,181.586,386.489,181.586,386.489z"/>
				<path style="fill:#1D1D1B;" d="M206.634,376.265c-3.139,3.544-8.28,5.938-13.091,7.513l3.107,13.252
					c8.035-3.41,13.944-8.648,13.944-8.648C211.76,380.925,206.634,376.265,206.634,376.265z"/>
				<path style="fill:#1D1D1B;" d="M269.829,388.527c0,0-8.671,4.049-7.273,9.408c1.398,5.359,5.357,7.107,6.705,7.689l6.857-0.135
					L269.829,388.527z"/>
				<path style="fill:none;stroke:#1D1D1B;stroke-width:0.5;stroke-linecap:round;stroke-linejoin:round;stroke-miterlimit:10;" d="
					M345.597,403.423c0,0,4.615,2.668,4.476,6.629c-0.138,3.961-2.468,6.359-2.468,6.359"/>
				<path style="fill:#EFBF46;" d="M360.42,416.411c-0.699-8.086-3.728-12.651-7.922-21.743c-2.467-5.349-1.707-9.72-0.664-12.425
					c-4.284,2.148-4.695,7.07-4.695,7.07l3.728,17.592c0,0,1.398,13.165,2.267,18.524c0.416,2.565,3.439,7.479,6.726,12.136
					C359.245,430.466,360.908,422.06,360.42,416.411z"/>
				<path style="fill:#1D1D1B;" d="M389.313,421.003c-2.33-5.126-8.621-13.748-8.854-14.097
					c-0.233-0.349-7.689-23.883-11.185-26.447c-3.495-2.563-11.417-0.466-16.544,1.398c-0.317,0.115-0.615,0.245-0.897,0.387
					c-1.043,2.704-1.803,7.076,0.664,12.425c4.194,9.092,7.223,13.657,7.922,21.743c0.488,5.649-1.175,14.055-0.56,21.155
					c3.58,5.072,7.474,9.839,8.66,10.932c2.275,2.097,11.473,1.864,14.735,0.932C386.517,448.498,391.643,426.129,389.313,421.003z"
					/>
				<path style="fill:#649DC5;" d="M374.634,450.115c0,0-11.701-11.167-14.122-18.858c-2.421-7.691-1.489-14.721,1.307-16.566
					c2.796-1.844,9.32,6.544,12.816,5.845c3.495-0.699,4.4-7.438,6.291-8.854c1.891-1.416,7.922,2.563,10.252,7.922
					c2.33,5.359,2.563,26.536,0,30.51C388.614,454.09,377.843,453.387,374.634,450.115z"/>
				<path style="fill:none;stroke:#1D1D1B;stroke-width:0.5;stroke-linecap:round;stroke-linejoin:round;stroke-miterlimit:10;" d="
					M362.985,414.44c0,0-3.497,6.097-1.167,12.854c2.33,6.757,14.87,25.39,19.487,25.394"/>
				<g>
					<path style="fill:#D19478;" d="M197.78,228.023c0,0-2.214-6.01,0.816-9.738c3.029-3.728,5.942-3.961,5.942-3.961
						s29.476-6.291,32.039-7.107s9.786-14.738,9.786-14.738s5.359-1.573,15.262,1.107c9.903,2.68,12.932,7.165,12.932,7.165
						s-18.408,32.214-28.078,33.029C236.809,234.595,197.78,228.023,197.78,228.023z"/>
					
						<path style="fill:#1D1D1B;stroke:#1D1D1B;stroke-width:0.5;stroke-linecap:round;stroke-linejoin:round;stroke-miterlimit:10;" d="
						M246.362,192.479c0,0,16.009,0.064,26.82,10.605l1.374-2.333C274.556,200.751,267.216,191.488,246.362,192.479z"/>
					<g>
						
							<polygon style="fill:#1D1D1B;stroke:#1D1D1B;stroke-width:0.5;stroke-linecap:round;stroke-linejoin:round;stroke-miterlimit:10;" points="
							207.33,213.725 204.616,229.13 198.913,228.211 						"/>
						<g>
							<path style="fill:#EDEDF1;" d="M207.33,213.725c0,0,0.702-2.897-2.21-3.13s-8.12-2.913-8.12-2.913
								s-14.831,13.086-14.249,15.98c0.583,2.894,4.427,0.778,4.427,0.778s6.524,2.951,8.505,3.582
								c1.981,0.631,1.981,1.563,4.544-0.534C202.789,225.391,207.33,213.725,207.33,213.725z"/>
							<path style="fill:#EDEDF1;" d="M177.687,189.854c1.641-0.93,3.303-1.346,4.609-1.53c-4.493-3.698-8.749-7.495-8.749-7.495
								s-10.02-4.485-12.117-2.388c-2.097,2.097-0.816,5.01,0,5.825c0.815,0.816,1.748,1.515,1.748,1.515s-0.031,0.018-0.076,0.044
								l4.153,2.362c-2.447,2.056-2.796,7.031-2.796,7.031c-3.029,4.194,0,7.084,0,7.084c-2.167,1.581-3.18,3.772-3.656,5.435
								c2.305,1.966,5.585,4.45,8.408,6.539C170.634,208.255,174.824,191.476,177.687,189.854z"/>
							<path style="fill:#EFBF46;" d="M164.459,202.301c0,0-3.029-2.89,0-7.084c0,0,0.35-4.975,2.796-7.031l-4.153-2.362
								c-0.436,0.257-2.791,1.741-2.813,3.83c-0.024,2.301,1.49,3.35,1.49,3.35s-3.146,2.33-2.68,4.078
								c0.466,1.747,1.398,2.925,1.398,2.925s-4.078,2.434-2.447,4.998c0.388,0.609,1.404,1.583,2.752,2.733
								C161.28,206.072,162.292,203.882,164.459,202.301z"/>
							<path style="fill:#EFBF46;" d="M189.275,193.702c-0.547-0.372-1.143-0.8-1.77-1.266c-1.376,0.122-3.375,0.504-5.337,1.616
								c-2.748,1.557-6.718,17.079-8.291,23.647c0.296,0.218,0.543,0.401,0.718,0.535c2.214,1.682,8.971,4.479,12.699,3.896
								c2.442-0.382,10.712-12.116,10.657-13.98C197.896,206.285,194.751,197.43,189.275,193.702z"/>
							<path style="fill:#649DC5;" d="M182.168,194.052c1.962-1.112,3.961-1.494,5.337-1.616c-1.606-1.193-3.425-2.644-5.209-4.112
								c-1.307,0.184-2.968,0.6-4.609,1.53c-2.863,1.622-7.053,18.402-8.475,24.421c1.925,1.425,3.63,2.661,4.665,3.424
								C175.45,211.13,179.42,195.609,182.168,194.052z"/>
							<path style="fill:#EFBF46;" d="M169.586,186.246c0,0-2.097-0.35-4.078-2.214c-1.98-1.864,0.651-3.858,2.68-4.194
								c2.029-0.336,5.01,1.864,5.01,1.864L169.586,186.246z"/>
							<g>
								
									<line style="fill:none;stroke:#1D1D1B;stroke-width:0.5;stroke-linecap:round;stroke-linejoin:round;stroke-miterlimit:10;" x1="160.498" y1="200.005" x2="169.212" y2="204.887"/>
								
									<line style="fill:none;stroke:#1D1D1B;stroke-width:0.5;stroke-linecap:round;stroke-linejoin:round;stroke-miterlimit:10;" x1="161.78" y1="193.003" x2="170.751" y2="197.744"/>
								
									<line style="fill:none;stroke:#1D1D1B;stroke-width:0.5;stroke-linecap:round;stroke-linejoin:round;stroke-miterlimit:10;" x1="167.255" y1="188.185" x2="172.498" y2="190.556"/>
								
									<path style="fill:none;stroke:#1D1D1B;stroke-width:0.5;stroke-linecap:round;stroke-linejoin:round;stroke-miterlimit:10;" d="
									M189.657,198.701c0.357,1.124,0.714,2.248,1.071,3.372"/>
								
									<path style="fill:none;stroke:#1D1D1B;stroke-width:0.5;stroke-linecap:round;stroke-linejoin:round;stroke-miterlimit:10;" d="
									M188.11,200.343c0.35,0.932,0.699,1.864,1.049,2.796"/>
							</g>
						</g>
					</g>
				</g>
				<g>
					<g>
						<path style="fill:#EDEDF1;" d="M181.003,160.305c1.631-0.31,2.68-5.399,2.214-7.052c-0.427-1.514-10.422-6.679-15.638-6.083
							c0.395,0.656,0.75,1.361,0.842,1.911c0.233,1.398-2.155,6.757-2.155,6.757l-2.058,8.432h1.197l-1.771,6.83l1.221,0.233
							l-2.06,7.359c3.286,0.585,11.637,1.926,15.063,1.111c4.311-1.025,2.097-5.441,2.097-5.441c3.961-2.097,1.165-6.99,1.165-6.99
							C185.314,163.294,181.003,160.305,181.003,160.305z"/>
						<path style="fill:#EFBF46;" d="M163.633,171.1l1.771-6.83h-1.197l2.058-8.432c0,0,2.388-5.359,2.155-6.757
							c-0.092-0.551-0.447-1.256-0.842-1.911c-0.481,0.055-0.925,0.155-1.313,0.315c-4.602,1.898-2.854,8.587-2.854,8.587
							c-5.01,2.447-1.98,7.673-1.98,7.673c-3.845,4.061-1.141,6.774-1.141,6.774s-2.005,1.282-1.888,4.078
							c0.116,2.796,3.029,3.845,3.029,3.845s0.516,0.102,1.365,0.253l2.06-7.359L163.633,171.1z"/>
					</g>
					
						<line style="fill:none;stroke:#1D1D1B;stroke-width:0.5;stroke-linecap:round;stroke-linejoin:round;stroke-miterlimit:10;" x1="160.289" y1="170.518" x2="179.954" y2="174.362"/>
					
						<line style="fill:none;stroke:#1D1D1B;stroke-width:0.5;stroke-linecap:round;stroke-linejoin:round;stroke-miterlimit:10;" x1="161.43" y1="163.744" x2="181.12" y2="167.372"/>
					
						<line style="fill:none;stroke:#1D1D1B;stroke-width:0.5;stroke-linecap:round;stroke-linejoin:round;stroke-miterlimit:10;" x1="163.411" y1="156.071" x2="181.003" y2="160.305"/>
				</g>
				<g>
					<path style="fill:#EDEDF1;" d="M194.518,166.506c3.248,0.037,6.301,1.097,7.7,1.66c0.202-0.578,0.316-1.148,0.338-1.66
						c0.117-2.73-6.408-7.522-10.019-8.318c-3.612-0.796-7.922,0.679-8.272,4.743c-0.35,4.064,3.24,5.373,3.24,5.373
						s0.726,0.518,2.024,1.236C190.112,168.342,191.504,166.471,194.518,166.506z"/>
					<path style="fill:#EFBF46;" d="M194.518,166.506c-3.014-0.035-4.406,1.836-4.989,3.034c1.313,0.726,3.212,1.657,5.54,2.463
						c3.76,1.301,6.275-1.337,7.149-3.837C200.818,167.603,197.765,166.543,194.518,166.506z"/>
				</g>
				<path style="fill:none;stroke:#1D1D1B;stroke-width:0.5;stroke-linecap:round;stroke-linejoin:round;stroke-miterlimit:10;" d="
					M220.382,429.158c0.621-0.932,1.243-1.864,1.864-2.796"/>
				<path style="fill:none;stroke:#1D1D1B;stroke-width:0.5;stroke-linecap:round;stroke-linejoin:round;stroke-miterlimit:10;" d="
					M223.87,428.212c0.933-0.435,1.649-1.311,1.889-2.312"/>
				<path style="fill:none;stroke:#1D1D1B;stroke-width:0.5;stroke-linecap:round;stroke-linejoin:round;stroke-miterlimit:10;" d="
					M280.964,428.925c1.54,1.712,3.466,3.076,5.592,3.961"/>
				<path style="fill:none;stroke:#1D1D1B;stroke-width:0.5;stroke-linecap:round;stroke-linejoin:round;stroke-miterlimit:10;" d="
					M286.116,430.54c1.077,1.687,3.104,2.721,5.102,2.602"/>
				<path style="fill:none;stroke:#1D1D1B;stroke-width:0.5;stroke-linecap:round;stroke-linejoin:round;stroke-miterlimit:10;" d="
					M352.739,424.96c1.575,3.63,3.706,7.019,6.296,10.012"/>
				<path style="fill:none;stroke:#1D1D1B;stroke-width:0.5;stroke-linecap:round;stroke-linejoin:round;stroke-miterlimit:10;" d="
					M356.925,408.42c0.155,2.408,0.311,4.815,0.466,7.223"/>
				<circle style="fill:#EFBF46;" cx="367.177" cy="425.43" r="2.528"/>
				<circle style="fill:#EFBF46;" cx="386.361" cy="421.778" r="2.528"/>
				<circle style="fill:#EFBF46;" cx="373.689" cy="436.092" r="2.528"/>
				<circle style="fill:#EFBF46;" cx="387.373" cy="433.151" r="2.528"/>
				<circle style="fill:#EFBF46;" cx="384.845" cy="444.524" r="2.528"/>
			</g>
		</g>
	</g>
</g>
</svg>
