<?xml version='1.0' encoding='utf-8'?>
<svg xmlns:ns0="http://www.w3.org/2000/svg" viewBox="12.649000000000001 317.176 106.503 133.084" xmlns="http://www.w3.org/2000/svg"><ns0:g>
	<ns0:g>
		<ns0:path style="fill:#95A5A6;" d="M53.595,354.506c-0.805,0.465-1.611,0.929-2.416,1.395c-10.202,5.891-18.533,20.114-18.678,31.985    c-0.006,1.08-0.01,1.688-0.016,2.769C32.649,377.238,42.065,361.162,53.595,354.506z" />
		<ns0:path style="fill:#BDC3C7;" d="M70.148,353.879l-1.471-0.854c-3.765-2.189-8.951-1.939-14.705,1.268    c-11.701,6.521-21.321,22.8-21.487,36.362c-0.084,6.893,2.289,11.757,6.18,14.018l1.471,0.855    c-3.891-2.262-6.265-7.126-6.18-14.019c0.166-13.561,9.786-29.842,21.487-36.362C61.197,351.94,66.383,351.69,70.148,353.879z" />
		<ns0:path style="fill:#E67E22;" d="M57.008,406.34c-12.089,6.737-21.75,0.839-21.579-13.174c0.171-14.013,10.111-30.833,22.2-37.57    c12.089-6.736,21.75-0.839,21.579,13.174C79.037,382.782,69.098,399.603,57.008,406.34z M78.505,369.162    c0.166-13.563-9.185-19.271-20.885-12.751c-11.701,6.521-21.321,22.801-21.487,36.363c-0.166,13.561,9.185,19.27,20.885,12.75    C68.719,399.004,78.339,382.724,78.505,369.162L78.505,369.162z" />
		<ns0:path style="fill:#E6EAEB;" d="M76.77,372.524c0.136-11.104-7.52-15.777-17.1-10.439c-9.58,5.339-17.456,18.668-17.592,29.772    c-0.136,11.104,7.52,15.777,17.1,10.44C68.757,396.958,76.633,383.629,76.77,372.524z" />
		<ns0:g>
			<ns0:g>
				<ns0:path style="fill:#2C3E50;" d="M69.684,390.297c-0.305,0.469-0.756,0.689-1.015,0.492l0,0c-0.254-0.205-0.218-0.747,0.081-1.219      l0,0c0.305-0.469,0.756-0.689,1.015-0.492l0,0c0.238,0.196,0.223,0.691-0.041,1.148l0,0      C69.709,390.253,69.699,390.271,69.684,390.297z M72.043,384.65c-0.334-0.041-0.452-0.483-0.244-0.996l0,0      c0.198-0.507,0.645-0.894,0.979-0.853l0,0c0.345,0.035,0.457,0.475,0.254,0.99l0,0c-0.031,0.077-0.066,0.149-0.112,0.229l0,0      C72.698,384.407,72.337,384.68,72.043,384.65z M65.228,395.94L65.228,395.94L65.228,395.94      c-0.371,0.383-0.787,0.413-0.929,0.073l0,0c-0.147-0.344,0.035-0.93,0.406-1.314l0,0c0.37-0.384,0.786-0.413,0.928-0.061l0,0      c0.106,0.25,0.036,0.642-0.157,0.977l0,0C65.405,395.737,65.324,395.844,65.228,395.94z M74.063,378.258      c-0.385,0.129-0.634-0.167-0.558-0.662l0,0c0.081-0.492,0.462-0.999,0.853-1.137l0,0c0.385-0.129,0.634,0.166,0.558,0.662l0,0      l0,0l0,0c-0.03,0.182-0.101,0.363-0.198,0.529l0,0C74.55,377.941,74.312,378.167,74.063,378.258z M60.147,400.109      c-0.391,0.243-0.726,0.085-0.746-0.36l0,0c-0.015-0.454,0.294-1.014,0.69-1.266l0,0c0.391-0.243,0.726-0.085,0.746,0.36l0,0      c0.01,0.24-0.071,0.51-0.208,0.747l0,0C60.508,399.802,60.335,399.995,60.147,400.109z M74.499,372.298      c-0.396,0.287-0.746,0.167-0.802-0.252l0,0c-0.051-0.428,0.234-1.002,0.629-1.289l0,0c0.391-0.278,0.746-0.167,0.797,0.261l0,0      l0,0l0,0c0.025,0.249-0.056,0.542-0.208,0.806l0,0C74.809,372.008,74.666,372.184,74.499,372.298z M55.001,402.353      c-0.38,0.085-0.594-0.249-0.487-0.75l0,0c0.117-0.507,0.513-0.981,0.898-1.075l0,0c0.375-0.088,0.594,0.249,0.482,0.747l0,0      c-0.035,0.155-0.101,0.316-0.183,0.457l0,0C55.534,402.04,55.26,402.292,55.001,402.353z M73.317,367.419      c-0.361,0.414-0.792,0.492-0.964,0.183l0,0c-0.172-0.312-0.026-0.894,0.33-1.298l0,0c0.361-0.414,0.787-0.484,0.964-0.183l0,0      c0.137,0.256,0.071,0.674-0.137,1.035l0,0C73.454,367.252,73.388,367.344,73.317,367.419z M50.337,402.427      c-0.325-0.082-0.396-0.557-0.167-1.069l0,0c0.229-0.501,0.68-0.85,1.005-0.768l-0.005-0.003      c0.325,0.082,0.396,0.557,0.167,1.069l0,0c-0.021,0.047-0.051,0.1-0.076,0.143l0,0      C51.018,402.222,50.627,402.488,50.337,402.427z M69.612,364.753c-0.005-0.003-0.015-0.009-0.02-0.012l0,0      c-0.01-0.006-0.016-0.009-0.021-0.012l0,0c-0.279-0.161-0.284-0.68-0.01-1.166l0,0c0.284-0.492,0.741-0.756,1.02-0.595l0,0      c0.01,0.006,0.016,0.009,0.025,0.015l0,0c0.005,0.003,0.015,0.009,0.021,0.012l0,0c0.279,0.161,0.279,0.689,0,1.172l0,0      C70.348,364.65,69.891,364.914,69.612,364.753z M47.668,399.925c-0.325,0.457-0.776,0.63-1.005,0.393l0,0      c-0.229-0.237-0.162-0.797,0.163-1.254l0,0c0.32-0.448,0.771-0.621,1-0.384l0,0c0.208,0.214,0.172,0.685-0.071,1.106l0,0      C47.724,399.84,47.699,399.884,47.668,399.925z M65.725,363.798L65.725,363.798c-0.355,0.006-0.508-0.398-0.335-0.908l0,0      c0.172-0.51,0.604-0.94,0.964-0.943l0,0l0,0l0,0c0.355-0.006,0.502,0.407,0.33,0.917l0,0c-0.036,0.108-0.086,0.208-0.142,0.305      l0,0C66.334,363.528,66.003,363.795,65.725,363.798z M45.268,396.3c-0.38,0.354-0.782,0.335-0.899-0.038l0,0      c0,0,0,0,0.005,0.003l0,0c-0.117-0.372,0.102-0.961,0.482-1.315l0,0c0.375-0.346,0.777-0.325,0.888,0.044l0.005,0.003      c0.076,0.255,0,0.609-0.183,0.926l0,0C45.486,396.064,45.384,396.191,45.268,396.3z M61.203,364.879      c-0.401,0.179-0.68-0.076-0.634-0.554l0,0c0.051-0.486,0.411-1.017,0.802-1.189l0,0l0,0l0,0c0.396-0.17,0.675,0.085,0.629,0.563      l0,0c-0.021,0.199-0.096,0.413-0.208,0.606l0,0C61.645,364.56,61.426,364.785,61.203,364.879z M44.415,391.155      c-0.401,0.214-0.71,0.012-0.695-0.46l0,0l0,0l0,0c0.021-0.469,0.35-1.017,0.746-1.222l0,0c0.396-0.217,0.705-0.004,0.69,0.456      l0,0c-0.005,0.221-0.086,0.467-0.208,0.678l0,0C44.811,390.845,44.618,391.05,44.415,391.155z M56.483,367.85      c-0.386,0.316-0.766,0.249-0.847-0.149l0,0c-0.082-0.398,0.162-0.984,0.558-1.307l0,0c0,0,0,0-0.005-0.003l0,0      c0.385-0.316,0.766-0.249,0.853,0.152l0,0c0.051,0.252-0.031,0.58-0.198,0.87l0,0C56.747,367.58,56.625,367.732,56.483,367.85z       M45.181,385.058c-0.375,0.053-0.558-0.322-0.411-0.835l0,0l0,0l0,0c0.142-0.504,0.559-0.955,0.929-1.011l0,0      c0.371-0.044,0.553,0.331,0.411,0.835l0,0c-0.035,0.132-0.096,0.261-0.167,0.384l0,0      C45.75,384.765,45.45,385.025,45.181,385.058z M52.098,372.374c-0.335,0.428-0.781,0.557-0.984,0.287l0,0      c-0.203-0.281-0.091-0.85,0.244-1.277l0,0l0,0l0,0c0.34-0.436,0.787-0.565,0.984-0.287l0,0c0.178,0.23,0.122,0.68-0.106,1.075      l0,0C52.195,372.242,52.149,372.31,52.098,372.374z M47.5,378.661c-0.305-0.117-0.34-0.618-0.086-1.116l0,0      c0.254-0.498,0.705-0.8,1.01-0.683l0,0c0.304,0.117,0.345,0.621,0.086,1.116l0,0c-0.01,0.029-0.025,0.056-0.035,0.073l0,0      C48.211,378.509,47.785,378.778,47.5,378.661z" />
				<ns0:path style="fill:#F1C40F;" d="M69.419,390.145c-0.122,0.186-0.343,0.293-0.468,0.199c-0.112-0.091-0.104-0.336,0.023-0.556      c0.163-0.251,0.383-0.359,0.508-0.265c0.112,0.092,0.105,0.331-0.022,0.55L69.419,390.145z M72.656,383.868      c-0.11,0.191-0.285,0.314-0.424,0.301c-0.075-0.01-0.131-0.065-0.153-0.157c-0.021-0.089-0.007-0.201,0.039-0.315      c0.019-0.048,0.036-0.083,0.055-0.117c0.109-0.188,0.282-0.313,0.412-0.296c0.085,0.009,0.142,0.061,0.164,0.15      c0.023,0.089,0.009,0.205-0.039,0.326C72.697,383.793,72.681,383.826,72.656,383.868z M65.211,395.463      c-0.032,0.056-0.067,0.101-0.113,0.147c-0.095,0.098-0.189,0.15-0.273,0.156c-0.082,0.007-0.146-0.033-0.179-0.11      c-0.051-0.12-0.021-0.305,0.076-0.474c0.034-0.059,0.074-0.112,0.12-0.16c0.086-0.088,0.178-0.14,0.261-0.146      c0.083-0.005,0.147,0.036,0.18,0.117C65.335,395.113,65.305,395.3,65.211,395.463z M74.453,377.498      c-0.084,0.146-0.199,0.251-0.323,0.296c-0.176,0.059-0.296-0.087-0.259-0.327c0.013-0.076,0.044-0.162,0.091-0.243      c0.084-0.147,0.205-0.259,0.323-0.3c0.179-0.06,0.299,0.086,0.263,0.326C74.536,377.325,74.503,377.411,74.453,377.498z       M60.365,399.439c-0.06,0.104-0.144,0.193-0.229,0.245c-0.192,0.12-0.352,0.042-0.362-0.172      c-0.004-0.106,0.033-0.234,0.102-0.353c0.062-0.107,0.146-0.198,0.235-0.255c0.184-0.114,0.343-0.036,0.353,0.178      C60.469,399.191,60.434,399.319,60.365,399.439z M74.651,371.671c-0.04,0.068-0.104,0.161-0.184,0.216      c-0.203,0.147-0.372,0.092-0.399-0.115c-0.013-0.107,0.023-0.246,0.098-0.375c0.056-0.098,0.129-0.181,0.209-0.239      c0.186-0.132,0.354-0.077,0.378,0.129C74.764,371.397,74.728,371.536,74.651,371.671z M55.448,401.58      c-0.089,0.153-0.222,0.27-0.341,0.299c-0.181,0.04-0.285-0.12-0.233-0.366c0.015-0.064,0.044-0.138,0.085-0.208      c0.091-0.157,0.221-0.27,0.35-0.302c0.084-0.02,0.156,0.007,0.2,0.075c0.044,0.068,0.054,0.167,0.028,0.281      C55.521,401.429,55.488,401.51,55.448,401.58z M73.245,367.003c-0.023,0.04-0.049,0.077-0.073,0.102      c-0.106,0.12-0.201,0.184-0.29,0.199c-0.085,0.016-0.154-0.015-0.193-0.085c-0.065-0.116-0.038-0.316,0.065-0.495      c0.026-0.046,0.057-0.088,0.091-0.127c0.171-0.196,0.381-0.235,0.468-0.088C73.374,366.622,73.349,366.824,73.245,367.003z       M50.997,401.647c-0.117,0.202-0.309,0.332-0.449,0.303c-0.15-0.039-0.185-0.27-0.071-0.523      c0.002-0.004,0.004-0.008,0.007-0.012c0.149-0.259,0.337-0.382,0.473-0.348l0-0.001c0.152,0.044,0.185,0.272,0.072,0.522      L50.997,401.647z M70.363,364.015c-0.132,0.229-0.354,0.357-0.486,0.281c-0.175-0.102-0.177-0.354-0.046-0.588      c0.132-0.229,0.352-0.358,0.486-0.281C70.497,363.531,70.497,363.783,70.363,364.015z M47.457,399.69      c-0.083,0.116-0.175,0.194-0.267,0.229c-0.091,0.036-0.17,0.025-0.223-0.029c-0.099-0.102-0.084-0.333,0.034-0.536      c0.115-0.168,0.206-0.244,0.297-0.279c0.092-0.035,0.171-0.024,0.224,0.03c0.1,0.103,0.086,0.325-0.032,0.528L47.457,399.69z       M66.277,363.016c-0.101,0.175-0.261,0.299-0.388,0.3c-0.172,0.003-0.245-0.191-0.163-0.432c0.017-0.051,0.04-0.101,0.067-0.148      c0.105-0.183,0.264-0.306,0.395-0.307c0.084-0.001,0.145,0.043,0.175,0.126c0.03,0.083,0.025,0.195-0.016,0.314      C66.334,362.911,66.313,362.954,66.277,363.016z M45.303,395.77c-0.039,0.067-0.087,0.128-0.144,0.18      c-0.089,0.083-0.182,0.126-0.263,0.122c-0.08-0.004-0.139-0.052-0.167-0.136l0.003-0.004c-0.037-0.118-0.003-0.289,0.087-0.446      c0.042-0.071,0.09-0.134,0.146-0.188c0.174-0.158,0.368-0.15,0.42,0.025l0.015,0.05      C45.417,395.486,45.381,395.634,45.303,395.77z M61.527,364.152c-0.073,0.126-0.178,0.229-0.273,0.27      c-0.102,0.045-0.185,0.04-0.243-0.011c-0.057-0.05-0.082-0.139-0.071-0.25c0.012-0.117,0.061-0.222,0.099-0.289      c0.077-0.133,0.182-0.235,0.288-0.282c0.186-0.081,0.323,0.041,0.301,0.272C61.619,363.952,61.583,364.056,61.527,364.152z       M44.684,390.455c-0.068,0.117-0.159,0.211-0.25,0.259c-0.199,0.105-0.347,0.009-0.34-0.219      c0.005-0.099,0.041-0.215,0.103-0.322c0.068-0.117,0.157-0.209,0.251-0.258c0.097-0.054,0.18-0.058,0.242-0.017      c0.064,0.041,0.098,0.124,0.094,0.23C44.78,390.232,44.744,390.35,44.684,390.455z M56.579,367.261      c-0.05,0.087-0.108,0.158-0.174,0.212c-0.183,0.15-0.365,0.118-0.404-0.073c-0.024-0.118,0.011-0.274,0.094-0.419      c0.047-0.082,0.107-0.153,0.175-0.208l0.059-0.048c0.162-0.098,0.311-0.05,0.349,0.122      C56.699,366.959,56.663,367.115,56.579,367.261z M45.679,384.278c-0.095,0.164-0.239,0.284-0.36,0.299      c-0.093,0.013-0.16-0.021-0.197-0.097c-0.037-0.074-0.038-0.181-0.004-0.299c0.019-0.064,0.043-0.123,0.076-0.181      c0.098-0.169,0.246-0.29,0.376-0.31c0.17-0.021,0.26,0.159,0.192,0.401C45.746,384.147,45.719,384.207,45.679,384.278z       M51.971,372.02c-0.019,0.032-0.039,0.063-0.063,0.093c-0.079,0.102-0.17,0.169-0.261,0.195      c-0.091,0.026-0.167,0.007-0.213-0.055c-0.079-0.109-0.059-0.323,0.053-0.516c0.019-0.034,0.041-0.066,0.064-0.096      c0.081-0.104,0.174-0.174,0.264-0.199c0.088-0.025,0.161-0.005,0.205,0.058C52.105,371.612,52.083,371.824,51.971,372.02z       M48.194,377.927c-0.127,0.203-0.321,0.319-0.45,0.267c-0.074-0.028-0.116-0.098-0.123-0.198      c-0.008-0.102,0.021-0.222,0.081-0.339c0.001-0.002,0.001-0.003,0.002-0.004c0.145-0.252,0.343-0.373,0.481-0.319      c0.071,0.027,0.114,0.098,0.122,0.2c0.007,0.1-0.021,0.216-0.079,0.326L48.194,377.927z" />
			</ns0:g>
			<ns0:path style="fill:#34495E;" d="M70.505,383.065l-10.004-0.002c-0.465,0-0.792-0.458-0.639-0.897l0.055-0.159     c0.095-0.272,0.351-0.455,0.639-0.455l10.005,0.001c0.465,0,0.791,0.459,0.639,0.897l-0.056,0.16     C71.05,382.882,70.794,383.065,70.505,383.065z" />
			<ns0:path style="fill:#F1C40F;" d="M70.661,382.582l-10.3-0.002c-0.088-0.11-0.127-0.158-0.215-0.27l0.001-0.004l0,0     c0.104-0.198,0.202-0.273,0.284-0.273l10.235,0.001c0.207,0,0.305,0.154,0.218,0.341l-0.043,0.091     C70.81,382.537,70.739,382.582,70.661,382.582z" />
			<ns0:path style="fill:#34495E;" d="M52.167,388.64l6.192-5.968c0.27-0.26,0.718-0.153,0.841,0.201l0,0     c0.066,0.189,0.016,0.4-0.129,0.538l-6.192,5.968c-0.269,0.261-0.718,0.153-0.841-0.2l0,0     C51.972,388.989,52.022,388.779,52.167,388.64z" />
			<ns0:path style="fill:#F1C40F;" d="M58.716,383.272c-0.023,0.041-0.051,0.076-0.083,0.106l-5.895,5.682     c-0.054,0.052-0.111,0.081-0.161,0.081c-0.051,0-0.089-0.028-0.107-0.081c-0.026-0.073-0.006-0.181,0.051-0.28     c0.023-0.04,0.051-0.075,0.083-0.105l5.896-5.683c0.054-0.052,0.111-0.08,0.162-0.08c0.051-0.001,0.089,0.028,0.107,0.08     C58.799,383.078,58.761,383.193,58.716,383.272z" />
			<ns0:path style="fill:#2C3E50;" d="M60.388,380.729c0.503,0.29,0.503,1.231,0,2.103c-0.503,0.871-1.318,1.342-1.821,1.052     c-0.503-0.29-0.503-1.232,0-2.103C59.07,380.91,59.885,380.439,60.388,380.729z" />
		</ns0:g>
		<ns0:path style="opacity:0.9;fill:#B7CBCC;" d="M45.099,394.918c0.136-11.103,8.012-24.433,17.592-29.771    c4.761-2.653,9.045-2.829,12.135-0.976c-2.849-4.681-8.543-5.771-15.156-2.086c-9.58,5.339-17.456,18.668-17.592,29.772    c-0.069,5.585,1.837,9.539,4.964,11.415C45.765,401.173,45.057,398.355,45.099,394.918z" />
		<ns0:path style="fill:#B6BBBF;" d="M47.138,403.334l0.983,0.571c3.082,1.792,7.329,1.588,12.04-1.038    c9.58-5.338,17.457-18.667,17.592-29.771l-0.983-0.571c-0.136,11.104-8.012,24.434-17.592,29.772    C54.466,404.922,50.22,405.126,47.138,403.334z" />
		<ns0:path style="fill:#8E9D9E;" d="M72.692,361.619l-0.983-0.571c3.185,1.85,5.129,5.833,5.06,11.477l0.983,0.571    C77.822,367.452,75.878,363.47,72.692,361.619z" />
		<ns0:path style="fill:#E3E7E8;" d="M60.14,404.49c-10.352,5.77-18.626,0.718-18.479-11.282c0.147-12,8.659-26.404,19.012-32.174    c10.353-5.77,18.627-0.719,18.48,11.281C79.005,384.315,70.493,398.721,60.14,404.49z M77.752,373.096    c0.136-11.104-7.52-15.777-17.1-10.439c-9.58,5.339-17.457,18.668-17.592,29.772c-0.136,11.103,7.52,15.777,17.1,10.438    C69.74,397.529,77.617,384.2,77.752,373.096L77.752,373.096z" />
		<ns0:path style="fill:#ECF0F1;" d="M60.672,361.034c-10.353,5.77-18.865,20.174-19.012,32.174c-0.062,5.046,1.368,8.86,3.813,11.16    c0.35-0.562,0.7-1.123,1.056-1.679c-2.225-2.134-3.525-5.635-3.469-10.261c0.136-11.105,8.012-24.434,17.592-29.772    c6.198-3.453,11.575-2.696,14.573,1.262c0.434-0.472,0.877-0.935,1.315-1.402C73.322,358.117,67.442,357.262,60.672,361.034z" />
		<ns0:path style="fill:#D7DADB;" d="M79.152,372.315c-0.001-1.085,0.009-1.688,0.008-2.772c0.166-13.563-9.185-19.271-20.885-12.751    c-11.701,6.521-21.321,22.801-21.487,36.363c-0.166,13.561,9.184,19.271,20.885,12.75c0.967-0.55,1.499-0.865,2.466-1.415    c-10.352,5.77-18.626,0.718-18.479-11.282c0.147-12,8.659-26.404,19.012-32.174C71.025,355.265,79.299,360.315,79.152,372.315z" />
		<ns0:path style="fill:#BDC3C7;" d="M41.661,393.208c0.029-2.393,0.404-4.883,1.048-7.381c-1.748,1.143-3.55,2.188-5.538,2.955    c-0.22,1.477-0.364,2.941-0.382,4.373c-0.166,13.561,9.184,19.271,20.885,12.75c0.967-0.55,1.499-0.865,2.466-1.415    C49.788,410.26,41.514,405.208,41.661,393.208z" />
		<ns0:path style="fill:#E4E7E8;" d="M47.029,407.122c-2.041-0.288-3.829-1.168-5.233-2.59c-2.436-2.466-3.691-6.393-3.63-11.359    c0.16-13.102,9.482-28.882,20.78-35.178c3.004-1.673,5.853-2.521,8.469-2.521c2.668,0,4.999,0.93,6.739,2.692    c0.284,0.287,0.552,0.594,0.803,0.92c-1.739-1.178-3.832-1.815-6.197-1.815c-2.762,0-5.708,0.861-8.757,2.561    c-10.721,5.973-19.566,20.938-19.718,33.359c-0.063,5.105,1.307,9.223,3.96,11.908C45.07,405.935,46.005,406.613,47.029,407.122z" />
		<ns0:path style="fill:#95A5A6;" d="M72.98,355.524l-0.655-0.381c-3.765-2.188-8.951-1.938-14.705,1.268    c-11.701,6.521-21.321,22.801-21.487,36.363c-0.084,6.893,2.289,11.757,6.18,14.018l0.655,0.381    c-3.891-2.261-6.265-7.125-6.18-14.018c0.166-13.563,9.786-29.843,21.487-36.363C64.029,353.586,69.215,353.337,72.98,355.524z" />
		<ns0:path style="fill:#F1C40F;" d="M60.14,404.49c-0.263,0.146-0.518,0.256-0.779,0.389c-0.774,0.526-1.558,1.019-2.353,1.461    c-12.089,6.737-21.75,0.839-21.579-13.174c0.171-14.013,10.111-30.833,22.2-37.57c12.089-6.736,21.75-0.838,21.579,13.174    c-0.008,0.649-0.058,1.309-0.107,1.969c0.027,0.517,0.057,1.031,0.051,1.577c-0.008,0.612-0.051,1.233-0.102,1.857    c0.363-2.018,0.574-4.019,0.61-6.012c-0.004-1.359-0.012-4.188-0.859-7.124c-0.243-0.842-0.982-3.401-2.848-5.724    c-1.761-2.19-4.989-4.779-10.374-4.671c-3.528,0.07-6.638,1.448-7.66,1.9c-1.207,0.535-2.5,1.242-3.843,2.103    c-1.471,0.941-1.946,1.321-3.714,2.737c-0.533,0.427-3.356,2.762-6.599,6.839c-2.568,3.229-4.599,6.736-5.313,8.139    c-1.536,3.015-1.596,3.133-2.962,6.595c-0.469,1.188-0.781,2.283-1.405,4.467c-0.005,0.019-0.548,1.995-0.904,4.424    c-0.293,1.999-0.34,3.325-0.374,4.293c-0.034,0.976-0.019,2.56,0.244,4.564c0.156,1.185,0.439,2.433,0.843,3.708    c0.703,2.222,1.963,4.396,3.372,5.817c0.44,0.443,1.105,1.114,2.237,1.845c0.754,0.487,1.816,1.005,2.528,1.23    c1.714,0.546,2.369,0.603,3.559,0.704c0.991,0.084,2.479-0.024,3.128-0.133c1.827-0.303,2.206-0.409,4.004-1.008    c0.962-0.32,2.203-0.878,3.097-1.356c2.246-1.201,3.262-1.929,4.245-2.632c0.77-0.552,1.434-1.083,2.06-1.614    C61.47,403.705,60.81,404.117,60.14,404.49z" />
		<ns0:path style="fill:#E67E22;" d="M59.361,404.879c-0.774,0.526-1.558,1.019-2.353,1.461c-12.089,6.737-21.75,0.839-21.579-13.174    c0.019-1.535,0.174-3.107,0.418-4.693c-0.182,0.047-0.375,0.079-0.589,0.079c-1.046,0-1.703-0.602-1.976-1.357    c-0.035,0.214-0.071,0.428-0.103,0.65c-0.293,1.999-0.34,3.325-0.374,4.293c-0.034,0.976-0.019,2.56,0.244,4.564    c0.156,1.185,0.439,2.433,0.843,3.708c0.703,2.222,1.963,4.396,3.372,5.817c0.44,0.443,1.105,1.114,2.237,1.845    c0.754,0.487,1.816,1.005,2.528,1.23c1.714,0.546,2.369,0.603,3.559,0.704c0.991,0.084,2.479-0.024,3.128-0.133    c1.827-0.303,2.206-0.409,4.004-1.008c0.962-0.32,2.203-0.878,3.097-1.356c2.246-1.201,3.262-1.929,4.245-2.632    c0.77-0.552,1.434-1.083,2.06-1.614c-0.652,0.441-1.312,0.853-1.982,1.227C59.877,404.637,59.622,404.746,59.361,404.879z" />
		<ns0:path style="fill:#FFDE57;" d="M36.079,381.676c-0.056-0.003-0.115-0.022-0.176-0.058c-0.377-0.221-0.014-1.212,0.071-1.547    c0.327-1.289,0.906-2.494,1.428-3.71c0.531-1.239,1.153-2.436,1.766-3.638c0.702-1.376,2.696-4.822,5.226-8.003    c3.185-4.005,5.951-6.294,6.472-6.713c1.741-1.393,2.208-1.767,3.646-2.689c1.303-0.834,2.56-1.521,3.735-2.043    c0.992-0.439,3.991-1.764,7.35-1.831l0.311-0.003c2.562,0,4.588,0.655,6.168,1.566c-1.517-0.662-3.201-1.003-5.002-1.003    c-3.086,0-6.395,0.972-9.834,2.889c-0.283,0.158-0.563,0.32-0.841,0.486c-4.987,2.991-9.147,7.297-12.503,12.011    c-1.778,2.496-3.343,5.146-4.674,7.906c-0.859,1.781-1.686,3.621-2.389,5.459C36.735,381.01,36.472,381.699,36.079,381.676z" />
	</ns0:g>
	<ns0:g>
		<ns0:path style="fill:#E67E22;" d="M56.657,352.911l-0.007-2.341c0.001,0.353,0.228,0.707,0.685,0.982l0.006,2.341    C56.885,353.619,56.658,353.266,56.657,352.911z" />
		<ns0:path style="fill:#F39C12;" d="M61.568,350.556l0.007,2.342c0.001,0.375-0.252,0.75-0.757,1.031    c-0.98,0.546-2.536,0.53-3.477-0.035l-0.006-2.341c0.94,0.565,2.497,0.581,3.477,0.035    C61.316,351.307,61.569,350.931,61.568,350.556z" />
		<ns0:path style="fill:#D35400;" d="M56.949,351.248c-0.489-0.52-0.979-1.039-1.468-1.558c0.172,0.183,0.388,0.354,0.648,0.511    l1.206,1.353C57.18,351.459,57.051,351.356,56.949,351.248z" />
		<ns0:path style="fill:#E67E22;" d="M62.731,349.67c-0.486,0.522-0.972,1.044-1.458,1.566c-0.119,0.128-0.272,0.246-0.462,0.352    c-0.98,0.546-2.537,0.53-3.477-0.035l-1.206-1.353c1.576,0.949,4.186,0.976,5.828,0.06    C62.275,350.082,62.533,349.883,62.731,349.67z" />
		<ns0:path style="fill:#F39C12;" d="M54.981,348.554l-0.007-2.341c0.001,0.593,0.383,1.186,1.147,1.647l0.007,2.341    C55.364,349.74,54.983,349.147,54.981,348.554z" />
		<ns0:path style="fill:#F39C12;" d="M61.914,344.253c-0.93-0.58-2.718-0.982-4.447-0.494c-1.085,0.307-1.653,0.827-1.755,0.929    c-0.635,0.625-0.711,1.078-0.736,1.525c0.001,0.593,0.383,1.186,1.147,1.647c1.576,0.948,4.185,0.975,5.829,0.059    c0.845-0.472,1.27-1.101,1.268-1.729C63.208,345.438,62.769,344.786,61.914,344.253z" />
		<ns0:path style="fill:#FFDD54;" d="M60.707,343.757c-0.931-0.25-2.096-0.321-3.24,0.002c-1.085,0.307-1.653,0.827-1.755,0.929    c-0.635,0.625-0.711,1.078-0.736,1.525c0.001,0.367,0.165,0.731,0.459,1.067C56.295,345.464,58.493,344.086,60.707,343.757z" />
		<ns0:path style="fill:#FFDD54;" d="M56.8,347.995c-0.023,0.061-0.063,0.102-0.095,0.151c1.582,0.651,3.791,0.583,5.245-0.229    c0.845-0.472,1.27-1.101,1.268-1.729c-0.004-0.257-0.076-0.497-0.18-0.73C60.988,344.64,57.52,346.105,56.8,347.995z" />
		<ns0:path style="opacity:0.5;fill:#FFE98F;" d="M59.546,344.661c-0.539-0.336-1.576-0.568-2.578-0.286    c-0.629,0.178-0.958,0.479-1.018,0.538c-0.368,0.362-0.412,0.625-0.427,0.885c0.001,0.344,0.222,0.688,0.665,0.954    c0.914,0.55,2.426,0.565,3.378,0.034c0.49-0.273,0.736-0.638,0.735-1.003C60.296,345.349,60.042,344.971,59.546,344.661z" />
		<ns0:path style="fill:#F1C40F;" d="M63.219,346.189l0.007,2.341c0.002,0.63-0.423,1.259-1.269,1.73    c-1.643,0.916-4.252,0.89-5.828-0.06l-0.007-2.341c1.576,0.948,4.185,0.975,5.829,0.059    C62.796,347.446,63.221,346.817,63.219,346.189z" />
		<ns0:g>
			<ns0:path style="fill:#F39C12;" d="M59.674,350.899v-2.342c-0.305,0.025-0.611,0.027-0.918,0.014v2.341     C59.063,350.927,59.369,350.925,59.674,350.899z" />
			<ns0:path style="fill:#F39C12;" d="M56.996,350.587c0.292,0.101,0.599,0.177,0.917,0.232v-2.34c-0.319-0.055-0.625-0.132-0.917-0.232     V350.587z" />
		</ns0:g>
	</ns0:g>
	<ns0:g>
		<ns0:polygon style="fill:#95A5A6;" points="65.551,343.972 64.742,343.502 64.8,343.147 65.609,343.618   " />
		<ns0:path style="fill:#BDC3C7;" d="M63.221,348.504c0,0.216-0.054,0.43-0.156,0.639c1.244-1.453,2.192-3.343,2.486-5.171l-0.809-0.47    c-0.212,1.318-0.768,2.669-1.524,3.867L63.221,348.504z" />
		<ns0:path style="fill:#7F8C8D;" d="M63.515,338.953l0.809,0.47c0.108,0.063,0.213,0.136,0.312,0.219    c0.905,0.751,1.261,2.198,0.973,3.977l-0.809-0.471c0.289-1.777-0.067-3.226-0.973-3.977    C63.728,339.089,63.624,339.017,63.515,338.953z" />
		<ns0:path style="fill:#7F8C8D;" d="M56.83,352.364c-1.134,0.537-2.178,0.581-2.952,0.132l0.809,0.47    c0.773,0.449,1.817,0.405,2.95-0.13L56.83,352.364z" />
		<ns0:path style="fill:#95A5A6;" d="M64.259,337.671l0.809,0.47c-1.088-0.632-2.558-0.494-4.113,0.403l-0.809-0.47    C61.702,337.176,63.171,337.038,64.259,337.671z" />
		<ns0:path style="fill:#7F8C8D;" d="M53.942,354.238l-0.809-0.47c-0.767-0.445-1.323-1.262-1.56-2.411l0.809,0.471    C52.619,352.977,53.175,353.793,53.942,354.238z" />
		<ns0:polygon style="fill:#95A5A6;" points="52.382,351.828 51.573,351.357 51.513,351.064 52.322,351.533   " />
		<ns0:polygon style="fill:#95A5A6;" points="57.965,340.271 57.156,339.801 60.146,338.074 60.955,338.544   " />
		<ns0:path style="fill:#E3E7E8;" d="M65.447,338.405c-1.111-0.919-2.748-0.868-4.492,0.139l-2.99,1.727    c-1.751,1.012-3.383,2.848-4.478,5.04c-1.103,2.197-1.522,4.455-1.165,6.223l0.06,0.295c0.54,2.615,2.74,3.482,5.306,2.196v-1.159    l-0.044-0.025c-2.057,0.976-3.803,0.257-4.229-1.853l-0.06-0.295c-0.297-1.44,0.049-3.293,0.947-5.085    c0.898-1.801,2.237-3.299,3.666-4.124l2.99-1.727c1.429-0.825,2.765-0.871,3.678-0.115c0.905,0.751,1.261,2.198,0.973,3.977    l-0.058,0.354c-0.294,1.828-1.242,3.718-2.486,5.171c-0.108,0.222-0.271,0.438-0.49,0.639c0.05-0.046,0.108-0.09,0.152-0.137    c-0.388,0.416-0.775,0.832-1.163,1.248l0.002,0.866c2.453-1.731,4.513-5.011,5.019-8.131l0.05-0.358    C66.989,341.092,66.551,339.328,65.447,338.405z" />
		<ns0:path style="fill:#95A5A6;" d="M52.322,351.533l-0.809-0.47c-0.357-1.768,0.062-4.026,1.165-6.223    c1.095-2.192,2.727-4.029,4.478-5.04l0.809,0.47c-1.751,1.012-3.383,2.848-4.478,5.04    C52.384,347.508,51.965,349.766,52.322,351.533z" />
	</ns0:g>
</ns0:g>
</svg>