<?xml version='1.0' encoding='utf-8'?>
<svg xmlns:ns0="http://www.w3.org/2000/svg" viewBox="104.023 24.134999999999998 125.11500000000001 126.47399999999999" xmlns="http://www.w3.org/2000/svg"><ns0:g>
	<ns0:g>
		<ns0:path style="fill:#1C2833;" d="M158.618,102.146l-0.003-1.109c0.006,2.166,1.397,4.331,4.19,6.012l0.003,1.109    C160.015,106.477,158.623,104.312,158.618,102.146z" />
		<ns0:path style="fill:#253342;" d="M188.717,100.949l0.003,1.109c0.006,2.297-1.544,4.594-4.631,6.315    c-5.998,3.345-15.526,3.249-21.281-0.215l-0.003-1.109c5.755,3.463,15.283,3.56,21.281,0.215    C187.173,105.543,188.724,103.246,188.717,100.949z" />
		<ns0:path style="fill:#3A5169;" d="M162.805,107.049c-5.755-3.464-5.558-8.983,0.441-12.328c5.999-3.345,15.526-3.248,21.281,0.215    c5.755,3.463,5.558,8.983-0.441,12.328C178.087,110.609,168.56,110.512,162.805,107.049z M163.38,106.728    c5.45,3.28,14.473,3.371,20.153,0.204c5.68-3.167,5.867-8.394,0.418-11.674c-5.45-3.28-14.473-3.372-20.153-0.204    C158.118,98.221,157.931,103.448,163.38,106.728L163.38,106.728z" />
		<ns0:path style="fill:#401D06;" d="M159.412,101.034l-0.004-1.661c0.006,2.051,1.323,4.102,3.968,5.693l0.004,1.662    C160.735,105.136,159.418,103.085,159.412,101.034z" />
		<ns0:path style="fill:#662E0A;" d="M187.915,99.29l0.004,1.661c0.006,2.175-1.462,4.35-4.385,5.98    c-5.681,3.167-14.704,3.076-20.153-0.204l-0.004-1.662c5.45,3.28,14.473,3.372,20.153,0.204    C186.452,103.64,187.921,101.465,187.915,99.29z" />
		<ns0:path style="fill:#F1C40F;" d="M188.77,96.4c-0.386-1.064-0.753-1.706-1.655-2.726c-0.18-0.204-0.485-0.515-0.928-0.885v0.681    c2.973,3.181,2.067,7.244-2.664,9.882c-5.681,3.167-14.703,3.076-20.153-0.204c-4.566-2.749-5.16-6.86-1.895-9.985v-0.606    c-0.089,0.069-0.187,0.141-0.264,0.207c-0.329,0.279-0.759,0.665-1.041,0.992c-0.555,0.643-0.617,0.741-1.02,1.377    c-0.003,0.005-0.35,0.613-0.487,1c-0.213,0.601-0.251,0.709-0.362,1.33c-0.085,0.479-0.071,1.095-0.071,1.101    c0.037,1.137,0.357,1.96,0.595,2.48c0.521,1.142,1.267,1.912,1.712,2.372c0.242,0.25,0.594,0.555,0.871,0.766    c0.393,0.3,0.942,0.668,1.358,0.936c3.659,2.169,7.776,2.659,10.586,2.688c1.931,0.02,3.944-0.187,5.671-0.583    c2.476-0.568,4.014-1.304,5.077-1.882c1.323-0.72,2.218-1.54,2.554-1.849c0.549-0.504,1.058-1.137,1.513-1.882    c0.374-0.612,0.586-1.271,0.656-1.488c0.149-0.463,0.193-0.839,0.248-1.315C189.138,98.228,189.055,97.188,188.77,96.4z" />
		<ns0:path style="fill:#FFDD55;" d="M173.358,107.188c-2.734-0.029-6.737-0.503-10.278-2.602c-0.383-0.248-0.917-0.604-1.298-0.896    c-0.277-0.211-0.599-0.495-0.8-0.704c-0.418-0.432-1.117-1.152-1.596-2.201c-0.215-0.472-0.506-1.218-0.54-2.244    c-0.001-0.024-0.003-0.151,0.002-0.319c0.295,2.065,1.781,3.996,4.203,5.453c2.796,1.683,6.545,2.61,10.558,2.61    c3.816,0,7.444-0.851,10.213-2.396c2.645-1.475,4.288-3.48,4.628-5.649c0.006-0.043,0.013-0.086,0.018-0.129    c0.012,0.237,0.009,0.453-0.012,0.622c-0.052,0.46-0.089,0.79-0.221,1.197c-0.065,0.199-0.259,0.805-0.597,1.356    c-0.424,0.696-0.895,1.284-1.403,1.749c-0.319,0.294-1.168,1.074-2.433,1.762c-1.028,0.559-2.517,1.271-4.918,1.822    c-1.599,0.366-3.472,0.568-5.271,0.568C173.614,107.188,173.358,107.188,173.358,107.188z" />
		<ns0:path style="fill:#F39C12;" d="M163.283,103.09c-4.482-2.748-5.05-6.823-1.808-9.927v-0.606c-0.089,0.069-0.187,0.141-0.264,0.207    c-0.329,0.279-0.759,0.665-1.041,0.992c-0.555,0.643-0.617,0.741-1.02,1.377c-0.003,0.005-0.35,0.613-0.487,1    c-0.213,0.601-0.251,0.709-0.362,1.33c-0.085,0.479-0.071,1.095-0.071,1.101c0.037,1.137,0.357,1.96,0.595,2.48    c0.521,1.142,1.267,1.912,1.712,2.372c0.242,0.25,0.594,0.555,0.871,0.766c0.172,0.131,0.379,0.277,0.586,0.419    C161.938,103.875,162.361,103.114,163.283,103.09z" />
		<ns0:path style="fill:#78360C;" d="M187.904,95.706l0.005,1.666c0.006,2.175-1.462,4.35-4.386,5.98    c-5.681,3.167-14.703,3.076-20.153-0.204l-0.004-1.666c5.45,3.28,14.473,3.371,20.153,0.204    C186.442,100.056,187.911,97.88,187.904,95.706z" />
		<ns0:path style="fill:#78360C;" d="M168.305,88.102c0.367-0.087,0.733-0.173,1.099-0.26c-1.296,0.306-2.517,0.757-3.588,1.354    c-4.507,2.513-4.655,6.66-0.331,9.262l-2.12,3.024c-5.45-3.28-5.263-8.507,0.418-11.674    C165.133,89.056,166.671,88.487,168.305,88.102z" />
		<ns0:path style="fill:#572708;" d="M159.402,97.455l-0.005-1.666c0.006,2.051,1.323,4.102,3.968,5.694l0.004,1.666    C160.725,101.556,159.408,99.505,159.402,97.455z" />
		<ns0:path style="fill:#D15D15;" d="M165.485,98.459c-4.324-2.603-4.176-6.75,0.331-9.262c4.507-2.513,11.666-2.441,15.99,0.162    c4.324,2.602,4.175,6.749-0.332,9.262S169.809,101.061,165.485,98.459z" />
		<ns0:path style="fill:#8F400E;" d="M177.856,87.819c0.367,0.084,0.734,0.169,1.101,0.254c1.826,0.42,3.529,1.067,4.979,1.94    c5.45,3.28,5.263,8.506-0.417,11.674c-5.68,3.168-14.703,3.076-20.153-0.204l2.12-3.024c4.324,2.602,11.482,2.675,15.989,0.162    s4.655-6.66,0.332-9.262C180.655,88.665,179.304,88.152,177.856,87.819z" />
		<ns0:path style="fill:#95A5A6;" d="M165.385,93.932l-0.002-0.449c0.003,1.188,0.767,2.377,2.3,3.3l0.001,0.449    C166.152,96.309,165.389,95.121,165.385,93.932z" />
		<ns0:path style="fill:#BDC3C7;" d="M181.905,93.435l0.001,0.449c0.003,1.261-0.848,2.521-2.542,3.466    c-3.292,1.835-8.521,1.783-11.679-0.118l-0.001-0.449c3.159,1.901,8.388,1.954,11.68,0.118    C181.058,95.956,181.908,94.695,181.905,93.435z" />
		<ns0:path style="fill:#ECF0F1;" d="M167.684,96.783c-3.158-1.901-3.05-4.93,0.242-6.766c3.292-1.835,8.521-1.783,11.679,0.118    c3.159,1.901,3.05,4.93-0.242,6.766C176.071,98.736,170.842,98.684,167.684,96.783z" />
	</ns0:g>
	<ns0:g>
		<ns0:g>
			<ns0:path style="fill:#572708;" d="M162.311,73.444l-0.004-1.524c0.004,1.619,1.044,3.237,3.132,4.494l0.004,1.524     C163.355,76.682,162.316,75.063,162.311,73.444z" />
			<ns0:path style="fill:#78360C;" d="M184.808,71.854l0.004,1.524c0.005,1.717-1.154,3.434-3.461,4.721     c-4.484,2.5-11.605,2.428-15.907-0.161l-0.004-1.524c4.302,2.589,11.423,2.661,15.907,0.161     C183.653,75.288,184.813,73.571,184.808,71.854z" />
			<ns0:path style="fill:#78360C;" d="M163.44,69.052c0.908-1.082,1.816-2.164,2.725-3.246c-1.462,1.743-0.989,3.898,1.458,5.371     l-2.184,5.237C162.084,74.395,161.436,71.44,163.44,69.052z" />
			<ns0:path style="fill:#A84B11;" d="M180.916,65.766c0.083,0.097,0.192,0.226,0.274,0.323c0.041,0.049,0.096,0.113,0.137,0.162     c0.082,0.097,0.192,0.226,0.274,0.323c0.082,0.097,0.192,0.226,0.275,0.323c0.041,0.048,0.096,0.113,0.137,0.162     c0.082,0.097,0.192,0.226,0.274,0.323c0.082,0.097,0.192,0.227,0.274,0.323c0.042,0.048,0.096,0.113,0.137,0.162     c0.083,0.097,0.192,0.226,0.274,0.323c0.083,0.097,0.192,0.226,0.274,0.323c0.041,0.049,0.096,0.113,0.137,0.162     c0.082,0.097,0.192,0.227,0.275,0.323c2.101,2.475,1.31,5.558-2.314,7.578c-4.484,2.5-11.605,2.428-15.907-0.161l2.184-5.237     c3.138,1.889,8.334,1.941,11.605,0.118C181.873,69.82,182.45,67.571,180.916,65.766z" />
			<ns0:path style="fill:#401D06;" d="M165.338,67.898l-0.006-2.006c0.003,1.181,0.762,2.362,2.285,3.279l0.006,2.006     C166.1,70.26,165.341,69.079,165.338,67.898z" />
			<ns0:path style="fill:#572708;" d="M181.748,65.844l0.006,2.006c0.003,1.252-0.842,2.505-2.525,3.444     c-3.271,1.824-8.467,1.771-11.605-0.118l-0.006-2.006c3.138,1.889,8.334,1.941,11.605,0.117     C180.906,68.349,181.752,67.096,181.748,65.844z" />
			<ns0:path style="fill:#F1C40F;" d="M182.576,63.884c-0.532-1.495-1.597-2.319-2.569-2.928c-2-1.253-5.757-2.126-9.646-1.255     c-2.298,0.516-3.559,1.438-4.034,1.785c-0.162,0.118-0.652,0.477-1.254,1.295c-0.336,0.457-0.509,0.958-0.602,1.227     c-0.237,0.688-0.264,1.811,0.21,2.768c0.628,1.266,1.524,1.916,2.388,2.472c3.523,2.088,8.968,2.146,12.667,0.134     c1.074-0.584,1.902-1.346,2.462-2.264C182.794,66.142,182.938,64.902,182.576,63.884z" />
			<ns0:path style="fill:#F39C12;" d="M176.712,59.699c-1.856-0.41-4.071-0.507-6.341,0H176.712z" />
			<ns0:path style="fill:#F39C12;" d="M169.749,59.859c-1.907,0.528-2.992,1.312-3.422,1.627c-0.162,0.118-0.652,0.477-1.254,1.295     c-0.336,0.457-0.509,0.958-0.602,1.227c-0.237,0.688-0.264,1.811,0.21,2.768c0.503,1.013,1.177,1.626,1.869,2.118     c-0.017-0.081-0.033-0.163-0.024-0.262c0.055-0.609,0.471-1.12,1.126-0.944c0.055,0.015,0.114,0.035,0.168,0.015     c0.078-0.028,0.107-0.123,0.119-0.205c0.061-0.431-0.047-0.89,0.117-1.293c0.141-0.344,0.362-0.566,0.371-0.95     c0.004-0.213-0.007-0.431-0.007-0.645c0-0.412,0-0.824,0-1.236h1.33V59.859z" />
			<ns0:path style="fill:#401D06;" d="M167.607,65.465c-1.523-0.917-2.282-2.098-2.285-3.279l0.003,1.143     c0.001,0.309,0.002,0.721,0.003,1.03c0.003,1.181,0.762,2.362,2.285,3.279L167.607,65.465z" />
			<ns0:path style="fill:#572708;" d="M181.741,63.282c0,0.038,0.001,0.076-0.002,0.114c-0.001,0.013-0.004,0.022-0.005,0.035     c0.006-0.227,0.006-0.593,0.004-1.292c0.003,1.252-0.842,2.505-2.525,3.444c-3.271,1.824-8.467,1.771-11.605-0.117     c0.191,0.193,0.38,0.375,0.57,0.55c-0.232-0.215-0.432-0.41-0.57-0.55c0.001,0.652,0.004,1.521,0.006,2.172     c3.139,1.889,8.335,1.941,11.605,0.117c1.684-0.938,2.529-2.191,2.526-3.443L181.741,63.282z" />
			<ns0:path style="fill:#A84B11;" d="M179.212,65.582c-2.425,1.346-4.894,1.421-5.593,1.413c-1.709-0.021-3.767-0.224-6.064-1.56     c-0.74-0.445-1.197-1.361-1.201-2.65c-0.003-1.319,0.468-2.777,1.233-4.066c0.758-1.277,1.804-2.388,2.961-3.034     c1.567,0.943,4.162,0.97,5.795,0.059c1.633-0.911,1.687-2.414,0.12-3.357c-1.567-0.943-4.162-0.969-5.796-0.059     c-1.633,0.911-1.687,2.414-0.12,3.357c-1.157,0.646-2.203,1.756-2.961,3.034c-0.765,1.289-1.237,2.747-1.233,4.066     c0.004,1.29,0.461,2.205,1.201,2.65c-0.584-0.37-2.361-1.497-3.284-3.562c-0.71-1.587-0.862-3.167-0.466-4.829     c0.275-1.158,1.61-5.028,7.225-6.214c1.852-0.392,4.038-0.316,5.845,0.201c2.814,0.806,4.112,2.208,4.666,2.807     c1.857,2.007,2.851,5.696,0.646,9.053C181.786,63.502,180.864,64.665,179.212,65.582z" />
			<ns0:path style="fill:#78360C;" d="M181.541,53.838c-0.554-0.599-1.852-2.001-4.666-2.807c-1.808-0.518-3.994-0.593-5.846-0.201     c-5.615,1.187-6.95,5.057-7.225,6.214c-0.396,1.663-0.243,3.242,0.466,4.829c0.923,2.065,2.7,3.192,3.284,3.562     c2.297,1.336,4.355,1.539,6.064,1.56c0.699,0.009,3.169-0.067,5.593-1.413c1.652-0.917,2.573-2.08,2.975-2.692     C184.393,59.534,183.398,55.845,181.541,53.838z M178.241,63.437c-1.061,1.062-2.639,1.715-4.14,1.715h-1.715     c-1.586,0-2.995-0.664-4.141-1.715c-1.149-1.056-1.647-2.626-1.715-4.141c-0.065-1.459,0.7-3.125,1.715-4.141     c0.348-0.348,0.763-0.631,1.2-0.883c-0.116-0.698,0.283-1.419,1.224-1.944c1.634-0.911,4.228-0.885,5.796,0.059     c0.996,0.6,1.331,1.425,1.028,2.181c0.258,0.182,0.512,0.371,0.748,0.587c1.15,1.056,1.648,2.626,1.715,4.141     C180.021,60.754,179.256,62.421,178.241,63.437z" />
			<ns0:path style="fill:#F1C40F;" d="M167.509,55.052c-3.175-1.911-3.066-4.955,0.243-6.8c3.309-1.845,8.565-1.792,11.74,0.119     c3.175,1.911,3.066,4.956-0.243,6.801C175.939,57.016,170.683,56.962,167.509,55.052z M167.577,55.014     c3.138,1.889,8.334,1.941,11.605,0.117c3.271-1.824,3.379-4.833,0.24-6.723c-3.138-1.889-8.334-1.941-11.605-0.117     C164.546,50.115,164.439,53.125,167.577,55.014L167.577,55.014z" />
			<ns0:path style="fill:#F1C40F;" d="M182.54,51.26c-0.532-1.495-1.597-2.319-2.569-2.928c-1.999-1.252-5.758-2.127-9.645-1.255     c-2.298,0.516-3.56,1.438-4.034,1.785c-0.162,0.118-0.652,0.477-1.254,1.295c-0.336,0.457-0.509,0.958-0.602,1.227     c-0.237,0.688-0.265,1.811,0.21,2.768c0.628,1.266,1.524,1.915,2.388,2.472c3.523,2.088,8.969,2.146,12.667,0.134     c1.074-0.584,1.902-1.346,2.462-2.264C182.758,53.518,182.902,52.278,182.54,51.26z M179.248,55.17     c-3.309,1.845-8.565,1.792-11.74-0.119c-3.175-1.911-3.066-4.955,0.243-6.8c3.309-1.845,8.565-1.792,11.74,0.119     C182.666,50.281,182.558,53.326,179.248,55.17z" />
			<ns0:path style="fill:#F39C12;" d="M167.752,48.251c0.604-0.337,1.287-0.589,1.997-0.799v-0.226     c-1.929,0.528-3.025,1.319-3.458,1.636c-0.162,0.118-0.652,0.477-1.254,1.295c-0.336,0.457-0.509,0.958-0.602,1.227     c-0.237,0.688-0.265,1.811,0.21,2.768c0.521,1.049,1.226,1.668,1.944,2.168v-0.422c0-0.589,0.474-0.864,0.93-0.841     c-0.003-0.002-0.008-0.003-0.011-0.005C164.334,53.141,164.443,50.097,167.752,48.251z" />
			<ns0:path style="fill:#401D06;" d="M165.292,51.735l-0.006-2.006c0.003,1.181,0.762,2.362,2.285,3.279l0.006,2.006     C166.054,54.097,165.295,52.916,165.292,51.735z" />
			<ns0:path style="fill:#572708;" d="M181.703,49.681l0.005,2.006c0.004,1.252-0.842,2.505-2.525,3.444     c-3.271,1.824-8.467,1.771-11.605-0.117l-0.006-2.006c3.139,1.889,8.335,1.941,11.605,0.117     C180.86,52.186,181.706,50.933,181.703,49.681z" />
			<ns0:path style="fill:#331705;" d="M166.123,51.813c-0.914-1.077-1.829-2.154-2.743-3.231c0.498,0.587,1.16,1.14,1.984,1.637     l2.207,2.789C166.97,52.645,166.487,52.242,166.123,51.813z" />
			<ns0:path style="fill:#401D06;" d="M183.6,48.527c-0.908,1.082-1.816,2.164-2.725,3.246c-0.413,0.492-0.979,0.95-1.699,1.352     c-3.271,1.824-8.467,1.771-11.605-0.117l-2.207-2.789c4.302,2.589,11.423,2.661,15.907,0.161     C182.258,49.83,183.035,49.201,183.6,48.527z" />
			<ns0:path style="fill:#572708;" d="M162.232,45.725l-0.004-1.524c0.004,1.619,1.044,3.238,3.132,4.494l0.004,1.524     C163.277,48.962,162.237,47.343,162.232,45.725z" />
			<ns0:path style="fill:#78360C;" d="M184.729,44.135l0.004,1.524c0.005,1.716-1.154,3.434-3.461,4.72     c-4.484,2.5-11.606,2.428-15.907-0.161l-0.004-1.524c4.302,2.589,11.423,2.661,15.907,0.161     C183.575,47.568,184.734,45.852,184.729,44.135z" />
			<ns0:path style="fill:#D15D15;" d="M165.36,48.694c-4.302-2.589-4.154-6.714,0.329-9.214c4.484-2.5,11.605-2.428,15.907,0.161     c4.301,2.589,4.154,6.714-0.33,9.215C176.784,51.355,169.662,51.283,165.36,48.694z" />
		</ns0:g>
		<ns0:g>
			<ns0:path style="fill:#D15D15;" d="M140.045,74.161l24.922-14.483c0.311-0.181,0.739-0.16,1.214,0.105     c0.966,0.538,1.76,1.882,1.774,3.001c0.007,0.569-0.189,0.971-0.51,1.157l-24.922,14.483c0.321-0.187,0.517-0.588,0.51-1.157     c-0.014-1.12-0.808-2.463-1.774-3.001C140.784,74.001,140.355,73.98,140.045,74.161z" />
			<ns0:path style="fill:#78360C;" d="M142.846,76.313c0.11,0.322,0.183,0.646,0.186,0.955c0.007,0.569-0.189,0.971-0.51,1.157     l24.922-14.483c0.321-0.187,0.517-0.588,0.51-1.157c-0.004-0.284-0.059-0.583-0.153-0.879L142.846,76.313z" />
			<ns0:path style="fill:#3F5973;" d="M138.315,73.688l1.088-0.632c0.472-0.274,1.122-0.243,1.843,0.159     c1.466,0.817,2.671,2.857,2.692,4.557c0.011,0.864-0.287,1.473-0.774,1.757l-1.088,0.632c0.487-0.284,0.785-0.893,0.774-1.757     c-0.021-1.7-1.227-3.74-2.693-4.557C139.437,73.446,138.787,73.415,138.315,73.688z" />
			<ns0:path style="fill:#2C3E50;" d="M142.67,77.269c0.107,0.384,0.175,0.768,0.18,1.136c0.01,0.864-0.287,1.473-0.774,1.756     l1.088-0.632c0.487-0.283,0.785-0.893,0.774-1.756c-0.004-0.367-0.073-0.75-0.179-1.132L142.67,77.269z" />
			<ns0:path style="fill:#F1C40F;" d="M136.853,72.83c0.891-0.472,1.687-0.372,2.198-0.206c1.43,0.465,2.256,1.427,2.527,1.744     c1.57,1.829,2.273,4.28,1.71,5.959c-0.303,0.904-0.824,1.306-1.189,1.529c0.68-0.395,1.095-1.245,1.08-2.45     c-0.029-2.37-1.71-5.215-3.755-6.355C138.417,72.491,137.511,72.448,136.853,72.83z" />
			<ns0:path style="fill:#E67E22;" d="M135.378,76.335c-0.023-1.906,1.29-2.709,2.936-1.793c1.645,0.917,2.997,3.205,3.02,5.111     c0.023,1.906-1.291,2.709-2.936,1.792C136.754,80.529,135.401,78.241,135.378,76.335z M135.701,76.514     c0.021,1.7,1.227,3.74,2.692,4.557c1.466,0.817,2.638,0.102,2.618-1.598c-0.021-1.699-1.227-3.74-2.693-4.557     C136.852,74.1,135.681,74.815,135.701,76.514L135.701,76.514z" />
			<ns0:path style="fill:#F1C40F;" d="M136.454,73.062l0.399-0.232c0.658-0.382,1.564-0.339,2.57,0.222     c2.045,1.14,3.726,3.985,3.755,6.355c0.015,1.205-0.4,2.055-1.08,2.45l-0.399,0.232c0.68-0.395,1.095-1.245,1.08-2.45     c-0.029-2.37-1.71-5.215-3.755-6.355C138.018,72.723,137.112,72.68,136.454,73.062z" />
			<ns0:path style="fill:#F39C12;" d="M135.076,75.928c0.01-0.56,0.037-2.046,1.378-2.866c0.658-0.382,1.564-0.339,2.57,0.222     c2.044,1.14,3.726,3.985,3.755,6.355c0.015,1.205-0.4,2.055-1.08,2.45c-0.953,0.504-1.693,0.329-1.937,0.272     c-0.331-0.079-1.21-0.286-2.262-1.265C136.06,79.756,135.108,77.728,135.076,75.928c0.001,0.148,0.102,0.295,0.303,0.406     c0.023,1.906,1.375,4.194,3.02,5.111c1.645,0.917,2.959,0.114,2.936-1.792c-0.023-1.906-1.376-4.195-3.02-5.111     c-1.645-0.916-2.959-0.114-2.936,1.793C135.178,76.223,135.077,76.076,135.076,75.928z" />
			<ns0:path style="fill:#3F5973;" d="M124.797,81.544l11.678-6.787c0.472-0.274,1.122-0.243,1.843,0.159     c1.466,0.817,2.672,2.857,2.693,4.557c0.01,0.864-0.287,1.473-0.775,1.757l-11.678,6.787c0.487-0.283,0.785-0.893,0.774-1.757     c-0.021-1.699-1.226-3.739-2.692-4.557C125.919,81.301,125.269,81.271,124.797,81.544z" />
			<ns0:path style="fill:#2C3E50;" d="M129.142,85.08c0.114,0.399,0.186,0.798,0.191,1.18c0.01,0.864-0.287,1.474-0.774,1.757     l11.679-6.787c0.487-0.284,0.785-0.893,0.774-1.757c-0.005-0.37-0.074-0.756-0.182-1.142L129.142,85.08z" />
			<ns0:path style="fill:#222F3D;" d="M124.023,83.301c-0.021-1.7,1.151-2.415,2.617-1.598c1.466,0.817,2.671,2.857,2.692,4.557     c0.021,1.7-1.151,2.415-2.617,1.598C125.249,87.04,124.043,85.001,124.023,83.301z M126.678,84.78L126.678,84.78L126.678,84.78     L126.678,84.78L126.678,84.78L126.678,84.78z" />
		</ns0:g>
	</ns0:g>
</ns0:g>
</svg>