<?xml version="1.0" encoding="utf-8"?>
<!-- Generator: Adobe Illustrator 27.5.0, SVG Export Plug-In . SVG Version: 6.00 Build 0)  -->
<svg version="1.1" xmlns="http://www.w3.org/2000/svg" xmlns:xlink="http://www.w3.org/1999/xlink" x="0px" y="0px"
	 viewBox="0 0 500 500" style="enable-background:new 0 0 500 500;" xml:space="preserve">
<g id="BACKGROUND">
</g>
<g id="OBJECTS">
	<g>
		<g>
			<defs>
				<path id="SVGID_1_" d="M36.18,400.422c-2.136-23.938,8.165-47.799,23.857-66.002C172.95,238.273,3.451,201.76,96.25,97.577
					c68.199-64.628,232.889-80.004,303.678-14.306c39.56,44.993,1.074,94.44,9.356,142.516c4.307,16.754,16.199,30.295,26.51,44.184
					c31.72,40.321,50.873,102.203,16.677,146.322C407.615,488.016,37.458,509.008,36.18,400.422z"/>
			</defs>
			<use xlink:href="#SVGID_1_"  style="overflow:visible;fill:#BFEFED;"/>
			<clipPath id="SVGID_00000155132788275539857920000002149375981197630385_">
				<use xlink:href="#SVGID_1_"  style="overflow:visible;"/>
			</clipPath>
			<g style="clip-path:url(#SVGID_00000155132788275539857920000002149375981197630385_);">
				<path style="fill:#FFFFFF;" d="M58.356,313.371c0,0,63.847,23.227,210.912,12.6c147.065-10.627,198.345-42.186,198.345-42.186
					l7.947,137.978l-453.174-2.348c0,0-2.49-66.104,8.358-79.91C41.591,325.698,58.356,313.371,58.356,313.371z"/>
				<g>
					<g>
						<path style="fill:#FFFFFF;" d="M296.61,225.878c1.307-4.1,5.732-6.96,10.008-6.468c-0.906-4.723,0.387-9.821,3.435-13.54
							c3.048-3.72,7.792-5.99,12.6-6.031c-2.137-6.263-0.345-14.182,4.07-19.111c4.415-4.929,11.571-7.227,18.031-5.79
							c-0.846-5.382,2.798-10.533,8.071-11.902c5.273-1.37,11.328,1.799,13.208,6.912c6.164-3.486,15.267-0.4,18.938,5.655
							c3.671,6.055,1.651,14.867-4.291,18.719c3.812-0.228,6.446,0.453,9.863,2.157c3.418,1.704,6.185,5.11,6.238,8.929
							c0.061,4.35-3.418,8.161-7.496,9.676c-4.078,1.515-8.608,1.154-12.881,0.34c-2.715,4.232-7.175,8.192-12.079,9.306
							c-4.904,1.113-10.231,0.225-14.508-2.42c-3.762,4.539-9.917,7.578-15.795,8.036c-5.878,0.457-11.909-1.561-16.328-5.464
							c-2.023,3.271-7.495,5.725-11.329,6.038C302.533,231.234,299.137,228.777,296.61,225.878z"/>
						
							<path style="fill:none;stroke:#1D1D1B;stroke-width:0.5;stroke-linecap:round;stroke-linejoin:round;stroke-miterlimit:10;" d="
							M363.1,190.74c3.983,0.843,6.633,5.581,5.266,9.416c2.44-1.38,5.265-2.289,7.708-0.914c2.443,1.375,4.081,4.08,4.168,6.882"/>
						
							<path style="fill:none;stroke:#1D1D1B;stroke-width:0.5;stroke-linecap:round;stroke-linejoin:round;stroke-miterlimit:10;" d="
							M340.888,196.246c-2.28,0.57-4.198,2.411-4.862,4.665c-0.664,2.254-0.05,4.84,1.557,6.555
							c-5.896,0.705-10.598,7.114-9.338,12.917"/>
					</g>
					<g>
						<path style="fill:#FFFFFF;" d="M189.62,261.932c-1.329-5.626-6.556-10.099-12.32-10.543
							c-5.764-0.444-12.438,2.73-14.613,8.086c-5.254-3.889-12.633-4.689-18.599-2.016c-5.965,2.673-10.281,8.712-10.876,15.221
							c-4.302,0.956-9.384,2.939-13.069,5.355c-2.188,1.435-4.435,3.582-4.144,6.182c0.215,1.924,1.847,3.451,3.662,4.125
							c1.815,0.674,3.803,0.658,5.739,0.634c-1.646,2.838,0.83,6.384,3.132,8.721c2.302,2.337,5.522,3.502,8.677,4.405
							c4.948,1.416,10.132,2.371,15.235,1.707c5.103-0.664,10.149-3.132,13.019-7.405c4.766,4.698,10.451,7.998,17.136,7.678
							c6.685-0.32,13.326-5.103,14.396-11.709c4.696,3.203,12.71,0.605,15.551-4.319c2.841-4.923,0.639-12.052-4.484-14.515
							c0.822-4.53-0.944-8.794-4.831-11.262C199.343,259.809,193.37,259.26,189.62,261.932z"/>
						
							<path style="fill:none;stroke:#1D1D1B;stroke-width:0.5;stroke-linecap:round;stroke-linejoin:round;stroke-miterlimit:10;" d="
							M148.545,263.253c-3.795,2.545-5.927,7.362-5.258,11.882c-4.253-0.343-8.546,3.663-8.871,7.917"/>
						
							<path style="fill:none;stroke:#1D1D1B;stroke-width:0.5;stroke-linecap:round;stroke-linejoin:round;stroke-miterlimit:10;" d="
							M171.767,274.124c4.091,0.267,7.959,2.819,9.813,6.476c4.725-2.528,9.699-0.491,13.508,3.278"/>
					</g>
				</g>
				<path style="fill:#B5CEDA;" d="M58.356,323.475c0,0,63.847,23.227,210.912,12.6c147.065-10.627,198.345-42.187,198.345-42.187
					l7.947,137.978l-453.174-2.348c0,0-2.49-66.104,8.358-79.91C41.591,335.802,58.356,323.475,58.356,323.475z"/>
				<g>
					<path style="fill:#C2EDA5;" d="M481.603,434.706c-142.559-68.146-315.155-70.096-459.217-5.187
						c15.604,28.75,46.249,42.858,78.128,50.196C225.779,508.545,362.371,482.732,481.603,434.706z"/>
					<g>
						
							<path style="fill:none;stroke:#1D1D1B;stroke-width:0.5;stroke-linecap:round;stroke-linejoin:round;stroke-miterlimit:10;" d="
							M370.011,416.673c0.445-2.133,1.674-4.093,3.4-5.422c0.537,1.627,1.074,3.253,1.611,4.88c1.959-1.839,4.64-2.886,7.326-2.862
							c-0.341,1.12-0.683,2.24-1.024,3.36c2.438-0.333,4.876-0.665,7.315-0.998c-0.63,1.332-1.26,2.663-1.891,3.995"/>
						
							<path style="fill:none;stroke:#1D1D1B;stroke-width:0.5;stroke-linecap:round;stroke-linejoin:round;stroke-miterlimit:10;" d="
							M249.548,392.629c-0.711-1.311-1.89-2.363-3.274-2.92c-0.043,1.577-0.086,3.155-0.13,4.733
							c-1.818-0.715-3.635-1.429-5.453-2.144c0.227,1.066,0.453,2.132,0.68,3.198c-1.838,0.111-3.676,0.222-5.514,0.333"/>
						
							<path style="fill:none;stroke:#1D1D1B;stroke-width:0.5;stroke-linecap:round;stroke-linejoin:round;stroke-miterlimit:10;" d="
							M104.458,430.163c-0.711-1.311-1.89-2.363-3.274-2.92c-0.043,1.578-0.087,3.155-0.13,4.733
							c-1.818-0.715-3.635-1.429-5.453-2.144c0.227,1.066,0.453,2.132,0.68,3.198c-1.838,0.111-3.676,0.222-5.514,0.333"/>
						
							<path style="fill:none;stroke:#1D1D1B;stroke-width:0.5;stroke-linecap:round;stroke-linejoin:round;stroke-miterlimit:10;" d="
							M268.372,466.573c-0.09-1.527,2.443-3.384,2.443-3.384s3.04,1.553,2.321,2.903c1.961-1.245,4.132-2.158,6.393-2.69
							c0.011,1.05,0.021,2.1,0.032,3.15c2.116-0.704,4.35-1.051,6.58-1.019c-0.043,0.344-0.086,0.689-0.129,1.033"/>
						
							<path style="fill:none;stroke:#1D1D1B;stroke-width:0.5;stroke-linecap:round;stroke-linejoin:round;stroke-miterlimit:10;" d="
							M194.816,452.54c-0.756-1.17-1.904-2.082-3.214-2.555c-0.164,1.566-0.328,3.132-0.491,4.698
							c-2.089-0.207-4.179-0.415-6.268-0.622c0.088,0.963,0.175,1.926,0.263,2.889c-1.608-0.271-3.296-0.053-4.782,0.618"/>
					</g>
				</g>
				
					<ellipse transform="matrix(0.2329 -0.9725 0.9725 0.2329 -24.4811 259.045)" style="fill:#FCEA96;" cx="151.971" cy="145.041" rx="32.052" ry="32.052"/>
			</g>
		</g>
		<g>
			<ellipse style="fill:#1D1D1B;" cx="223.162" cy="445.637" rx="144.338" ry="11.93"/>
			<g>
				<polygon style="fill:#1D1D1B;" points="291.097,430.302 296.191,421.598 307.855,419.784 302.616,434.283 				"/>
				<g>
					<g>
						<g>
							<path style="fill:#FFA873;" d="M104.027,439.225H91.639c-3.452,5.27-7.348,5.037-7.482,5.027
								c3.767,1.74,8.693,2.451,14.878,1.814c2.091-0.215,3.719-0.643,4.993-1.202C105.691,441.816,104.027,439.225,104.027,439.225
								z"/>
							<path style="fill:#F8F9FA;" d="M109.205,418.654l-17.314-5.418c-5.114,4.49-11.706,9.288-14.703,11.42
								c-1.411,4.257-2.197,8.521-1.081,11.242c1.503,3.664,4.158,6.559,8.05,8.356c0.134,0.009,4.029,0.242,7.482-5.027h12.389
								c0,0,1.663,2.591,0.001,5.639c6.388-2.802,3.697-8.967,3.697-8.967L109.205,418.654z"/>
						</g>
						<path style="fill:#8CC2FF;" d="M83.549,410.626c0,0-4.033,7.004-6.362,14.03c2.997-2.132,9.589-6.929,14.703-11.42
							L83.549,410.626z"/>
						<path style="fill:#FFA873;" d="M93.673,412.229c0,0-3.713,10.058-2.042,19.914c0,0,3.896-1.597,10.642,0.986
							c0,0,0.459-15.985,1.754-19.737L93.673,412.229z"/>
						
							<path style="fill:none;stroke:#1D1D1B;stroke-width:0.5;stroke-linecap:round;stroke-linejoin:round;stroke-miterlimit:10;" d="
							M89.806,422.679c0,0,7.38-3.24,14.221,2.123"/>
						
							<path style="fill:none;stroke:#1D1D1B;stroke-width:0.5;stroke-linecap:round;stroke-linejoin:round;stroke-miterlimit:10;" d="
							M89.806,427.758c0,0,7.38-3.24,14.221,2.123"/>
						
							<path style="fill:none;stroke:#1D1D1B;stroke-width:0.5;stroke-linecap:round;stroke-linejoin:round;stroke-miterlimit:10;" d="
							M82.27,417.16c-0.411,2.219-0.822,4.438-1.233,6.657"/>
						
							<path style="fill:none;stroke:#1D1D1B;stroke-width:0.5;stroke-linecap:round;stroke-linejoin:round;stroke-miterlimit:10;" d="
							M83.996,419.872c-0.612,2.325-0.696,4.788-0.247,7.15"/>
						
							<path style="fill:none;stroke:#1D1D1B;stroke-width:0.5;stroke-linecap:round;stroke-linejoin:round;stroke-miterlimit:10;" d="
							M83.006,434.603c0,0,14.55-6.841,23.425,1.109"/>
					</g>
					<path style="fill:#1D1D1B;" d="M83.549,410.626c0,0,1.433,7.344,13.267,9.158l11.558,8.551l0.83-9.68L83.549,410.626z"/>
				</g>
				<polygon style="fill:#1D1D1B;" points="192.967,383.162 184.609,383.346 171.511,392.113 179.099,396.32 197.959,386.046 				
					"/>
				<g>
					<g>
						<path style="fill:#FFFFFF;" d="M158.395,363.969c0,0-2.964-3.02-7.771-3.328c-0.2-0.013-0.396-0.022-0.592-0.032
							c-5.193,2.111-8.944,6.064-14.2,14.824c-4.381,7.303-2.471,14.886-1.045,18.583l18.241-2.496L158.395,363.969z"/>
						<path style="fill:#8CC2FF;" d="M135.831,375.433c5.257-8.761,9.007-12.714,14.2-14.824c-4.541-0.231-8.39,0.309-15.125,2.436
							c-7.026,2.219-12.204,7.766-17.566,12.759c-5.362,4.992-12.389,7.581-17.566,9.985c-5.177,2.404-9.968,11.172-9.968,11.172
							l1.278,3.036l43.702-5.98C133.36,390.32,131.45,382.736,135.831,375.433z"/>
					</g>
					
						<path style="fill:none;stroke:#1D1D1B;stroke-width:0.5;stroke-linecap:round;stroke-linejoin:round;stroke-miterlimit:10;" d="
						M135.831,375.433c0,0-0.37-0.185-6.472,1.479c-6.102,1.664-27.086,7.749-27.086,7.749"/>
				</g>
				<g>
					<g>
						<path style="fill:#F8F9FA;" d="M282.646,243.966l-74.814,5.318l-47.593,127.074c-8.689,4.003-12.994,7.386-15.124,9.689
							c5.037,4.485,15.44,12.427,23.422,9.726c10.932-3.698,36.449-34.577,46.619-46.966c10.17-12.389,25.517-39.385,39.2-44.192
							l69.34,13.683l17.011-44.932L282.646,243.966z"/>
						<path style="fill:#1D1D1B;" d="M160.239,376.358l47.593-127.074l-11.034,0.784l-1.842,3.515l-43.222,117.413
							c0,0-9.06,1.109-9.615,12.204c0,0,1.135,1.189,2.996,2.847C147.245,383.743,151.55,380.36,160.239,376.358z"/>
					</g>
					<g>
						<path style="fill:#8CC2FF;" d="M204.801,296.109c0,0-4.993,21.449,7.026,18.675c12.019-2.774,22.743-10.909,22.743-10.909
							s-17.011,6.651-21.264-1.944C209.054,293.335,205.496,292.035,204.801,296.109z"/>
						<path style="fill:#8CC2FF;" d="M315.622,260.664c0,0,0.122,9.004-4.5,10.113c-4.623,1.11-8.506-1.664-8.506-1.664
							s0.555,11.279,8.691,9.8c8.136-1.479,7.563-16.605,7.563-16.605L315.622,260.664z"/>
						<g>
							
								<polygon style="fill:#1D1D1B;stroke:#1D1D1B;stroke-width:0.5;stroke-linecap:round;stroke-linejoin:round;stroke-miterlimit:10;" points="
								254.355,304.615 272.846,297.773 261.826,306.089 							"/>
							
								<path style="fill:none;stroke:#1D1D1B;stroke-width:0.5;stroke-linecap:round;stroke-linejoin:round;stroke-miterlimit:10;" d="
								M251.587,260.773c0,0,7.354,17.092,7.033,24.734c-0.32,7.643-4.265,19.107-4.265,19.107"/>
							
								<path style="fill:none;stroke:#1D1D1B;stroke-width:0.5;stroke-linecap:round;stroke-linejoin:round;stroke-miterlimit:10;" d="
								M251.278,288.466c0,0,8.748-2.958,25.759,0"/>
							
								<path style="fill:none;stroke:#1D1D1B;stroke-width:0.5;stroke-linecap:round;stroke-linejoin:round;stroke-miterlimit:10;" d="
								M215.675,329.902c-2.62,4.115-5.24,8.23-7.86,12.346"/>
							
								<path style="fill:none;stroke:#1D1D1B;stroke-width:0.5;stroke-linecap:round;stroke-linejoin:round;stroke-miterlimit:10;" d="
								M291.097,301.274c4.17,2.506,8.771,4.29,13.54,5.251"/>
						</g>
					</g>
				</g>
				<path style="fill:#FFA873;" d="M295.959,118.421c-2.034-6.477-11.998-14.736-27.263-7.278l-46.565,19.294l2.525,12.941
					c-11.767,2.54-18.331,6.777-21.616,9.622c-0.362,1.226-0.703,2.511-1.013,3.876c-1.774,7.821-2.211,15.535-2.11,22.593
					l8.635,2.185c0,0,1.056,38.46-3.937,50.479h-7.819c-1.988,10.106-3.809,18.926-3.461,19.97
					c0.74,2.219,27.671,17.011,52.666,14.238s40.896-19.045,39.972-25.332c-0.924-6.287,0.038-71.928,0.038-71.928
					S297.993,124.898,295.959,118.421z"/>
				<path style="fill:#8CC2FF;" d="M218.257,128.215c0,0-3.816,2.781-3.181,8.139c0.635,5.359,10.126,17.008,29.418,16.083
					c19.292-0.924,28.444-16.602,28.475-25.772L218.257,128.215z"/>
				<g>
					<path style="fill:#FFA873;" d="M302.8,58.136c4.623,0.924,10.725,11.132,16.457,10.651c4.34-0.364,13.128-4.055,17.142-5.827
						c0.383-1.066,0.661-2.019,0.794-2.79c0.924-5.362-1.109-6.841-8.875-8.875c-7.766-2.034-7.581-7.026-17.13-7.211
						c-9.549-0.185-16.338,12.389-16.338,12.389l1.595,2.093C298.364,58.063,300.695,57.715,302.8,58.136z"/>
					<path style="fill:#8CC2FF;" d="M319.257,68.787c-5.732,0.481-11.834-9.726-16.457-10.651c-2.106-0.421-4.437-0.073-6.356,0.429
						l0.096,0.126c0,0-2.06,1.109-3.355,2.958c-0.198,0.284-0.396,0.728-0.588,1.271c1.108-0.498,2.39-0.827,3.594-0.531
						c3.006,0.74,13.635,7.951,13.635,7.951c1.294,1.664-1.109,5.732-1.109,5.732c-4.546,2.598-12.555,2.077-16.921,1.537
						c1.976,3.262,7.667,5.304,7.667,5.304c0.361,1.849,2.598,2.405,2.598,2.405l20.34,6.103l2.774-9.617
						c2.849-2.008,8.948-12.501,11.225-18.844C332.385,64.732,323.597,68.423,319.257,68.787z"/>
					<path style="fill:#FFA873;" d="M308.717,76.072c0,0,2.404-4.068,1.109-5.732c0,0-10.629-7.211-13.635-7.951
						c-1.204-0.296-2.486,0.033-3.594,0.531c-1.059,2.995-1.916,9.366-1.446,12.967c0.079,0.607,0.316,1.179,0.645,1.722
						C296.163,78.149,304.171,78.67,308.717,76.072z"/>
					<path style="fill:#EBEAEC;" d="M300.092,99.863c0,0-1.414-0.783,0-3.781c1.414-2.998,1.969-8.061,1.969-8.061v-4.367
						c0,0,9.985-6.102,16.457-2.589s3.883,10.357,3.883,10.357l-2.958,13.622c0,0,0.088,0.638-2.082,0.071L300.092,99.863z"/>
					<g>
						
							<path style="fill:none;stroke:#1D1D1B;stroke-width:0.5;stroke-linecap:round;stroke-linejoin:round;stroke-miterlimit:10;" d="
							M300.092,96.081c0,0,3.828-3.122,11.096-1.149"/>
						
							<path style="fill:none;stroke:#1D1D1B;stroke-width:0.5;stroke-linecap:round;stroke-linejoin:round;stroke-miterlimit:10;" d="
							M321.414,87.043c0.164,1.561,0.329,3.123,0.493,4.684"/>
						
							<path style="fill:none;stroke:#1D1D1B;stroke-width:0.5;stroke-linecap:round;stroke-linejoin:round;stroke-miterlimit:10;" d="
							M319.688,88.029c-0.082,0.74-0.164,1.479-0.246,2.219"/>
						<g>
							
								<path style="fill:none;stroke:#1D1D1B;stroke-width:0.5;stroke-linecap:round;stroke-linejoin:round;stroke-miterlimit:10;" d="
								M317.716,50.555c0.164,0.904,0.329,1.808,0.493,2.712"/>
							
								<path style="fill:none;stroke:#1D1D1B;stroke-width:0.5;stroke-linecap:round;stroke-linejoin:round;stroke-miterlimit:10;" d="
								M320.967,50.79c0.352,1.474,0.703,2.947,1.055,4.421"/>
							
								<path style="fill:none;stroke:#1D1D1B;stroke-width:0.5;stroke-linecap:round;stroke-linejoin:round;stroke-miterlimit:10;" d="
								M327.085,53.76c-0.082,0.822-0.164,1.644-0.246,2.465"/>
						</g>
					</g>
				</g>
				<path style="fill:#1D1D1B;" d="M222.131,130.436l-6.932,2.872c0,0-7.768,4.815-12.159,19.691
					c3.285-2.845,9.849-7.082,21.616-9.622L222.131,130.436z"/>
				<path style="fill:#8CC2FF;" d="M208.553,181.653l-8.635-2.185c0.131,9.129,1.162,17.159,1.37,22.894
					c0.196,5.386-2.253,18.393-4.49,29.77h7.819C209.608,220.113,208.553,181.653,208.553,181.653z"/>
				<polygon style="fill:#1D1D1B;" points="228.783,189.788 231.427,256.354 251.278,184.15 				"/>
				<path style="fill:#FFFFFF;" d="M256.02,189.788c0,0,15.162-3.143,25.147-8.876v24.592c0,0-10.962,9.245-23.694,10.725
					L256.02,189.788z"/>
				<path style="fill:#1D1D1B;" d="M273.013,123.225l14.715-13.472c0,0-6.492-3.817-15.291-0.166L273.013,123.225z"/>
				<path style="fill:#FFC1E2;" d="M305.204,121.741l35.502,0.557l3.698-6.398l16.641-2.754c0,0,7.396,20.061-4.808,35.408
					c0,0-3.883,2.68-16.457,2.68c-12.574,0-40.318-1.756-40.318-1.756L305.204,121.741z"/>
				
					<polygon style="fill:#1D1D1B;stroke:#1D1D1B;stroke-width:0.5;stroke-linecap:round;stroke-linejoin:round;stroke-miterlimit:10;" points="
					340.706,122.298 337.4,127.66 337.4,122.298 				"/>
				
					<path style="fill:#1D1D1B;stroke:#1D1D1B;stroke-width:0.5;stroke-linecap:round;stroke-linejoin:round;stroke-miterlimit:10;" d="
					M343.409,117.622c0,0,8.075,3.599,19.173,1.179l-1.178-4.548L343.409,117.622z"/>
				<g>
					<g>
						<path style="fill:#EBEAEC;" d="M353.464,108.753c-0.116,1.829,0.278,5.685,0.588,8.301c5.059-0.883,9.952-2.813,9.952-5.911
							c0-4.599-1.929-10.426-2.189-11.191c-3.066,1.399-6.62,3.076-7.426,3.693C352.91,104.775,353.649,105.841,353.464,108.753z"/>
						<path style="fill:#EBEAEC;" d="M345.739,105.043c1.254-0.865,5.137-11.401,3.103-13.622
							c-2.034-2.221-11.442-6.103-11.442-6.103s-5.82-9.194-9.707-12.324c0.024,0.101,0.042,0.205,0.069,0.305
							c0,0-6.841-0.667-3.513,4.751c3.328,5.418,6.465,9.752,7.115,14.612c0.651,4.859,0.727,11.429,5.034,11.565
							c0,0,0.064,0.217,0.185,0.589C340.396,105.197,345.019,105.539,345.739,105.043z"/>
						<path style="fill:#FFA873;" d="M351.985,83.653c6.102-0.37,1.849-10.708,3.883-13.49c1.628-2.226,5.239-4.239,9.234-0.821
							c-0.118-0.184-0.234-0.381-0.359-0.539c-3.328-4.196-10.355-6.414-15.902-7.524c-5.547-1.11-14.245-4.068-17.477-0.74
							c-3.154,3.247-4.631,8.4-3.672,12.454c1.856,1.495,4.148,4.37,6.042,6.969C338.107,81.298,347.411,83.93,351.985,83.653z"/>
						<path style="fill:#8CC2FF;" d="M355.868,70.163c-2.034,2.782,2.219,13.12-3.883,13.49c-4.574,0.277-13.878-2.355-18.25-3.69
							c2.072,2.843,3.665,5.356,3.665,5.356s9.408,3.882,11.442,6.103c2.034,2.221-1.849,12.756-3.103,13.622
							c-0.72,0.496-5.343,0.154-9.155-0.227c0.817,2.517,4.307,12.299,9.3,12.732c2.13,0.185,5.178,0.028,8.169-0.494
							c-0.309-2.616-0.704-6.472-0.588-8.301c0.185-2.911-0.555-3.978,0.925-5.109c0.806-0.617,4.36-2.294,7.426-3.693
							c-0.019-0.055-0.03-0.089-0.03-0.089s3.883-1.336,5.547-7.201c1.602-5.644,0.799-18.609-2.23-23.319
							C361.107,65.924,357.496,67.937,355.868,70.163z"/>
					</g>
					<g>
						
							<path style="fill:none;stroke:#1D1D1B;stroke-width:0.5;stroke-linecap:round;stroke-linejoin:round;stroke-miterlimit:10;" d="
							M337.4,59.005c-10.887-0.178-9.707,13.988-9.707,13.988s-6.297,0.472-3.444,5.056c2.589,2.097,2.589,4.152,2.589,4.152"/>
						
							<path style="fill:none;stroke:#1D1D1B;stroke-width:0.5;stroke-linecap:round;stroke-linejoin:round;stroke-miterlimit:10;" d="
							M327.693,72.994c0,0,5.476,4.929,9.707,12.324c0,0,14.545,1.802,11.442,10.763"/>
						
							<path style="fill:none;stroke:#1D1D1B;stroke-width:0.5;stroke-linecap:round;stroke-linejoin:round;stroke-miterlimit:10;" d="
							M335.96,92.22c0.411,1.068,0.822,2.137,1.233,3.205"/>
						
							<path style="fill:none;stroke:#1D1D1B;stroke-width:0.5;stroke-linecap:round;stroke-linejoin:round;stroke-miterlimit:10;" d="
							M339.412,92.96c0.411,0.986,0.822,1.972,1.233,2.958"/>
						
							<path style="fill:none;stroke:#1D1D1B;stroke-width:0.5;stroke-linecap:round;stroke-linejoin:round;stroke-miterlimit:10;" d="
							M355.19,70.525c0.74,0.822,1.479,1.644,2.219,2.465"/>
						
							<path style="fill:none;stroke:#1D1D1B;stroke-width:0.5;stroke-linecap:round;stroke-linejoin:round;stroke-miterlimit:10;" d="
							M357.654,69.047c1.089,0.972,1.877,2.277,2.228,3.694"/>
					</g>
					
						<path style="fill:none;stroke:#1D1D1B;stroke-width:0.5;stroke-linecap:round;stroke-linejoin:round;stroke-miterlimit:10;" d="
						M348.842,91.421c0,0,4.992,2.406,7.396-2.219c2.404-4.625,2.579-9.198,7.028-9.987"/>
					
						<path style="fill:none;stroke:#1D1D1B;stroke-width:0.5;stroke-linecap:round;stroke-linejoin:round;stroke-miterlimit:10;" d="
						M345.739,105.043c0,0,3.775,1.115,8.65-1.398"/>
				</g>
				
					<polyline style="fill:#1D1D1B;stroke:#1D1D1B;stroke-width:0.5;stroke-linecap:round;stroke-linejoin:round;stroke-miterlimit:10;" points="
					357.819,101.818 358.721,102.143 362.891,103.644 361.816,99.952 				"/>
				<g>
					<path style="fill:#1D1D1B;" d="M366.427,80.001l-2.806-1.17c-1.55-0.646-3.899,1.451-5.248,4.685
						c-1.349,3.233-1.186,6.379,0.364,7.025l2.806,1.17c1.55,0.646,3.899-1.451,5.248-4.685
						C368.14,83.793,367.977,80.648,366.427,80.001z"/>
					<path style="fill:#EBEAEC;" d="M365.858,86.637c-0.854,2.047-2.189,3.439-2.982,3.108c-0.793-0.331-0.743-2.259,0.111-4.306
						c0.854-2.047,2.189-3.439,2.982-3.108C366.761,82.662,366.712,84.59,365.858,86.637z"/>
				</g>
				<g>
					<g>
						<path style="fill:#858685;" d="M220.646,123.592c0,0-7.636-6.472-5.823-16.087l54.445-5.687l-3.625,15.302L220.646,123.592z"
							/>
						<g>
							<g>
								<path style="fill:#FFC1E2;" d="M218.99,110.235c0,0,0,36.105,23.532,35.977c21.563-0.117,25.196-25.049,22.336-41.986
									L218.99,110.235z"/>
								<g>
									
										<polyline style="fill:none;stroke:#1D1D1B;stroke-width:0.5;stroke-linecap:round;stroke-linejoin:round;stroke-miterlimit:10;" points="
										239.84,117.121 239.933,132.406 244.494,132.406 									"/>
									
										<path style="fill:none;stroke:#1D1D1B;stroke-width:0.5;stroke-linecap:round;stroke-linejoin:round;stroke-miterlimit:10;" d="
										M246.713,135.365c0,0,4.684,0.247,6.41-4.684"/>
									<path style="fill:#1D1D1B;" d="M234.75,120.634c0,0.611-0.495,1.107-1.107,1.107c-0.611,0-1.107-0.495-1.107-1.107
										c0-0.611,0.495-1.107,1.107-1.107C234.254,119.527,234.75,120.023,234.75,120.634z"/>
									<g>
										<path style="fill:#1D1D1B;" d="M237.561,117.394c-0.524,0.524-2.307-0.457-4.342-0.457s-3.818,0.981-4.342,0.457
											s1.169-3.141,4.342-3.141C236.392,114.253,238.085,116.87,237.561,117.394z"/>
									</g>
									<path style="fill:#1D1D1B;" d="M251.969,119.527c0,0.611-0.496,1.107-1.107,1.107c-0.611,0-1.107-0.495-1.107-1.107
										s0.495-1.107,1.107-1.107C251.474,118.421,251.969,118.916,251.969,119.527z"/>
									<g>
										<path style="fill:#1D1D1B;" d="M254.78,116.287c-0.524,0.524-2.307-0.457-4.342-0.457c-2.035,0-3.818,0.981-4.342,0.457
											c-0.524-0.524,1.169-3.141,4.342-3.141C253.611,113.146,255.304,115.763,254.78,116.287z"/>
									</g>
								</g>
							</g>
							<g>
								<g>
									<path style="fill:#FFC1E2;" d="M270.542,122.767c-0.703,3.312-3.438,5.537-6.108,4.97
										c-2.671-0.567-4.266-3.711-3.564-7.022s3.438-5.537,6.108-4.97C269.65,116.311,271.245,119.455,270.542,122.767z"/>
									
										<path style="fill:#1D1D1B;stroke:#1D1D1B;stroke-width:0.5;stroke-linecap:round;stroke-linejoin:round;stroke-miterlimit:10;" d="
										M265.488,119.527c0,0,2.471-2.222,4.36,1.107"/>
								</g>
								<g>
									<path style="fill:#FFC1E2;" d="M224.641,123.187c0.818,3.285-0.666,6.483-3.315,7.143c-2.649,0.66-5.46-1.468-6.279-4.753
										c-0.818-3.285,0.666-6.483,3.315-7.143C221.012,117.774,223.823,119.902,224.641,123.187z"/>
									
										<path style="fill:#1D1D1B;stroke:#1D1D1B;stroke-width:0.5;stroke-linecap:round;stroke-linejoin:round;stroke-miterlimit:10;" d="
										M216.265,123.592c0,0,1.311-4.258,3.984-1.852"/>
								</g>
							</g>
						</g>
					</g>
					<g>
						
							<path style="fill:none;stroke:#1D1D1B;stroke-width:0.75;stroke-linecap:round;stroke-linejoin:round;stroke-miterlimit:10;" d="
							M211.289,107.426c0,0-4.758,44.087,33.748,44.087s26.056-49.695,26.056-49.695"/>
						
							<path style="fill:none;stroke:#1D1D1B;stroke-width:0.75;stroke-linecap:round;stroke-linejoin:round;stroke-miterlimit:10;" d="
							M211.874,121.741c0,0,30.709,9.923,61.095-5.299"/>
						
							<path style="fill:none;stroke:#1D1D1B;stroke-width:0.75;stroke-linecap:round;stroke-linejoin:round;stroke-miterlimit:10;" d="
							M216.871,136.615c0,0,26.082,8.673,54.249-4.208"/>
						
							<path style="fill:none;stroke:#1D1D1B;stroke-width:0.75;stroke-linecap:round;stroke-linejoin:round;stroke-miterlimit:10;" d="
							M222.104,111.142c0,0-1.023,13.768,5.167,27.624"/>
						
							<path style="fill:none;stroke:#1D1D1B;stroke-width:0.75;stroke-linecap:round;stroke-linejoin:round;stroke-miterlimit:10;" d="
							M259.702,106.723c0,0,3.901,12.809,0.757,29.632"/>
						
							<path style="fill:none;stroke:#1D1D1B;stroke-width:0.75;stroke-linecap:round;stroke-linejoin:round;stroke-miterlimit:10;" d="
							M232.537,124.954c0,0,2.589,21.195,7.396,26.28"/>
						
							<path style="fill:none;stroke:#1D1D1B;stroke-width:0.75;stroke-linecap:round;stroke-linejoin:round;stroke-miterlimit:10;" d="
							M253.123,123.225c0,0,0.904,14.12-2.26,27.861"/>
						
							<path style="fill:none;stroke:#1D1D1B;stroke-width:0.75;stroke-linecap:round;stroke-linejoin:round;stroke-miterlimit:10;" d="
							M218.99,123.411c0,0,1.196,9.585,4.043,14.683"/>
						
							<path style="fill:none;stroke:#1D1D1B;stroke-width:0.75;stroke-linecap:round;stroke-linejoin:round;stroke-miterlimit:10;" d="
							M268.694,118.421c0,0,0.082,9.107-1.027,15.46"/>
					</g>
					<g>
						<g>
							<g>
								<path style="fill:#EBEAEC;" d="M254.94,71.992c-3.64-1.883-8.054-3.071-13.405-3.194
									c-10.929-0.251-18.011,3.469-22.596,8.349c-1.491,8.197-2.34,19.065,0.051,30.106c8.945-0.402,26.229-1.236,37.412-2.14
									C258.707,92.306,256.852,79.958,254.94,71.992z"/>
								<path style="fill:#FFA873;" d="M218.939,77.148c-4.414,4.698-6.514,10.472-7.482,14.826
									c-1.972,8.875,1.726,15.532,1.726,15.532s2.244-0.092,5.807-0.252C216.599,96.213,217.448,85.345,218.939,77.148z"/>
								<path style="fill:#FFA873;" d="M254.94,71.992c1.912,7.965,3.767,20.314,1.461,33.122c5.358-0.433,9.316-0.882,10.281-1.306
									c3.778-1.665,4.438-5.996,4.438-5.996C269.825,89.611,265.89,77.656,254.94,71.992z"/>
								<path style="fill:#8CC2FF;" d="M228.783,83.468c0,0,3.569,2.589,7.822,1.294c4.253-1.294,14.258-5.547,14.258-5.547
									s-10.571,12.389-16.113,12.204C229.208,91.234,228.783,83.468,228.783,83.468z"/>
								
									<path style="fill:none;stroke:#1D1D1B;stroke-width:0.5;stroke-linecap:round;stroke-linejoin:round;stroke-miterlimit:10;" d="
									M261.551,101.257c0,0,4.727-13.232,0.245-24.109"/>
								
									<path style="fill:none;stroke:#1D1D1B;stroke-width:0.5;stroke-linecap:round;stroke-linejoin:round;stroke-miterlimit:10;" d="
									M213.626,85.318c0,0-2.353,14.287,2.639,21.936"/>
							</g>
							<g>
								<path style="fill:#8CC2FF;" d="M213.183,107.506c0,0,5.671-7.396,23.915-9.369c18.244-1.972,29.585,5.671,29.585,5.671
									S233.646,120.079,213.183,107.506z"/>
								
									<path style="fill:none;stroke:#1D1D1B;stroke-width:0.5;stroke-linecap:round;stroke-linejoin:round;stroke-miterlimit:10;" d="
									M214.822,105.921c0,0,18.38,8.129,50.035-3.156"/>
							</g>
						</g>
						<path style="fill:#FFFFFF;" d="M215.076,103.644c0,2.089-1.693,3.781-3.781,3.781c-2.089,0-2.549-1.693-2.549-3.781
							c0-2.088,0.46-3.781,2.549-3.781C213.383,99.863,215.076,101.556,215.076,103.644z"/>
						<path style="fill:#FFFFFF;" d="M266.682,99.863c0-2.088,1.693-3.781,3.781-3.781c2.088,0,2.549,1.693,2.549,3.781
							s-0.46,3.781-2.549,3.781C268.375,103.644,266.682,101.951,266.682,99.863z"/>
					</g>
				</g>
				<g>
					<path style="fill:#FFC1E2;" d="M317.778,103.644c0,0-1.109-3.535-5.917-5.832c-4.808-2.298-10.54,0-10.54,0l-28.309,47.229
						c-0.951,0.167-6.749,0.818-14.392,1.648c-11.793,16.454-6.315,32.209-4.347,36.667c16.798-4.481,36.35-10.255,40.022-13.723
						C300.951,163.347,317.778,103.644,317.778,103.644z"/>
					<g>
						<path style="fill:#FFA873;" d="M258.62,146.689c-17.78,1.93-45.549,4.824-45.549,4.824
							c-16.023,35.206,15.711,38.275,15.711,38.275s11.835-2.789,25.49-6.432C252.305,178.899,246.827,163.144,258.62,146.689z"/>
						<g>
							<path style="fill:#8CC2FF;" d="M236.235,154.287c0,0-3.34,7.766-1.485,19.6l9.237-1.109c0,0-1.149-15.505,2.016-20.288
								L236.235,154.287z"/>
							<ellipse style="fill:#FFFFFF;" cx="220.248" cy="163.648" rx="7.119" ry="8.437"/>
						</g>
					</g>
					
						<path style="fill:#1D1D1B;stroke:#1D1D1B;stroke-width:0.5;stroke-linecap:round;stroke-linejoin:round;stroke-miterlimit:10;" d="
						M304.141,97.056c0,0,8.671-0.004,13.219,8.058l0.418-1.47C317.778,103.644,315.22,95.481,304.141,97.056z"/>
				</g>
				
					<line style="fill:none;stroke:#1D1D1B;stroke-width:0.5;stroke-linecap:round;stroke-linejoin:round;stroke-miterlimit:10;" x1="273.013" y1="145.041" x2="219.844" y2="150.805"/>
				
					<line style="fill:none;stroke:#1D1D1B;stroke-width:0.5;stroke-linecap:round;stroke-linejoin:round;stroke-miterlimit:10;" x1="254.273" y1="183.357" x2="223.033" y2="191.453"/>
				<g>
					<path style="fill:#F8F9FA;" d="M297.749,59.228l1.714-2.785c-25.402-2.988-60.393-24.871-76.431-32.76
						c-9.317-4.583-18.282-5.75-23.908-4.574c7.667,4.751,37.435,22.927,50.91,27.203C262.246,50.187,287.495,56.641,297.749,59.228
						z"/>
					<path style="fill:#EBEAEC;" d="M250.035,46.311c-13.475-4.277-43.243-22.452-50.91-27.203
						c-4.058,0.849-6.382,2.914-5.831,5.806c0.244,1.284,1.549,2.987,3.546,4.935c10.982,6.7,35.336,21.145,47.156,24.896
						c12.516,3.972,38.724,10.652,48.449,13.102l5.305-8.62C287.495,56.641,262.246,50.187,250.035,46.311z"/>
					<path style="fill:#F8F9FA;" d="M196.839,29.85c8.739,8.527,30.78,21.777,35.697,25.389c6.04,4.438,58.483,14.924,58.483,14.924
						l1.425-2.315c-9.725-2.449-35.933-9.13-48.449-13.102C232.175,50.995,207.822,36.55,196.839,29.85z"/>
					
						<path style="fill:none;stroke:#1D1D1B;stroke-width:0.5;stroke-linecap:round;stroke-linejoin:round;stroke-miterlimit:10;" d="
						M224.975,32.353c2.793,2.795,5.586,5.59,8.379,8.386"/>
					
						<path style="fill:none;stroke:#1D1D1B;stroke-width:0.5;stroke-linecap:round;stroke-linejoin:round;stroke-miterlimit:10;" d="
						M233.153,35.762c1.898,2.511,4.145,4.758,6.657,6.657"/>
					
						<path style="fill:none;stroke:#1D1D1B;stroke-width:0.5;stroke-linecap:round;stroke-linejoin:round;stroke-miterlimit:10;" d="
						M272.35,62.887c2.542,1.359,5.645,1.629,8.383,0.729"/>
				</g>
				
					<polygon style="fill:#1D1D1B;stroke:#1D1D1B;stroke-width:0.5;stroke-linecap:round;stroke-linejoin:round;stroke-miterlimit:10;" points="
					312.508,121.538 303.346,149.715 307.927,149.715 				"/>
				
					<line style="fill:none;stroke:#1D1D1B;stroke-width:0.5;stroke-linecap:round;stroke-linejoin:round;stroke-miterlimit:10;" x1="224.656" y1="191.032" x2="214.544" y2="258.388"/>
				<path style="fill:none;stroke:#1D1D1B;stroke-width:0.5;stroke-linecap:round;stroke-linejoin:round;stroke-miterlimit:10;" d="
					M193.68,248.441c0,0,21.893,15.337,46.415,14.138c24.523-1.199,45.841-20.211,45.841-20.211"/>
				<path style="fill:none;stroke:#1D1D1B;stroke-width:0.5;stroke-linecap:round;stroke-linejoin:round;stroke-miterlimit:10;" d="
					M254.94,147.087c0,0-6.758,7.261-6.706,21.152c0.037,9.889,3.044,15.911,3.044,15.911"/>
				<g>
					<g>
						<path style="fill:#FFFFFF;" d="M83.133,407.422c0,0-2.404,7.396,13.683,8.69c0,0,5.547,10.17,18.491,8.506
							c0,0,17.936-7.396,30.509-6.657c12.574,0.74,21.226,5.547,30.028,1.109c8.802-4.438,25.003-24.306,25.003-24.306
							l-14.537,2.857l-47.706-6.102l-44.377,9.43L83.133,407.422z"/>
						
							<path style="fill:none;stroke:#1D1D1B;stroke-width:0.5;stroke-linecap:round;stroke-linejoin:round;stroke-miterlimit:10;" d="
							M96.816,416.112c0,0,44.007-6.841,45.302-6.841c1.294,0,11.649,3.142,22.189-1.11c10.54-4.252,14.053-8.165,14.053-8.165"/>
						<path style="fill:#8CC2FF;" d="M141.716,394.765c0,0,4.11,17.411,16.679,25.019l-14.603-1.869
							c0,0-12.879-10.869-11.991-23.439C131.8,394.475,136.762,393.177,141.716,394.765z"/>
						
							<path style="fill:none;stroke:#FFFFFF;stroke-width:0.5;stroke-linecap:round;stroke-linejoin:round;stroke-miterlimit:10;" d="
							M136.756,393.975c0,0,1.771,12.428,12.812,24.679"/>
						<path style="fill:#FFA873;" d="M83.133,407.422c0,0-4.068-7.951,5.362-10.17s31.434-4.807,36.796-6.841
							c5.362-2.034,11.094-7.766,20.524-7.211c9.43,0.555,20.709,10.909,33.468,9.245c12.758-1.664,15.347-7.841,13.683-9.283
							c0,0,2.589-2.921,9.985,0.962c7.396,3.883-4.068,14.977-13.128,15.532c-9.06,0.555-29.215,0.74-38.46-1.849
							c-9.245-2.589-12.019-5.159-20.894-3.042C121.593,396.882,83.133,407.422,83.133,407.422z"/>
					</g>
					<g>
						
							<path style="fill:none;stroke:#1D1D1B;stroke-width:0.5;stroke-linecap:round;stroke-linejoin:round;stroke-miterlimit:10;" d="
							M190.496,397.189c-0.407,1.704-1.485,3.237-2.95,4.198"/>
						
							<path style="fill:none;stroke:#1D1D1B;stroke-width:0.5;stroke-linecap:round;stroke-linejoin:round;stroke-miterlimit:10;" d="
							M193.958,397.437c0.054,1.642-0.973,3.268-2.479,3.925"/>
						
							<path style="fill:none;stroke:#1D1D1B;stroke-width:0.5;stroke-linecap:round;stroke-linejoin:round;stroke-miterlimit:10;" d="
							M101.993,399.902c1.479-0.493,2.959-0.986,4.438-1.479"/>
						
							<path style="fill:none;stroke:#1D1D1B;stroke-width:0.5;stroke-linecap:round;stroke-linejoin:round;stroke-miterlimit:10;" d="
							M137.249,389.794c2.137-0.082,4.273-0.164,6.41-0.246"/>
					</g>
				</g>
				
					<polygon style="fill:#1D1D1B;stroke:#1D1D1B;stroke-width:0.5;stroke-linecap:round;stroke-linejoin:round;stroke-miterlimit:10;" points="
					322.493,318.06 333.773,269.855 340.706,273.366 				"/>
				<g>
					<path style="fill:#FFA873;" d="M326.838,326.064c1.676-5.867,11.406-43.341,18.17-60.075
						c-8.53,7.318-14.105,23.012-17.985,31.785c-4.253,9.615-4.623,23.298-4.623,23.298s-19.97,51.773-27.458,69.34
						c-7.489,17.566-7.858,26.811-5.825,32.728c0.753,2.191,2.547,3.111,4.506,3.405c0.158-3.018,1.243-8.526,5.109-18.382
						C306.129,389.301,324.989,332.535,326.838,326.064z"/>
					<path style="fill:#FFFFFF;" d="M377.687,263.196c-5.547-3.883-20.155-5.177-30.14,0.924c-0.875,0.535-1.72,1.165-2.54,1.868
						c-6.763,16.734-16.493,54.208-18.17,60.075c-1.849,6.472-20.709,63.238-28.106,82.097c-3.865,9.856-4.951,15.364-5.109,18.382
						c3.331,0.5,7.143-0.816,7.143-0.816l29.77,0.933c0,0,1.664-3.522,2.589-6.85c0.924-3.328,29.77-64.717,34.022-76.524
						c4.253-11.807,14.793-45.328,16.642-56.608C385.638,275.4,383.234,267.079,377.687,263.196z"/>
					
						<path style="fill:none;stroke:#1D1D1B;stroke-width:0.5;stroke-linecap:round;stroke-linejoin:round;stroke-miterlimit:10;" d="
						M356.555,260.664c0,0,8.189,0.868,6.71,12.147c-1.479,11.279-23.003,84.871-27.034,94.856
						c-4.03,9.985-19.747,53.639-19.193,58.993"/>
					<path style="fill:#8CC2FF;" d="M324.763,304.46c0,0,38.319,0.21,52.648,6.839l-5.905,19.052c0,0-25.253,0.583-49.014-11.098
						C322.493,319.253,322.965,310.035,324.763,304.46z"/>
					
						<path style="fill:none;stroke:#FFFFFF;stroke-width:0.5;stroke-linecap:round;stroke-linejoin:round;stroke-miterlimit:10;" d="
						M323.242,311.68c0,0,36.022,8.458,51.428,8.462"/>
					
						<path style="fill:none;stroke:#1D1D1B;stroke-width:0.5;stroke-linecap:round;stroke-linejoin:round;stroke-miterlimit:10;" d="
						M374.462,276.387c-0.073,2.466-0.146,4.931-0.219,7.397"/>
					
						<path style="fill:none;stroke:#1D1D1B;stroke-width:0.5;stroke-linecap:round;stroke-linejoin:round;stroke-miterlimit:10;" d="
						M376.928,278.606c-0.082,3.205-0.164,6.41-0.246,9.615"/>
					
						<path style="fill:none;stroke:#1D1D1B;stroke-width:0.5;stroke-linecap:round;stroke-linejoin:round;stroke-miterlimit:10;" d="
						M328.317,358.977c-0.657,2.712-1.315,5.424-1.972,8.136"/>
					
						<path style="fill:none;stroke:#1D1D1B;stroke-width:0.5;stroke-linecap:round;stroke-linejoin:round;stroke-miterlimit:10;" d="
						M330.536,362.182c-0.657,2.301-1.315,4.602-1.972,6.903"/>
				</g>
				<g>
					<path style="fill:#FFA873;" d="M279.687,441.814c0,0-2.774,3.152-1.109,5.367c1.664,2.214,63.053,8.131,69.34,5.543
						c6.287-2.589,12.759-8.136,11.279-12.389c-1.479-4.253-11.834-4.623-16.087-6.102c-4.253-1.479-12.574-7.573-12.574-7.573
						l-13.512,1.471L279.687,441.814z"/>
					
						<path style="fill:none;stroke:#1D1D1B;stroke-width:0.5;stroke-linecap:round;stroke-linejoin:round;stroke-miterlimit:10;" d="
						M324.118,433.726c0,0,3.225-4.852,12.403-3.004"/>
					
						<path style="fill:none;stroke:#1D1D1B;stroke-width:0.5;stroke-linecap:round;stroke-linejoin:round;stroke-miterlimit:10;" d="
						M330.721,436.452c0,0,1.764-3.603,11.145-2.726"/>
					<path style="fill:#F8F9FA;" d="M344.034,436.822c0,0-7.211,1.109-13.313-0.37c-6.102-1.479-8.136-3.698-8.875-5.362
						c-0.74-1.664-0.555-2.589-0.555-2.589l9.245-1.841c0,0-4.579-8.01-11.997-7.615c-7.418,0.395-15.924,5.757-15.924,5.757
						s-1.109,4.068-3.328,5.177c-2.219,1.109-5.642-1.294-5.687-5.362c-0.045-4.068-4.483-1.479-4.483-1.479
						s-1.172-0.384-2.503,0.213c3.055,2.452,9.821,9.09,13.284,21.862c7.405,1.108,14.955,2.04,18.989,1.962
						c9.615-0.185,21.634-1.294,24.038-3.883C345.329,440.705,344.034,436.822,344.034,436.822z"/>
					<path style="fill:#8CC2FF;" d="M286.614,423.352c-1.093,0.49-2.294,1.64-3.044,4.225c-1.664,5.732-3.883,14.238-3.883,14.238
						s9.967,1.868,20.211,3.4C296.435,432.442,289.669,425.804,286.614,423.352z"/>
					
						<path style="fill:none;stroke:#1D1D1B;stroke-width:0.5;stroke-linecap:round;stroke-linejoin:round;stroke-miterlimit:10;" d="
						M309.587,427.005c3.82,1.515,8.146,1.72,12.092,0.573"/>
					
						<path style="fill:none;stroke:#1D1D1B;stroke-width:0.5;stroke-linecap:round;stroke-linejoin:round;stroke-miterlimit:10;" d="
						M301.199,440.335c1.175,2.281,3.248,4.084,5.669,4.932"/>
					
						<path style="fill:none;stroke:#1D1D1B;stroke-width:0.5;stroke-linecap:round;stroke-linejoin:round;stroke-miterlimit:10;" d="
						M307.855,443.787c1.068,0.657,2.137,1.315,3.205,1.972"/>
					
						<path style="fill:none;stroke:#1D1D1B;stroke-width:0.5;stroke-linecap:round;stroke-linejoin:round;stroke-miterlimit:10;" d="
						M335.469,445.015c5.255,2.005,11.508,1.139,16.02-2.218"/>
				</g>
			</g>
		</g>
	</g>
</g>
</svg>
